<svg width="500" height="200" viewBox="0 0 500 200" fill="none" xmlns="http://www.w3.org/2000/svg">
<g clip-path="url(#clip0_3085_2)">
<g filter="url(#filter0_d_3085_2)">
<path d="M19.9248 49.2769C27.0588 43.2851 41.3268 39.3518 56.3258 39.3518C71.3238 39.3518 85.6778 43.2483 92.5538 49.2769C93.3818 49.8078 94.4058 50.0655 95.4378 50.0028C96.4688 49.9401 97.4398 49.5611 98.1718 48.9354C98.9028 48.3097 99.3458 47.4793 99.4198 46.5967C99.4928 45.7141 99.1918 44.8384 98.5708 44.1306C88.2568 35.1613 69.9488 32 56.2828 32C42.6158 32 24.3088 35.198 13.9078 44.1306C13.2878 44.8384 12.9858 45.7141 13.0598 46.5967C13.1328 47.4793 13.5758 48.3097 14.3078 48.9354C15.0388 49.5611 16.0098 49.9401 17.0418 50.0028C18.0738 50.0655 19.0968 49.8078 19.9248 49.2769Z" fill="black"/>
<path fill-rule="evenodd" clip-rule="evenodd" d="M56.3263 46.7037C80.2393 46.7037 98.4763 56.3476 110.625 75.3477L134.178 61.9107L193.012 95.4751L173.312 107.161V127.022L161.21 134.2V153.071H167.752V168.295H160.483V159.565H154.668V168.295H147.4V153.071H153.942V138.512L134.205 150.22L98.1473 128.83C97.1073 129.389 96.0083 129.866 94.8613 130.256C92.3513 131.108 89.6673 131.521 86.9673 131.471C84.7683 131.46 82.5773 131.238 80.4353 130.809C68.1013 128.31 54.9073 118.936 51.4693 110.371C51.2893 109.913 51.2163 109.428 51.2543 108.945C51.2923 108.462 51.4413 107.991 51.6933 107.557C51.9443 107.124 52.2933 106.737 52.7193 106.419C53.1453 106.1 53.6413 105.857 54.1773 105.703C54.7133 105.548 55.2793 105.486 55.8443 105.518C56.4083 105.551 56.9603 105.679 57.4673 105.894C57.9733 106.109 58.4263 106.407 58.7983 106.772C59.1703 107.136 59.4543 107.56 59.6353 108.019C61.8703 113.716 72.0983 121.546 82.4123 123.641C84.6413 124.326 87.0483 124.472 89.3683 124.063C91.3843 123.708 93.2673 122.946 94.8633 121.845V110.287C94.1223 110.951 93.3093 111.569 92.4253 112.136C83.6973 117.808 73.6043 111.566 66.0093 106.867L65.9093 106.805C58.3033 102.1 52.9313 99.1226 49.2783 101.218C47.4663 102.363 46.0563 103.911 45.2003 105.693C44.3443 107.475 44.0743 109.423 44.4213 111.327C45.2813 118.679 52.4583 128.714 70.2073 135.22C71.1213 135.553 71.8723 136.147 72.3323 136.9C72.7923 137.654 72.9333 138.52 72.7303 139.352C72.5273 140.184 71.9943 140.93 71.2213 141.464C70.4473 141.997 69.4813 142.285 68.4883 142.278C67.9703 142.259 67.4603 142.159 66.9843 141.984C45.7543 134.081 37.1583 121.436 36.1273 112.025C35.6313 108.805 36.1703 105.53 37.6843 102.551C39.1983 99.5725 41.6313 97.0022 44.7223 95.1159C53.4153 90.1589 62.9293 95.9073 70.5763 100.528L71.1093 100.85C78.8453 105.519 84.0023 108.46 87.4403 106.254C88.4313 105.598 89.2273 104.866 89.8603 104.085L79.2283 97.7791C79.2103 97.7657 79.1893 97.7523 79.1663 97.7391C78.4723 97.336 77.6743 96.3863 77.3613 95.9618L76.3963 94.8797L76.3873 94.8802L76.3963 94.8752C69.4633 87.332 61.1073 84.1623 52.1573 85.6319C47.0203 86.5817 42.2603 88.6563 38.3433 91.6527C34.4253 94.6491 31.4853 98.4645 29.8103 102.725V102.762C26.1573 114.893 31.6573 128.604 46.0113 143.675C46.7243 144.428 47.0603 145.39 46.9483 146.354C46.8353 147.318 46.2823 148.204 45.4103 148.821C44.6603 149.378 43.6963 149.679 42.7023 149.667C42.0463 149.68 41.3953 149.564 40.7993 149.328C40.2033 149.093 39.6783 148.743 39.2643 148.307C23.0623 131.397 16.9173 115.481 21.2143 100.997C23.3183 95.3447 27.1403 90.2721 32.2913 86.2995C37.4413 82.3269 43.7343 79.5972 50.5243 78.3903C57.6903 77.2565 71.4053 77.3863 83.5473 90.7954L89.1163 87.6187C83.6773 77.9971 71.3733 68.7594 56.2833 68.7594C15.7563 68.7594 12.6193 105.519 12.6193 116.547C12.6193 117.522 12.1663 118.457 11.3603 119.146C10.5543 119.835 9.4613 120.223 8.3223 120.223C7.1823 120.223 6.0893 119.835 5.2833 119.146C4.4773 118.457 4.02431 117.522 4.02431 116.547C4.02431 89.896 17.7763 61.4075 56.2833 61.4075C65.7183 61.7172 74.8203 64.4696 82.3873 69.3006C88.2803 73.0631 93.0253 77.9484 96.2673 83.5389L103.459 79.4355C92.7453 62.3733 77.2223 54.0556 56.2403 54.0556C34.4513 54.0556 18.6363 63.0617 8.1503 81.4046C7.8983 81.8412 7.5483 82.2307 7.1203 82.5507C6.6913 82.8707 6.19331 83.1147 5.65331 83.2686C5.11331 83.4224 4.54331 83.4831 3.97631 83.4471C3.40831 83.4111 2.8553 83.2791 2.3483 83.0588C1.3363 82.6181 0.569297 81.8526 0.214297 80.9296C-0.139703 80.0066 -0.0526918 79.0012 0.457308 78.133C12.4043 57.2904 31.2713 46.7037 56.3263 46.7037ZM134.205 142.425L102.341 123.523C102.29 123.323 102.22 123.127 102.131 122.938V111.365L134.178 130.375L153.942 118.652V130.717L134.205 142.425ZM100.094 102.361L134.178 122.58L151.014 112.593L132.163 101.368L136.194 95.964L157.58 108.698L179.692 95.5813L134.178 69.6157L99.0853 89.636C99.0863 89.6372 99.0863 89.6384 99.0863 89.6397L91.6263 93.8918C91.6263 93.8919 91.6263 93.8917 91.6263 93.8918L88.6643 95.5811L91.8573 97.4752L91.8583 97.4813L100.092 102.364L100.094 102.361ZM166.043 123.539L161.21 126.405V114.339L166.043 111.473V123.539Z" fill="black"/>
<mask id="mask0_3085_2" style="mask-type:luminance" maskUnits="userSpaceOnUse" x="0" y="32" width="194" height="137">
<path d="M19.9248 49.2769C27.0588 43.2851 41.3268 39.3518 56.3258 39.3518C71.3238 39.3518 85.6778 43.2483 92.5538 49.2769C93.3818 49.8078 94.4058 50.0655 95.4378 50.0028C96.4688 49.9401 97.4398 49.5611 98.1718 48.9354C98.9028 48.3097 99.3458 47.4793 99.4198 46.5967C99.4928 45.7141 99.1918 44.8384 98.5708 44.1306C88.2568 35.1613 69.9488 32 56.2828 32C42.6158 32 24.3088 35.198 13.9078 44.1306C13.2878 44.8384 12.9858 45.7141 13.0598 46.5967C13.1328 47.4793 13.5758 48.3097 14.3078 48.9354C15.0388 49.5611 16.0098 49.9401 17.0418 50.0028C18.0738 50.0655 19.0968 49.8078 19.9248 49.2769Z" fill="white"/>
<path fill-rule="evenodd" clip-rule="evenodd" d="M56.3263 46.7037C80.2393 46.7037 98.4763 56.3476 110.625 75.3477L134.178 61.9107L193.012 95.4751L173.312 107.161V127.022L161.21 134.2V153.071H167.752V168.295H160.483V159.565H154.668V168.295H147.4V153.071H153.942V138.512L134.205 150.22L98.1473 128.83C97.1073 129.389 96.0083 129.866 94.8613 130.256C92.3513 131.108 89.6673 131.521 86.9673 131.471C84.7683 131.46 82.5773 131.238 80.4353 130.809C68.1013 128.31 54.9073 118.936 51.4693 110.371C51.2893 109.913 51.2163 109.428 51.2543 108.945C51.2923 108.462 51.4413 107.991 51.6933 107.557C51.9443 107.124 52.2933 106.737 52.7193 106.419C53.1453 106.1 53.6413 105.857 54.1773 105.703C54.7133 105.548 55.2793 105.486 55.8443 105.518C56.4083 105.551 56.9603 105.679 57.4673 105.894C57.9733 106.109 58.4263 106.407 58.7983 106.772C59.1703 107.136 59.4543 107.56 59.6353 108.019C61.8703 113.716 72.0983 121.546 82.4123 123.641C84.6413 124.326 87.0483 124.472 89.3683 124.063C91.3843 123.708 93.2673 122.946 94.8633 121.845V110.287C94.1223 110.951 93.3093 111.569 92.4253 112.136C83.6973 117.808 73.6043 111.566 66.0093 106.867L65.9093 106.805C58.3033 102.1 52.9313 99.1226 49.2783 101.218C47.4663 102.363 46.0563 103.911 45.2003 105.693C44.3443 107.475 44.0743 109.423 44.4213 111.327C45.2813 118.679 52.4583 128.714 70.2073 135.22C71.1213 135.553 71.8723 136.147 72.3323 136.9C72.7923 137.654 72.9333 138.52 72.7303 139.352C72.5273 140.184 71.9943 140.93 71.2213 141.464C70.4473 141.997 69.4813 142.285 68.4883 142.278C67.9703 142.259 67.4603 142.159 66.9843 141.984C45.7543 134.081 37.1583 121.436 36.1273 112.025C35.6313 108.805 36.1703 105.53 37.6843 102.551C39.1983 99.5725 41.6313 97.0022 44.7223 95.1159C53.4153 90.1589 62.9293 95.9073 70.5763 100.528L71.1093 100.85C78.8453 105.519 84.0023 108.46 87.4403 106.254C88.4313 105.598 89.2273 104.866 89.8603 104.085L79.2283 97.7791C79.2103 97.7657 79.1893 97.7523 79.1663 97.7391C78.4723 97.336 77.6743 96.3863 77.3613 95.9618L76.3963 94.8797L76.3873 94.8802L76.3963 94.8752C69.4633 87.332 61.1073 84.1623 52.1573 85.6319C47.0203 86.5817 42.2603 88.6563 38.3433 91.6527C34.4253 94.6491 31.4853 98.4645 29.8103 102.725V102.762C26.1573 114.893 31.6573 128.604 46.0113 143.675C46.7243 144.428 47.0603 145.39 46.9483 146.354C46.8353 147.318 46.2823 148.204 45.4103 148.821C44.6603 149.378 43.6963 149.679 42.7023 149.667C42.0463 149.68 41.3953 149.564 40.7993 149.328C40.2033 149.093 39.6783 148.743 39.2643 148.307C23.0623 131.397 16.9173 115.481 21.2143 100.997C23.3183 95.3447 27.1403 90.2721 32.2913 86.2995C37.4413 82.3269 43.7343 79.5972 50.5243 78.3903C57.6903 77.2565 71.4053 77.3863 83.5473 90.7954L89.1163 87.6187C83.6773 77.9971 71.3733 68.7594 56.2833 68.7594C15.7563 68.7594 12.6193 105.519 12.6193 116.547C12.6193 117.522 12.1663 118.457 11.3603 119.146C10.5543 119.835 9.4613 120.223 8.3223 120.223C7.1823 120.223 6.0893 119.835 5.2833 119.146C4.4773 118.457 4.02431 117.522 4.02431 116.547C4.02431 89.896 17.7763 61.4075 56.2833 61.4075C65.7183 61.7172 74.8203 64.4696 82.3873 69.3006C88.2803 73.0631 93.0253 77.9484 96.2673 83.5389L103.459 79.4355C92.7453 62.3733 77.2223 54.0556 56.2403 54.0556C34.4513 54.0556 18.6363 63.0617 8.1503 81.4046C7.8983 81.8412 7.5483 82.2307 7.1203 82.5507C6.6913 82.8707 6.19331 83.1147 5.65331 83.2686C5.11331 83.4224 4.54331 83.4831 3.97631 83.4471C3.40831 83.4111 2.8553 83.2791 2.3483 83.0588C1.3363 82.6181 0.569297 81.8526 0.214297 80.9296C-0.139703 80.0066 -0.0526918 79.0012 0.457308 78.133C12.4043 57.2904 31.2713 46.7037 56.3263 46.7037ZM134.205 142.425L102.341 123.523C102.29 123.323 102.22 123.127 102.131 122.938V111.365L134.178 130.375L153.942 118.652V130.717L134.205 142.425ZM100.094 102.361L134.178 122.58L151.014 112.593L132.163 101.368L136.194 95.964L157.58 108.698L179.692 95.5813L134.178 69.6157L99.0853 89.636C99.0863 89.6372 99.0863 89.6384 99.0863 89.6397L91.6263 93.8918C91.6263 93.8919 91.6263 93.8917 91.6263 93.8918L88.6643 95.5811L91.8573 97.4752L91.8583 97.4813L100.092 102.364L100.094 102.361ZM166.043 123.539L161.21 126.405V114.339L166.043 111.473V123.539Z" fill="white"/>
</mask>
<g mask="url(#mask0_3085_2)">
<path d="M19.9252 49.2769L20.4652 50.1186L20.5192 50.0839L20.5682 50.0426L19.9252 49.2769ZM92.5542 49.2769L91.8952 50.0288L91.9512 50.0782L92.0142 50.1186L92.5542 49.2769ZM98.5712 44.1306L99.3232 43.4713L99.2782 43.4204L99.2272 43.376L98.5712 44.1306ZM13.9082 44.1306L13.2572 43.372L13.2032 43.4181L13.1572 43.4713L13.9082 44.1306ZM110.625 75.3477L109.782 75.8864L110.294 76.6874L111.12 76.2163L110.625 75.3477ZM134.178 61.9107L134.673 61.0421L134.178 60.7594L133.682 61.0421L134.178 61.9107ZM193.012 95.4751L193.522 96.3352L195.001 95.4583L193.508 94.6065L193.012 95.4751ZM173.312 107.161L172.801 106.301L172.312 106.592V107.161H173.312ZM173.312 127.022L173.822 127.882L174.312 127.592V127.022H173.312ZM161.21 134.2L160.7 133.34L160.21 133.631V134.2H161.21ZM161.21 153.071H160.21V154.071H161.21V153.071ZM167.752 153.071H168.752V152.071H167.752V153.071ZM167.752 168.295V169.295H168.752V168.295H167.752ZM160.483 168.295H159.483V169.295H160.483V168.295ZM160.483 159.565H161.483V158.565H160.483V159.565ZM154.668 159.565V158.565H153.668V159.565H154.668ZM154.668 168.295V169.295H155.668V168.295H154.668ZM147.4 168.295H146.4V169.295H147.4V168.295ZM147.4 153.071V152.071H146.4V153.071H147.4ZM153.942 153.071V154.071H154.942V153.071H153.942ZM153.942 138.512H154.942V136.756L153.431 137.652L153.942 138.512ZM134.205 150.22L133.695 151.08L134.205 151.382L134.715 151.08L134.205 150.22ZM98.1472 128.83L98.6572 127.97L98.1712 127.682L97.6742 127.949L98.1472 128.83ZM86.9672 131.471L86.9862 130.471H86.9722L86.9672 131.471ZM80.4352 130.809L80.2362 131.789L80.2392 131.79L80.4352 130.809ZM51.4692 110.371L50.5392 110.738L50.5412 110.744L51.4692 110.371ZM59.6352 108.019L60.5662 107.653L60.5652 107.652L59.6352 108.019ZM82.4122 123.641L82.7062 122.685L82.6592 122.671L82.6112 122.661L82.4122 123.641ZM94.8632 121.845L95.4302 122.668L95.8632 122.37V121.845H94.8632ZM94.8632 110.287H95.8632V108.049L94.1952 109.543L94.8632 110.287ZM92.4252 112.136L91.8852 111.294L91.8802 111.297L92.4252 112.136ZM49.2782 101.218L48.7802 100.35L48.7612 100.361L48.7432 100.373L49.2782 101.218ZM44.4212 111.327L45.4152 111.211L45.4112 111.179L45.4052 111.148L44.4212 111.327ZM70.2072 135.22L69.8632 136.159L69.8652 136.16L70.2072 135.22ZM68.4882 142.278L68.4502 143.278H68.4652H68.4812L68.4882 142.278ZM66.9842 141.984L66.6352 142.921L66.6392 142.923L66.9842 141.984ZM36.1272 112.025L37.1212 111.916L37.1192 111.895L37.1152 111.873L36.1272 112.025ZM44.7222 95.1159L44.2272 94.2472L44.2142 94.2545L44.2012 94.2622L44.7222 95.1159ZM71.1092 100.85L70.5922 101.706L70.5932 101.707L71.1092 100.85ZM87.4402 106.254L87.9802 107.096L87.9862 107.092L87.9922 107.088L87.4402 106.254ZM89.8602 104.085L90.6372 104.715L91.3652 103.816L90.3702 103.225L89.8602 104.085ZM79.2282 97.7791L78.6492 98.594L78.6832 98.618L78.7182 98.6391L79.2282 97.7791ZM77.3612 95.9618L78.1672 95.3689L78.1392 95.3312L78.1082 95.2962L77.3612 95.9618ZM76.3962 94.8797L77.1432 94.2142L76.8252 93.858L76.3482 93.8809L76.3962 94.8797ZM76.3872 94.8802L75.8922 94.0117L76.4352 95.879L76.3872 94.8802ZM76.3962 94.8752L76.8912 95.7438L77.9812 95.1221L77.1322 94.1985L76.3962 94.8752ZM52.1572 85.6319L51.9952 84.6451L51.9852 84.6468L51.9752 84.6486L52.1572 85.6319ZM29.8102 102.725L28.8792 102.359L28.8102 102.536V102.725H29.8102ZM29.8102 102.762L30.7672 103.05L30.8102 102.909V102.762H29.8102ZM46.0112 143.675L46.7382 142.988L46.7362 142.985L46.0112 143.675ZM45.4102 148.821L44.8322 148.005L44.8232 148.012L44.8142 148.019L45.4102 148.821ZM42.7022 149.667L42.7152 148.667H42.6992H42.6822L42.7022 149.667ZM39.2642 148.307L39.9902 147.619L39.9862 147.615L39.2642 148.307ZM21.2142 100.997L20.2772 100.649L20.2652 100.68L20.2562 100.713L21.2142 100.997ZM50.5242 78.3903L50.3682 77.4026L50.3582 77.4041L50.3492 77.4058L50.5242 78.3903ZM83.5472 90.7954L82.8062 91.4667L83.3452 92.062L84.0432 91.664L83.5472 90.7954ZM89.1162 87.6187L89.6112 88.4873L90.4762 87.9937L89.9862 87.1266L89.1162 87.6187ZM56.2832 61.4075L56.3152 60.408L56.2992 60.4075H56.2832V61.4075ZM96.2672 83.5389L95.4022 84.0406L95.9002 84.8996L96.7622 84.4075L96.2672 83.5389ZM103.459 79.4355L103.955 80.3041L104.861 79.7871L104.306 78.9037L103.459 79.4355ZM8.15018 81.4046L9.01618 81.9034L9.01818 81.9009L8.15018 81.4046ZM2.34818 83.0588L1.94918 83.9756L1.95019 83.976L2.34818 83.0588ZM0.45719 78.133L1.31919 78.6394L1.32519 78.6303L0.45719 78.133ZM102.341 123.523L101.372 123.769L101.474 124.172L101.831 124.383L102.341 123.523ZM134.205 142.425L133.695 143.285L134.205 143.587L134.715 143.285L134.205 142.425ZM102.131 122.938H101.131V123.16L101.226 123.361L102.131 122.938ZM102.131 111.365L102.642 110.505L101.131 109.609V111.365H102.131ZM134.178 130.375L133.668 131.235L134.178 131.538L134.689 131.235L134.178 130.375ZM153.942 118.652H154.942V116.896L153.431 117.791L153.942 118.652ZM153.942 130.717L154.452 131.577L154.942 131.287V130.717H153.942ZM100.094 102.361L100.604 101.501L99.5642 100.884L99.1532 102.021L100.094 102.361ZM134.178 122.58L133.668 123.44L134.178 123.742L134.689 123.44L134.178 122.58ZM151.014 112.593L151.524 113.453L152.971 112.594L151.526 111.734L151.014 112.593ZM132.163 101.368L131.361 100.77L130.698 101.659L131.651 102.227L132.163 101.368ZM136.194 95.964L136.705 95.1048L135.931 94.6438L135.392 95.3661L136.194 95.964ZM157.58 108.698L157.068 109.557L157.579 109.861L158.09 109.558L157.58 108.698ZM179.692 95.5813L180.202 96.4414L181.68 95.5644L180.187 94.7127L179.692 95.5813ZM134.178 69.6157L134.673 68.7471L134.178 68.4644L133.682 68.7471L134.178 69.6157ZM99.0852 89.636L98.5902 88.7674L97.8732 89.1762L98.1382 89.9574L99.0852 89.636ZM99.0862 89.6397L99.5822 90.5085L100.299 90.0997L100.033 89.3182L99.0862 89.6397ZM88.6642 95.5811L88.1692 94.7124L86.6762 95.5641L88.1542 96.4411L88.6642 95.5811ZM91.8572 97.4752L92.8502 97.3529L92.7902 96.8656L92.3682 96.6152L91.8572 97.4752ZM91.8582 97.4813L90.8662 97.6037L90.9262 98.091L91.3482 98.3415L91.8582 97.4813ZM100.092 102.364L99.5822 103.225L100.621 103.841L101.033 102.705L100.092 102.364ZM161.21 126.405H160.21V128.161L161.721 127.265L161.21 126.405ZM166.043 123.539L166.553 124.399L167.043 124.108V123.539H166.043ZM161.21 114.339L160.7 113.479L160.21 113.77V114.339H161.21ZM166.043 111.473H167.043V109.717L165.532 110.613L166.043 111.473ZM56.3262 38.3518C48.7432 38.3518 41.3372 39.3456 34.9122 41.1029C28.5022 42.8562 23.0002 45.3882 19.2822 48.5111L20.5682 50.0426C23.9842 47.1737 29.1832 44.7432 35.4402 43.032C41.6822 41.3247 48.9102 40.3518 56.3262 40.3518V38.3518ZM93.2142 48.5249C89.6172 45.3714 84.1472 42.8372 77.7492 41.089C71.3342 39.3361 63.9072 38.3518 56.3262 38.3518V40.3518C63.7432 40.3518 70.9922 41.3158 77.2222 43.0183C83.4702 44.7255 88.6162 47.1539 91.8952 50.0288L93.2142 48.5249ZM95.3772 49.0047C94.5452 49.0552 93.7342 48.8454 93.0942 48.4352L92.0142 50.1186C93.0302 50.7701 94.2662 51.0759 95.4982 51.001L95.3772 49.0047ZM97.5222 48.1755C96.9682 48.649 96.2092 48.9541 95.3772 49.0047L95.4982 51.001C96.7302 50.9261 97.9122 50.4731 98.8222 49.6953L97.5222 48.1755ZM98.4232 46.5139C98.3742 47.1099 98.0722 47.7047 97.5222 48.1755L98.8222 49.6953C99.7342 48.9148 100.319 47.8488 100.416 46.6795L98.4232 46.5139ZM97.8192 44.7898C98.2732 45.3081 98.4722 45.92 98.4232 46.5139L100.416 46.6795C100.514 45.5081 100.11 44.3688 99.3232 43.4713L97.8192 44.7898ZM56.2832 33C63.0462 33 70.9562 33.783 78.4392 35.6714C85.9342 37.5629 92.9222 40.5435 97.9152 44.8852L99.2272 43.376C93.9062 38.7483 86.5822 35.6637 78.9292 33.7322C71.2622 31.7976 63.1862 31 56.2832 31V33ZM14.5602 44.8892C19.5972 40.5625 26.6092 37.5812 34.1162 35.6851C41.6102 33.792 49.5202 33 56.2832 33V31C49.3792 31 41.3022 31.807 33.6262 33.746C25.9622 35.6821 18.6202 38.7661 13.2572 43.372L14.5602 44.8892ZM14.0562 46.5139C14.0072 45.92 14.2062 45.3081 14.6602 44.7898L13.1572 43.4713C12.3702 44.3688 11.9662 45.5081 12.0632 46.6795L14.0562 46.5139ZM14.9582 48.1755C14.4072 47.7047 14.1062 47.1099 14.0562 46.5139L12.0632 46.6795C12.1602 47.8488 12.7452 48.9148 13.6582 49.6953L14.9582 48.1755ZM17.1032 49.0047C16.2712 48.9541 15.5112 48.649 14.9582 48.1755L13.6582 49.6953C14.5672 50.4731 15.7492 50.9261 16.9812 51.001L17.1032 49.0047ZM19.3852 48.4352C18.7462 48.8454 17.9342 49.0552 17.1032 49.0047L16.9812 51.001C18.2132 51.0759 19.4492 50.7701 20.4652 50.1186L19.3852 48.4352ZM111.467 74.809C99.1222 55.5022 80.5562 45.7037 56.3262 45.7037V47.7037C79.9212 47.7037 97.8292 57.193 109.782 75.8864L111.467 74.809ZM133.682 61.0421L110.129 74.4791L111.12 76.2163L134.673 62.7793L133.682 61.0421ZM193.508 94.6065L134.673 61.0421L133.682 62.7793L192.517 96.3437L193.508 94.6065ZM173.822 108.021L193.522 96.3352L192.502 94.6151L172.801 106.301L173.822 108.021ZM174.312 127.022V107.161H172.312V127.022H174.312ZM161.721 135.06L173.822 127.882L172.801 126.162L160.7 133.34L161.721 135.06ZM162.21 153.071V134.2H160.21V153.071H162.21ZM167.752 152.071H161.21V154.071H167.752V152.071ZM168.752 168.295V153.071H166.752V168.295H168.752ZM160.483 169.295H167.752V167.295H160.483V169.295ZM159.483 159.565V168.295H161.483V159.565H159.483ZM154.668 160.565H160.483V158.565H154.668V160.565ZM155.668 168.295V159.565H153.668V168.295H155.668ZM147.4 169.295H154.668V167.295H147.4V169.295ZM146.4 153.071V168.295H148.4V153.071H146.4ZM153.942 152.071H147.4V154.071H153.942V152.071ZM152.942 138.512V153.071H154.942V138.512H152.942ZM134.715 151.08L154.452 139.372L153.431 137.652L133.695 149.359L134.715 151.08ZM97.6372 129.691L133.695 151.08L134.715 149.359L98.6572 127.97L97.6372 129.691ZM95.1832 131.203C96.3802 130.796 97.5312 130.296 98.6202 129.711L97.6742 127.949C96.6842 128.481 95.6352 128.937 94.5392 129.309L95.1832 131.203ZM86.9492 132.471C89.7622 132.523 92.5612 132.093 95.1832 131.203L94.5392 129.309C92.1412 130.123 89.5722 130.519 86.9862 130.471L86.9492 132.471ZM80.2392 131.79C82.4442 132.231 84.6992 132.46 86.9632 132.471L86.9722 130.471C84.8372 130.461 82.7102 130.245 80.6312 129.829L80.2392 131.79ZM50.5412 110.744C52.3622 115.279 56.6942 119.902 62.0392 123.681C67.4042 127.475 73.9132 130.508 80.2362 131.789L80.6342 129.829C74.6232 128.611 68.3682 125.707 63.1942 122.048C57.9992 118.375 54.0152 114.028 52.3972 109.999L50.5412 110.744ZM50.2572 108.866C50.2062 109.503 50.3042 110.14 50.5392 110.738L52.4002 110.005C52.2742 109.685 52.2252 109.353 52.2512 109.024L50.2572 108.866ZM50.8282 107.056C50.5042 107.614 50.3082 108.229 50.2572 108.866L52.2512 109.024C52.2772 108.696 52.3792 108.368 52.5582 108.059L50.8282 107.056ZM52.1212 105.617C51.5932 106.011 51.1512 106.498 50.8282 107.056L52.5582 108.059C52.7372 107.749 52.9932 107.462 53.3172 107.22L52.1212 105.617ZM53.9002 104.742C53.2542 104.928 52.6482 105.223 52.1212 105.617L53.3172 107.22C53.6422 106.977 54.0282 106.786 54.4542 106.664L53.9002 104.742ZM55.9022 104.52C55.2262 104.481 54.5462 104.556 53.9002 104.742L54.4542 106.664C54.8802 106.541 55.3332 106.49 55.7862 106.517L55.9022 104.52ZM57.8572 104.973C57.2422 104.712 56.5782 104.559 55.9022 104.52L55.7862 106.517C56.2392 106.543 56.6782 106.645 57.0762 106.814L57.8572 104.973ZM59.4982 106.057C59.0312 105.6 58.4722 105.234 57.8572 104.973L57.0762 106.814C57.4742 106.983 57.8202 107.214 58.0982 107.486L59.4982 106.057ZM60.5652 107.652C60.3302 107.055 59.9642 106.515 59.4982 106.057L58.0982 107.486C58.3752 107.758 58.5782 108.065 58.7042 108.385L60.5652 107.652ZM82.6112 122.661C77.6162 121.647 72.6082 119.233 68.5732 116.366C64.5062 113.476 61.5782 110.234 60.5662 107.653L58.7042 108.384C59.9262 111.501 63.2292 115.022 67.4142 117.996C71.6312 120.992 76.8942 123.541 82.2132 124.621L82.6112 122.661ZM89.1942 123.078C87.0282 123.46 84.7822 123.323 82.7062 122.685L82.1192 124.597C84.5002 125.329 87.0672 125.484 89.5412 125.048L89.1942 123.078ZM94.2952 121.022C92.8232 122.037 91.0762 122.747 89.1942 123.078L89.5412 125.048C91.6922 124.669 93.7112 123.855 95.4302 122.668L94.2952 121.022ZM93.8632 110.287V121.845H95.8632V110.287H93.8632ZM92.9652 112.977C93.8922 112.383 94.7482 111.733 95.5302 111.032L94.1952 109.543C93.4952 110.17 92.7252 110.755 91.8852 111.294L92.9652 112.977ZM65.4832 107.718C69.2592 110.054 73.7882 112.861 78.4912 114.344C83.2262 115.837 88.2702 116.029 92.9702 112.974L91.8802 111.297C87.8522 113.915 83.4852 113.822 79.0932 112.437C74.6692 111.042 70.3542 108.379 66.5352 106.017L65.4832 107.718ZM65.3832 107.656L65.4832 107.718L66.5352 106.017L66.4352 105.955L65.3832 107.656ZM49.7752 102.085C51.2002 101.268 53.0842 101.356 55.7482 102.393C58.3992 103.425 61.5672 105.295 65.3832 107.656L66.4352 105.955C62.6452 103.61 59.3232 101.639 56.4742 100.53C53.6372 99.4254 51.0082 99.0723 48.7802 100.35L49.7752 102.085ZM46.1012 106.126C46.8692 104.527 48.1452 103.117 49.8122 102.063L48.7432 100.373C46.7872 101.609 45.2432 103.294 44.2982 105.26L46.1012 106.126ZM45.4052 111.148C45.0972 109.456 45.3342 107.722 46.1012 106.126L44.2982 105.26C43.3532 107.227 43.0522 109.39 43.4382 111.506L45.4052 111.148ZM70.5512 134.282C52.9922 127.845 46.2132 118.041 45.4152 111.211L43.4282 111.443C44.3492 119.316 51.9232 129.583 69.8632 136.159L70.5512 134.282ZM73.1862 136.379C72.5952 135.413 71.6532 134.683 70.5492 134.281L69.8652 136.16C70.5892 136.424 71.1492 136.882 71.4792 137.422L73.1862 136.379ZM73.7022 139.589C73.9692 138.49 73.7792 137.352 73.1862 136.379L71.4792 137.422C71.8052 137.956 71.8962 138.551 71.7592 139.116L73.7022 139.589ZM71.7882 142.287C72.7432 141.629 73.4352 140.683 73.7022 139.589L71.7592 139.116C71.6202 139.685 71.2452 140.232 70.6532 140.641L71.7882 142.287ZM68.4812 143.278C69.6672 143.287 70.8362 142.944 71.7882 142.287L70.6532 140.641C70.0582 141.051 69.2962 141.284 68.4952 141.278L68.4812 143.278ZM66.6392 142.923C67.2162 143.135 67.8292 143.254 68.4502 143.278L68.5262 141.279C68.1102 141.263 67.7042 141.183 67.3282 141.045L66.6392 142.923ZM35.1332 112.134C36.2192 122.044 45.1842 134.936 66.6352 142.921L67.3332 141.047C46.3232 133.226 38.0982 120.828 37.1212 111.916L35.1332 112.134ZM36.7922 102.098C35.1862 105.258 34.6102 108.745 35.1392 112.177L37.1152 111.873C36.6532 108.865 37.1532 105.802 38.5752 103.004L36.7922 102.098ZM44.2012 94.2622C40.9652 96.2368 38.3972 98.9403 36.7922 102.098L38.5752 103.004C39.9982 100.205 42.2962 97.7677 45.2432 95.9695L44.2012 94.2622ZM71.0932 99.6724C67.2902 97.3745 62.8972 94.7142 58.3422 93.2767C53.7572 91.8297 48.8942 91.5856 44.2272 94.2472L45.2182 95.9845C49.2432 93.6891 53.4842 93.8408 57.7402 95.184C62.0272 96.5368 66.2142 99.0611 70.0592 101.384L71.0932 99.6724ZM71.6262 99.9943L71.0932 99.6724L70.0592 101.384L70.5922 101.706L71.6262 99.9943ZM86.9002 105.412C85.5972 106.248 83.8502 106.208 81.2482 105.198C78.6592 104.192 75.5152 102.341 71.6262 99.9943L70.5932 101.707C74.4402 104.028 77.7412 105.981 80.5242 107.062C83.2952 108.138 85.8452 108.466 87.9802 107.096L86.9002 105.412ZM89.0832 103.456C88.5172 104.154 87.7982 104.818 86.8882 105.42L87.9922 107.088C89.0642 106.378 89.9372 105.578 90.6372 104.715L89.0832 103.456ZM78.7182 98.6391L89.3492 104.945L90.3702 103.225L79.7392 96.919L78.7182 98.6391ZM78.6642 98.6037C78.6632 98.6033 78.6572 98.6001 78.6492 98.594L79.8082 96.9641C79.7622 96.9312 79.7152 96.9014 79.6682 96.8745L78.6642 98.6037ZM76.5562 96.5546C76.7362 96.799 77.0412 97.1754 77.3972 97.5489C77.7432 97.9106 78.1932 98.3303 78.6642 98.6037L79.6682 96.8745C79.4452 96.7447 79.1502 96.4881 78.8442 96.168C78.5502 95.8597 78.2992 95.549 78.1672 95.3689L76.5562 96.5546ZM75.6502 95.5453L76.6152 96.6273L78.1082 95.2962L77.1432 94.2142L75.6502 95.5453ZM76.4352 95.879L76.4452 95.8786L76.3482 93.8809L76.3392 93.8814L76.4352 95.879ZM75.9002 94.0067L75.8922 94.0117L76.8832 95.7487L76.8912 95.7438L75.9002 94.0067ZM52.3192 86.6187C60.8912 85.2112 68.9222 88.2207 75.6602 95.5519L77.1322 94.1985C70.0052 86.4433 61.3242 83.1134 51.9952 84.6451L52.3192 86.6187ZM38.9502 92.447C42.7352 89.5519 47.3482 87.5381 52.3392 86.6153L51.9752 84.6486C46.6932 85.6252 41.7852 87.7608 37.7352 90.8584L38.9502 92.447ZM30.7402 103.091C32.3442 99.013 35.1662 95.3416 38.9502 92.447L37.7352 90.8584C33.6852 93.9566 30.6262 97.9159 28.8792 102.359L30.7402 103.091ZM30.8102 102.762V102.725H28.8102V102.762H30.8102ZM46.7362 142.985C32.4582 127.994 27.2742 114.651 30.7672 103.05L28.8522 102.474C25.0392 115.134 30.8572 129.213 45.2872 144.365L46.7362 142.985ZM47.9412 146.47C48.0912 145.19 47.6382 143.939 46.7382 142.988L45.2852 144.363C45.8102 144.917 46.0302 145.591 45.9542 146.238L47.9412 146.47ZM45.9872 149.638C47.0652 148.876 47.7922 147.746 47.9412 146.47L45.9542 146.238C45.8782 146.889 45.5002 147.533 44.8322 148.005L45.9872 149.638ZM42.6902 150.667C43.8872 150.682 45.0682 150.32 46.0062 149.624L44.8142 148.019C44.2512 148.436 43.5042 148.677 42.7152 148.667L42.6902 150.667ZM40.4312 150.258C41.1532 150.544 41.9362 150.682 42.7222 150.667L42.6822 148.667C42.1552 148.678 41.6362 148.584 41.1662 148.398L40.4312 150.258ZM38.5382 148.995C39.0592 149.544 39.7082 149.972 40.4312 150.258L41.1662 148.398C40.6972 148.213 40.2972 147.943 39.9902 147.619L38.5382 148.995ZM20.2562 100.713C15.8062 115.708 22.2432 131.987 38.5422 148.999L39.9862 147.615C23.8822 130.808 18.0272 115.253 22.1732 101.282L20.2562 100.713ZM31.6802 85.5077C26.3932 89.5852 22.4512 94.8069 20.2772 100.649L22.1522 101.346C24.1842 95.8825 27.8872 90.959 32.9012 87.0913L31.6802 85.5077ZM50.3492 77.4058C43.4102 78.6391 36.9662 81.4307 31.6802 85.5077L32.9012 87.0913C37.9162 83.2231 44.0582 80.5554 50.6992 79.3749L50.3492 77.4058ZM84.2882 90.1242C71.8472 76.3846 57.7442 76.2355 50.3682 77.4026L50.6802 79.378C57.6362 78.2774 70.9632 78.388 82.8062 91.4667L84.2882 90.1242ZM88.6202 86.7501L83.0522 89.9269L84.0432 91.664L89.6112 88.4873L88.6202 86.7501ZM56.2832 69.7594C70.9702 69.7594 82.9612 78.7636 88.2452 88.1108L89.9862 87.1266C84.3922 77.2306 71.7772 67.7594 56.2832 67.7594V69.7594ZM13.6192 116.547C13.6192 111.094 14.4002 99.3497 20.1282 89.0018C22.9842 83.8429 27.0622 79.0443 32.8802 75.5314C38.6962 72.0196 46.3072 69.7594 56.2832 69.7594V67.7594C45.9952 67.7594 38.0162 70.094 31.8462 73.8193C25.6782 77.5434 21.3732 82.6239 18.3792 88.0332C12.4072 98.822 11.6192 110.971 11.6192 116.547H13.6192ZM12.0102 119.906C13.0162 119.045 13.6192 117.842 13.6192 116.547H11.6192C11.6192 117.201 11.3162 117.868 10.7102 118.386L12.0102 119.906ZM8.32218 121.223C9.68018 121.223 11.0092 120.762 12.0102 119.906L10.7102 118.386C10.1002 118.908 9.24218 119.223 8.32218 119.223V121.223ZM4.63318 119.906C5.63418 120.762 6.96318 121.223 8.32218 121.223V119.223C7.40118 119.223 6.54319 118.908 5.93319 118.386L4.63318 119.906ZM3.02419 116.547C3.02419 117.842 3.62718 119.045 4.63318 119.906L5.93319 118.386C5.32719 117.868 5.02419 117.201 5.02419 116.547H3.02419ZM56.2832 60.4075C36.7532 60.4075 23.3872 67.6473 14.9282 78.3635C6.49918 89.0425 3.02419 103.068 3.02419 116.547H5.02419C5.02419 103.374 8.42519 89.8305 16.4982 79.6027C24.5422 69.4119 37.3062 62.4075 56.2832 62.4075V60.4075ZM82.9252 68.4577C75.1992 63.525 65.9202 60.7233 56.3152 60.408L56.2502 62.4069C65.5152 62.7111 74.4422 65.4141 81.8492 70.1434L82.9252 68.4577ZM97.1322 83.0373C93.8042 77.2991 88.9432 72.3001 82.9252 68.4577L81.8492 70.1434C87.6172 73.8261 92.2452 78.5978 95.4022 84.0406L97.1322 83.0373ZM102.964 78.5669L95.7712 82.6704L96.7622 84.4075L103.955 80.3041L102.964 78.5669ZM56.2402 55.0556C76.8972 55.0556 92.0902 63.212 102.613 79.9673L104.306 78.9037C93.3992 61.5346 77.5472 53.0556 56.2402 53.0556V55.0556ZM9.01818 81.9009C14.1862 72.8603 20.6412 66.1634 28.4512 61.7207C36.2622 57.277 45.4862 55.0556 56.2402 55.0556V53.0556C45.2052 53.0556 35.6272 55.3372 27.4622 59.9823C19.2952 64.6283 12.5992 71.6059 7.28219 80.9083L9.01818 81.9009ZM7.71819 83.352C8.24919 82.9557 8.69318 82.4652 9.01618 81.9034L7.28318 80.9058C7.10418 81.2171 6.84819 81.5058 6.52219 81.7494L7.71819 83.352ZM5.92719 84.2302C6.57819 84.0447 7.18719 83.7482 7.71819 83.352L6.52219 81.7494C6.19519 81.9931 5.80719 82.1847 5.37919 82.3069L5.92719 84.2302ZM3.91219 84.4451C4.59219 84.4882 5.27619 84.4158 5.92719 84.2302L5.37919 82.3069C4.95019 82.4291 4.49419 82.478 4.03919 82.4491L3.91219 84.4451ZM1.95019 83.976C2.56619 84.2437 3.23319 84.402 3.91219 84.4451L4.03919 82.4491C3.58419 82.4202 3.14419 82.3145 2.74619 82.1416L1.95019 83.976ZM-0.71882 81.288C-0.25682 82.4915 0.722179 83.4416 1.94918 83.9756L2.74718 82.1419C1.94918 81.7945 1.39518 81.2136 1.14818 80.5712L-0.71882 81.288ZM-0.40481 77.6267C-1.06581 78.7516 -1.18482 80.0749 -0.71882 81.288L1.14818 80.5712C0.905184 79.9383 0.960189 79.2508 1.31919 78.6394L-0.40481 77.6267ZM56.3262 45.7037C30.9332 45.7037 11.7252 56.465 -0.410822 77.6357L1.32519 78.6303C13.0842 58.1158 31.6092 47.7037 56.3262 47.7037V45.7037ZM101.831 124.383L133.695 143.285L134.715 141.565L102.851 122.663L101.831 124.383ZM101.226 123.361C101.288 123.495 101.337 123.631 101.372 123.769L103.31 123.277C103.244 123.015 103.152 122.76 103.037 122.514L101.226 123.361ZM101.131 111.365V122.938H103.131V111.365H101.131ZM134.689 129.515L102.642 110.505L101.621 112.225L133.668 131.235L134.689 129.515ZM153.431 117.791L133.668 129.515L134.689 131.235L154.452 119.512L153.431 117.791ZM154.942 130.717V118.652H152.942V130.717H154.942ZM134.715 143.285L154.452 131.577L153.431 129.857L133.695 141.565L134.715 143.285ZM99.5832 103.221L133.668 123.44L134.689 121.72L100.604 101.501L99.5832 103.221ZM134.689 123.44L151.524 113.453L150.504 111.733L133.668 121.72L134.689 123.44ZM151.526 111.734L132.674 100.509L131.651 102.227L150.502 113.452L151.526 111.734ZM132.964 101.966L136.995 96.562L135.392 95.3661L131.361 100.77L132.964 101.966ZM135.682 96.8232L157.068 109.557L158.091 107.839L136.705 95.1048L135.682 96.8232ZM158.09 109.558L180.202 96.4414L179.182 94.7212L157.07 107.838L158.09 109.558ZM180.187 94.7127L134.673 68.7471L133.682 70.4843L179.196 96.4499L180.187 94.7127ZM133.682 68.7471L98.5902 88.7674L99.5812 90.5045L134.673 70.4843L133.682 68.7471ZM98.1382 89.9574C98.1392 89.9598 98.1402 89.962 98.1402 89.9624C98.1402 89.9632 98.1402 89.9623 98.1402 89.9611L100.033 89.3182C100.033 89.3158 100.032 89.3136 100.032 89.3133C100.031 89.3124 100.032 89.3133 100.032 89.3145L98.1382 89.9574ZM91.1312 93.0231L88.1692 94.7124L89.1602 96.4497L92.1212 94.7604L91.1312 93.0231ZM88.1542 96.4411L91.3472 98.3353L92.3682 96.6152L89.1742 94.721L88.1542 96.4411ZM90.8652 97.5976L90.8662 97.6037L92.8512 97.359L92.8502 97.3529L90.8652 97.5976ZM101.033 102.705L101.034 102.701L99.1532 102.021L99.1522 102.024L101.033 102.705ZM161.721 127.265L166.553 124.399L165.532 122.679L160.7 125.545L161.721 127.265ZM160.21 114.339V126.405H162.21V114.339H160.21ZM165.532 110.613L160.7 113.479L161.721 115.199L166.553 112.333L165.532 110.613ZM167.043 123.539V111.473H165.043V123.539H167.043ZM98.5912 88.7709L91.1312 93.0231L92.1212 94.7604L99.5822 90.5085L98.5912 88.7709ZM91.3482 98.3415L99.5822 103.225L100.602 101.504L92.3682 96.6212L91.3482 98.3415Z" fill="black"/>
</g>
</g>
<path d="M252.796 110.649H228.699V118.682H252.796V125.415H228.699C227.788 125.415 226.922 125.244 226.101 124.902C225.281 124.538 224.564 124.059 223.948 123.467C223.356 122.851 222.877 122.134 222.513 121.313C222.171 120.493 222 119.616 222 118.682V95.747C222 94.813 222.171 93.935 222.513 93.115C222.877 92.295 223.356 91.588 223.948 90.996C224.564 90.381 225.281 89.902 226.101 89.56C226.922 89.196 227.788 89.014 228.699 89.014H246.062C246.997 89.014 247.874 89.196 248.694 89.56C249.514 89.902 250.221 90.381 250.813 90.996C251.429 91.588 251.907 92.295 252.249 93.115C252.613 93.935 252.796 94.813 252.796 95.747V110.649ZM228.699 95.747V103.916H246.062V95.747H228.699ZM264.041 95.747C264.041 94.813 264.212 93.935 264.554 93.115C264.918 92.295 265.397 91.588 265.989 90.996C266.604 90.381 267.322 89.902 268.142 89.56C268.963 89.196 269.829 89.014 270.74 89.014H289.505V75H296.238V125.415H289.505V119.263C289.436 120.106 289.208 120.903 288.821 121.655C288.434 122.407 287.932 123.068 287.317 123.638C286.725 124.184 286.041 124.617 285.266 124.936C284.492 125.255 283.671 125.415 282.805 125.415H270.74C269.829 125.415 268.963 125.244 268.142 124.902C267.322 124.538 266.604 124.059 265.989 123.467C265.397 122.851 264.918 122.134 264.554 121.313C264.212 120.493 264.041 119.616 264.041 118.682V95.747ZM270.74 118.682H289.505V95.747H270.74V118.682ZM307.449 89.014H314.148V118.682H332.913V89.014H339.646V125.415H332.913V119.263C332.845 120.106 332.617 120.903 332.229 121.655C331.842 122.407 331.341 123.068 330.725 123.638C330.133 124.184 329.449 124.617 328.675 124.936C327.9 125.255 327.08 125.415 326.214 125.415H314.148C313.237 125.415 312.371 125.244 311.551 124.902C310.73 124.538 310.013 124.059 309.397 123.467C308.805 122.851 308.326 122.134 307.962 121.313C307.62 120.493 307.449 119.616 307.449 118.682V89.014ZM376.834 125.415L358.548 89.492V125.415H351.541V76.401H359.197L377.859 113.315L396.555 76.401H404.178V125.415H397.205V89.492L378.919 125.415H376.834ZM416.824 76.401H452.542V83.408H423.831V97.422H448.338V104.429H423.831V125.415H416.824V76.401ZM480.569 76.401L499.471 125.415H492.464L488.123 114.136H466.009L461.668 125.415H454.661L473.562 76.401H480.569ZM468.675 107.129H485.423L477.083 85.527L468.675 107.129Z" fill="black"/>
</g>
<defs>
<filter id="filter0_d_3085_2" x="-4" y="32" width="201.012" height="144.295" filterUnits="userSpaceOnUse" color-interpolation-filters="sRGB">
<feFlood flood-opacity="0" result="BackgroundImageFix"/>
<feColorMatrix in="SourceAlpha" type="matrix" values="0 0 0 0 0 0 0 0 0 0 0 0 0 0 0 0 0 0 127 0" result="hardAlpha"/>
<feOffset dy="4"/>
<feGaussianBlur stdDeviation="2"/>
<feComposite in2="hardAlpha" operator="out"/>
<feColorMatrix type="matrix" values="0 0 0 0 0 0 0 0 0 0 0 0 0 0 0 0 0 0 0.25 0"/>
<feBlend mode="normal" in2="BackgroundImageFix" result="effect1_dropShadow_3085_2"/>
<feBlend mode="normal" in="SourceGraphic" in2="effect1_dropShadow_3085_2" result="shape"/>
</filter>
<clipPath id="clip0_3085_2">
<rect width="500" height="200" fill="white"/>
</clipPath>
</defs>
</svg>
