<?xml version="1.0" encoding="UTF-8"?>
<svg id="Layer_1" data-name="Layer 1" xmlns="http://www.w3.org/2000/svg" viewBox="0 0 2259.48 1382.29">
  <defs>
    <style>
      .cls-1 {
        fill: #fff;
      }

      .cls-1, .cls-2, .cls-3 {
        stroke-width: 0px;
      }

      .cls-2 {
        fill: #f6cf71;
      }

      .cls-3 {
        fill: #03318c;
      }
    </style>
  </defs>
  <g>
    <rect class="cls-3" x="271.54" y="270.86" width="840.58" height="840.58" transform="translate(-170.67 230.27) rotate(-16.85)"/>
    <g>
      <polygon class="cls-1" points="720.16 611.83 715.38 509.07 715.08 509.07 675.05 585.55 635.32 509.07 635.03 509.07 630.25 611.83 609.34 611.83 617.7 478.01 640.4 478.01 675.05 544.32 675.35 544.32 710 478.01 732.71 478.01 741.07 611.83 720.16 611.83"/>
      <polygon class="cls-1" points="813.96 496.83 813.96 611.83 792.15 611.83 792.15 496.83 756 496.83 756 478.01 850.1 478.01 850.1 496.83 813.96 496.83"/>
      <path class="cls-1" d="M540.03,614.82c-14.34,0-26.59-3.29-36.14-8.07l1.19-20.31c9.56,5.38,20.91,9.56,33.46,9.56,18.52,0,26.59-8.96,26.59-20.01s-9.86-17.33-22.7-21.81l-5.08-1.79c-20.61-7.17-32.86-17.62-32.86-40.03s16.43-36.74,44.81-36.74c14.04,0,24.2,2.99,32.56,6.57l-1.19,20.01c-7.77-3.88-18.22-7.77-29.57-7.77-14.94,0-23.9,5.97-23.9,17.92,0,10.75,8.36,15.53,17.92,19.42l14.34,5.68c15.83,6.27,28.38,16.73,28.38,38.24,0,22.1-16.13,39.13-47.79,39.13"/>
      <polygon class="cls-1" points="409.2 611.83 409.2 478.01 483.58 478.01 483.58 496.23 431 496.53 431 533.57 479.1 533.57 479.1 551.49 431 551.49 431 593.61 483.58 593.61 483.58 611.83 409.2 611.83"/>
      <path class="cls-1" d="M449.82,806.88h-40.63v-133.82h41.82c22.4,0,43.31,5.97,43.31,32.56,0,20.01-14.64,27.48-23,30.17v.3c7.77,1.49,26.59,7.47,26.59,31.37.3,25.39-14.34,39.43-48.09,39.43M449.23,690.68h-18.22v37.64h16.73c16.13,0,24.2-7.17,24.2-20.01s-8.66-17.62-22.7-17.62M448.93,745.94h-17.92v43.01h17.03c17.62,0,27.78-6.57,27.78-21.81s-10.16-21.21-26.88-21.21"/>
      <polygon class="cls-1" points="523.5 806.88 523.5 673.06 597.58 673.06 597.58 691.28 545.31 691.58 545.31 728.32 593.4 728.32 593.4 746.54 545.31 746.54 545.31 788.36 597.58 788.66 597.58 806.88 523.5 806.88"/>
      <path class="cls-1" d="M694.1,806.88l-16.13-40.92c-3.29-8.36-8.66-12.55-15.23-12.55h-16.43v53.47h-21.81v-133.82h43.31c27.78,0,45.4,10.75,45.4,38.24,0,18.22-11.35,29.87-27.18,34.65v.3c2.09.3,8.07,3.29,11.95,12.25l21.21,48.69h-25.09v-.3ZM666.02,690.98h-20.01v44.21h17.62c18.52,0,27.18-8.96,27.18-22.4,0-14.34-7.17-21.81-24.79-21.81"/>
      <polygon class="cls-1" points="740.77 806.88 740.77 673.06 762.58 673.06 762.58 788.36 813.96 788.66 813.96 806.88 740.77 806.88"/>
      <rect class="cls-1" x="835.76" y="673.06" width="22.1" height="133.82"/>
      <polygon class="cls-1" points="954.23 806.88 898.97 707.71 898.97 707.71 899.26 806.88 878.95 806.88 878.95 673.06 901.95 673.06 957.22 772.23 957.51 772.23 957.22 673.06 977.53 673.06 977.53 806.88 954.23 806.88"/>
    </g>
    <path class="cls-2" d="M340.75,984.09l462.33-7.24c2.64,21.78,21.16,38.67,43.66,38.67s41.75-17.55,43.81-39.95l276.97-4.06-276.97-4.06c-2.05-22.4-20.87-39.95-43.81-39.95s-41.01,16.89-43.66,38.67l-469.51-7.31"/>
  </g>
  <g>
    <path class="cls-3" d="M1361.66,602.47h-34.31v-113.28h35.5c19.02,0,36.68,5.09,36.68,27.51,0,16.98-12.4,23.27-19.36,25.47v.17c6.62,1.19,22.59,6.28,22.59,26.49,0,21.74-12.4,33.63-41.1,33.63ZM1361.32,504.14h-15.46v31.76h14.1c13.76,0,20.55-6.11,20.55-16.98s-7.47-14.78-19.19-14.78ZM1360.98,550.84h-15.12v36.51h14.44c14.95,0,23.44-5.6,23.44-18.34s-8.49-18.17-22.76-18.17Z"/>
    <path class="cls-3" d="M1477.65,602.47l-1.19-11.21h-.34c-3.23,4.42-12.91,13.59-26.32,13.59-16.81,0-26.66-9.34-26.66-28.53v-58.76h18.17v52.99c0,9.17,2.89,18,15.28,18,9.85,0,19.02-8.66,19.02-18v-52.99h18.17v64.03c0,6.62.34,16.81.51,20.89h-16.64Z"/>
    <path class="cls-3" d="M1539.98,604.68c-9.34,0-17.83-2.04-25.81-5.94l.85-14.78c7.47,4.08,15.29,6.79,23.61,6.79,12.4,0,16.3-5.26,16.3-11.04,0-6.79-5.1-9.68-14.27-13.08l-5.43-2.04c-11.38-4.25-20.89-10.7-20.89-25.31s11.21-23.95,31.59-23.95c9.34,0,17.83,2.55,23.1,5.43l-1.02,14.78c-8.15-4.59-16.47-6.28-21.23-6.28-9.85,0-13.93,3.74-13.93,9.17,0,5.77,4.42,9,14.27,12.57l5.6,2.04c11.72,4.42,20.72,10.53,20.72,25.31,0,16.3-11.21,26.32-33.46,26.32Z"/>
    <path class="cls-3" d="M1602.98,505.67c-6.62,0-11.89-5.26-11.89-11.89s5.27-11.72,11.89-11.72,11.72,5.26,11.72,11.72-5.26,11.89-11.72,11.89ZM1593.81,602.47v-84.92h18.17v84.92h-18.17Z"/>
    <path class="cls-3" d="M1690.62,602.47v-53.16c0-8.83-2.55-17.83-15.79-17.83-10.53,0-19.87,8.66-19.87,17.83v53.16h-18.17v-84.92h17.49v11.04h.17c3.06-4.25,12.91-13.25,27.17-13.25,17.49,0,27.17,9.34,27.17,28.53v58.59h-18.17Z"/>
    <path class="cls-3" d="M1798.63,564.6h-52.82v2.72c0,11.38,5.6,22.59,22.08,22.59,9.68,0,18.34-2.55,25.81-6.28l1.02,14.61c-6.62,3.91-16.81,6.45-28.7,6.45-30.74,0-38.38-18-38.38-44.5s10.7-44.84,38.04-44.84c20.38,0,33.29,10.7,33.29,39.57,0,1.53-.17,7.13-.34,9.68ZM1765.17,528.43c-13.76,0-19.53,11.89-19.53,23.44h36.01c0-11.72-2.38-23.44-16.47-23.44Z"/>
    <path class="cls-3" d="M1839.56,604.68c-9.34,0-17.83-2.04-25.81-5.94l.85-14.78c7.47,4.08,15.29,6.79,23.61,6.79,12.4,0,16.3-5.26,16.3-11.04,0-6.79-5.1-9.68-14.27-13.08l-5.43-2.04c-11.38-4.25-20.89-10.7-20.89-25.31s11.21-23.95,31.59-23.95c9.34,0,17.83,2.55,23.1,5.43l-1.02,14.78c-8.15-4.59-16.47-6.28-21.23-6.28-9.85,0-13.93,3.74-13.93,9.17,0,5.77,4.42,9,14.27,12.57l5.6,2.04c11.72,4.42,20.72,10.53,20.72,25.31,0,16.3-11.21,26.32-33.46,26.32Z"/>
    <path class="cls-3" d="M1914.28,604.68c-9.34,0-17.83-2.04-25.81-5.94l.85-14.78c7.47,4.08,15.29,6.79,23.61,6.79,12.4,0,16.3-5.26,16.3-11.04,0-6.79-5.1-9.68-14.27-13.08l-5.43-2.04c-11.38-4.25-20.89-10.7-20.89-25.31s11.21-23.95,31.59-23.95c9.34,0,17.83,2.55,23.1,5.43l-1.02,14.78c-8.15-4.59-16.47-6.28-21.23-6.28-9.85,0-13.93,3.74-13.93,9.17,0,5.77,4.42,9,14.27,12.57l5.6,2.04c11.72,4.42,20.72,10.53,20.72,25.31,0,16.3-11.21,26.32-33.46,26.32Z"/>
    <path class="cls-3" d="M1374.23,795.13l-1.02-11.89h-.17c-2.55,4.59-11.21,14.1-26.32,14.1-18.17,0-25.82-11.04-25.82-24.63,0-18,14.95-28.02,37.87-28.02,5.77,0,11.21.51,13.25.85v-8.83c0-10.02-6.79-13.93-17.66-13.93-9,0-17.49,2.55-25.82,6.45l-.85-14.78c7.98-3.91,17.83-6.45,29.89-6.45,18.85,0,32.61,5.77,32.61,28.7v34.82c0,7.13.51,18.85.68,23.61h-16.64ZM1372.02,757.43c-1.36-.34-5.6-.85-11.21-.85-9.68,0-21.4,3.57-21.4,14.78,0,7.81,5.27,12.23,12.91,12.23,10.36,0,19.7-9.85,19.7-21.4v-4.76Z"/>
    <path class="cls-3" d="M1436.38,797.34c-9.34,0-17.83-2.04-25.81-5.94l.85-14.78c7.47,4.08,15.29,6.79,23.61,6.79,12.4,0,16.3-5.26,16.3-11.04,0-6.79-5.1-9.68-14.27-13.08l-5.43-2.04c-11.38-4.25-20.89-10.7-20.89-25.31s11.21-23.95,31.59-23.95c9.34,0,17.83,2.55,23.1,5.43l-1.02,14.78c-8.15-4.59-16.47-6.28-21.23-6.28-9.85,0-13.93,3.74-13.93,9.17,0,5.77,4.42,9,14.27,12.57l5.6,2.04c11.72,4.42,20.72,10.53,20.72,25.31,0,16.3-11.21,26.32-33.46,26.32Z"/>
    <path class="cls-3" d="M1583.28,795.13l-1.19-11.21h-.34c-3.23,4.42-12.91,13.59-26.32,13.59-16.81,0-26.66-9.34-26.66-28.53v-58.76h18.17v52.99c0,9.17,2.89,18,15.28,18,9.85,0,19.02-8.66,19.02-18v-52.99h18.17v64.03c0,6.62.34,16.81.51,20.89h-16.64Z"/>
    <path class="cls-3" d="M1678.05,795.13v-53.16c0-8.83-2.55-17.83-15.79-17.83-10.53,0-19.87,8.66-19.87,17.83v53.16h-18.17v-84.92h17.49v11.04h.17c3.06-4.25,12.91-13.25,27.17-13.25,17.49,0,27.17,9.34,27.17,28.53v58.59h-18.17Z"/>
    <path class="cls-3" d="M1774.34,795.13l-1.19-11.21h-.34c-3.23,4.42-12.91,13.59-26.32,13.59-16.81,0-26.66-9.34-26.66-28.53v-58.76h18.17v52.99c0,9.17,2.89,18,15.28,18,9.85,0,19.02-8.66,19.02-18v-52.99h18.17v64.03c0,6.62.34,16.81.51,20.89h-16.64Z"/>
    <path class="cls-3" d="M1836.66,797.34c-9.34,0-17.83-2.04-25.81-5.94l.85-14.78c7.47,4.08,15.29,6.79,23.61,6.79,12.4,0,16.3-5.26,16.3-11.04,0-6.79-5.1-9.68-14.27-13.08l-5.43-2.04c-11.38-4.25-20.89-10.7-20.89-25.31s11.21-23.95,31.59-23.95c9.34,0,17.83,2.55,23.1,5.43l-1.02,14.78c-8.15-4.59-16.47-6.28-21.23-6.28-9.85,0-13.93,3.74-13.93,9.17,0,5.77,4.42,9,14.27,12.57l5.6,2.04c11.72,4.42,20.72,10.53,20.72,25.31,0,16.3-11.21,26.32-33.46,26.32Z"/>
    <path class="cls-3" d="M1944,795.13l-1.19-11.21h-.34c-3.23,4.42-12.91,13.59-26.32,13.59-16.81,0-26.66-9.34-26.66-28.53v-58.76h18.17v52.99c0,9.17,2.89,18,15.28,18,9.85,0,19.02-8.66,19.02-18v-52.99h18.17v64.03c0,6.62.34,16.81.51,20.89h-16.64Z"/>
    <path class="cls-3" d="M2032.48,795.13l-1.02-11.89h-.17c-2.55,4.59-11.21,14.1-26.32,14.1-18.17,0-25.82-11.04-25.82-24.63,0-18,14.95-28.02,37.87-28.02,5.77,0,11.21.51,13.25.85v-8.83c0-10.02-6.79-13.93-17.66-13.93-9,0-17.49,2.55-25.82,6.45l-.85-14.78c7.98-3.91,17.83-6.45,29.89-6.45,18.85,0,32.61,5.77,32.61,28.7v34.82c0,7.13.51,18.85.68,23.61h-16.64ZM2030.27,757.43c-1.36-.34-5.6-.85-11.21-.85-9.68,0-21.4,3.57-21.4,14.78,0,7.81,5.27,12.23,12.91,12.23,10.36,0,19.7-9.85,19.7-21.4v-4.76Z"/>
    <path class="cls-3" d="M2073.57,795.13v-119.73h18.17v119.73h-18.17Z"/>
  </g>
</svg>