<?xml version="1.0" encoding="UTF-8"?><svg id="a" xmlns="http://www.w3.org/2000/svg" width="318.9mm" height="192.63mm" viewBox="0 0 903.97 546.04"><path d="M73.03,404.43h-17.43v9.62h13.03v6.27h-13.03v16.5h-6.87v-38.71h24.31v6.32Z" fill="#04316a"/><path d="M93.7,408.72l-1.04,6.71c-.99-.55-2.2-.88-3.63-.88-4.51,0-5.72,3.63-5.72,7.92v14.35h-6.54v-27.99h6.43v3.52h.11c1.48-2.64,4.12-4.23,7.31-4.23.93,0,2.09.17,3.08.6Z" fill="#04316a"/><path d="M106.65,400.36c0,2.31-1.87,3.96-4.18,3.96s-4.12-1.65-4.12-3.96,1.87-3.96,4.12-3.96,4.18,1.71,4.18,3.96ZM105.77,436.82h-6.54v-27.99h6.54v27.99Z" fill="#04316a"/><path d="M126.53,437.48c-8.3,0-13.86-5.88-13.86-14.74s5.33-14.63,13.14-14.63,12.43,5.61,12.43,14.24c0,.93-.05,1.92-.11,2.69h-18.81c.71,4.34,3.3,6.82,7.26,6.82,2.58,0,4.67-.99,6.87-3.3l4.07,4.29c-3.19,3.13-6.76,4.62-11,4.62ZM119.21,420.27h12.7c-.27-4.29-2.53-6.76-6.21-6.76s-5.94,2.42-6.49,6.76Z" fill="#04316a"/><path d="M143.93,422.74c0-9.02,4.56-14.63,11.38-14.63,3.52,0,6.27,1.48,8.14,3.79h.11v-14.35l6.54-1.65v40.92h-6.38v-3.3h-.11c-2.03,2.47-4.95,3.96-8.41,3.96-6.65,0-11.27-5.66-11.27-14.74ZM150.42,422.74c0,5.72,2.37,8.96,6.49,8.96,2.53,0,4.62-1.21,6.65-3.68v-10.23c-1.87-2.53-4.01-3.74-6.65-3.74-4.23,0-6.49,3.08-6.49,8.69Z" fill="#04316a"/><path d="M195.57,408.72l-1.04,6.71c-.99-.55-2.2-.88-3.63-.88-4.51,0-5.72,3.63-5.72,7.92v14.35h-6.54v-27.99h6.43v3.52h.11c1.48-2.64,4.12-4.23,7.31-4.23.93,0,2.09.17,3.08.6Z" fill="#04316a"/><path d="M208.52,400.36c0,2.31-1.87,3.96-4.18,3.96s-4.12-1.65-4.12-3.96,1.87-3.96,4.12-3.96,4.18,1.71,4.18,3.96ZM207.64,436.82h-6.54v-27.99h6.54v27.99Z" fill="#04316a"/><path d="M238.08,432.97c-2.8,3.08-5.99,4.51-10.01,4.51-8.03,0-13.42-5.77-13.42-14.57s5.44-14.79,13.53-14.79c4.18,0,7.64,1.65,10.06,4.78l-4.51,4.29c-1.65-2.14-3.41-3.08-5.61-3.08-4.12,0-6.93,3.41-6.93,8.69s2.8,8.74,6.87,8.74c2.2,0,3.96-.99,5.77-3.08l4.23,4.51Z" fill="#04316a"/><path d="M267.95,436.82h-6.54v-16c0-4.12-1.26-6.82-5.17-6.82-4.51,0-5.83,3.57-5.83,6.76v16.06h-6.54v-39.26l6.54-1.65v16.28h.11c1.59-2.47,4.51-4.07,8.19-4.07,6.49,0,9.24,4.84,9.24,11.33v17.38Z" fill="#04316a"/><path d="M289.21,422.74h-13.75v-6.21h13.75v6.21Z" fill="#04316a"/><path d="M306.98,398.11h7.26l14.41,38.71h-7.53l-2.8-8.25h-15.62l-2.8,8.25h-7.31l14.41-38.71ZM304.84,422.41h11.33l-5.61-16.44h-.11l-5.61,16.44Z" fill="#04316a"/><path d="M340.93,436.82h-6.54v-39.38l6.54-1.48v40.86Z" fill="#04316a"/><path d="M361.89,437.48c-8.3,0-13.86-5.88-13.86-14.74s5.33-14.63,13.14-14.63,12.43,5.61,12.43,14.24c0,.93-.05,1.92-.11,2.69h-18.81c.71,4.34,3.3,6.82,7.26,6.82,2.58,0,4.67-.99,6.87-3.3l4.07,4.29c-3.19,3.13-6.76,4.62-11,4.62ZM354.57,420.27h12.7c-.27-4.29-2.53-6.76-6.21-6.76s-5.94,2.42-6.49,6.76Z" fill="#04316a"/><path d="M403.86,436.82h-7.48l-5.99-9.68h-.11l-5.83,9.68h-7.37l9.57-14.52-8.85-13.47h7.37l5.28,8.58h.11l5.22-8.58h7.26l-8.8,13.36,9.62,14.63Z" fill="#04316a"/><path d="M419.32,419.44c1.81,0,3.46.11,5.28.6v-.99c0-3.57-2.09-5.44-6.16-5.44-2.25,0-4.78.55-7.09,1.59l-1.43-5.5c2.58-.99,5.99-1.59,9.18-1.59,7.86,0,11.93,3.68,11.93,10.83v17.87h-6.21v-2.97h-.11c-2.42,2.47-4.95,3.63-8.19,3.63-5.61,0-9.24-3.46-9.24-8.91,0-5.94,4.23-9.13,12.04-9.13ZM418.22,432.59c2.36,0,4.56-1.16,6.38-3.35v-4.89c-1.54-.38-3.13-.55-4.56-.55-4.12,0-6.49,1.65-6.49,4.62,0,2.58,1.82,4.18,4.67,4.18Z" fill="#04316a"/><path d="M463.42,436.82h-6.54v-16c0-4.07-1.21-6.82-5.17-6.82-4.56,0-5.83,3.74-5.83,6.76v16.06h-6.54v-27.99h6.49v3.35h.11c1.65-2.47,4.62-4.07,8.25-4.07,6.38,0,9.24,4.67,9.24,11.33v17.38Z" fill="#04316a"/><path d="M470.34,422.74c0-9.02,4.56-14.63,11.38-14.63,3.52,0,6.27,1.48,8.14,3.79h.11v-14.35l6.54-1.65v40.92h-6.38v-3.3h-.11c-2.03,2.47-4.95,3.96-8.41,3.96-6.65,0-11.27-5.66-11.27-14.74ZM476.83,422.74c0,5.72,2.37,8.96,6.49,8.96,2.53,0,4.62-1.21,6.65-3.68v-10.23c-1.87-2.53-4.01-3.74-6.65-3.74-4.23,0-6.49,3.08-6.49,8.69Z" fill="#04316a"/><path d="M517.48,437.48c-8.3,0-13.86-5.88-13.86-14.74s5.33-14.63,13.14-14.63,12.43,5.61,12.43,14.24c0,.93-.05,1.92-.11,2.69h-18.81c.72,4.34,3.3,6.82,7.26,6.82,2.58,0,4.67-.99,6.87-3.3l4.07,4.29c-3.19,3.13-6.76,4.62-11,4.62ZM510.17,420.27h12.7c-.28-4.29-2.53-6.76-6.21-6.76s-5.94,2.42-6.49,6.76Z" fill="#04316a"/><path d="M553.28,408.72l-1.04,6.71c-.99-.55-2.2-.88-3.63-.88-4.51,0-5.72,3.63-5.72,7.92v14.35h-6.54v-27.99h6.43v3.52h.11c1.48-2.64,4.12-4.23,7.31-4.23.93,0,2.09.17,3.08.6Z" fill="#04316a"/><path d="M571.1,422.74h-13.75v-6.21h13.75v6.21Z" fill="#04316a"/><path d="M609.69,421.48c0,9.35-4.78,16-15.18,16s-15.07-6.6-15.07-16v-23.37h7.04v22.99c0,5.83,2.53,9.79,8.25,9.79s7.97-3.9,7.97-9.79v-22.99h6.98v23.37Z" fill="#04316a"/><path d="M642.47,436.82h-6.54v-16c0-4.07-1.21-6.82-5.17-6.82-4.56,0-5.83,3.74-5.83,6.76v16.06h-6.54v-27.99h6.49v3.35h.11c1.65-2.47,4.62-4.07,8.25-4.07,6.38,0,9.24,4.67,9.24,11.33v17.38Z" fill="#04316a"/><path d="M658.15,400.36c0,2.31-1.87,3.96-4.18,3.96s-4.12-1.65-4.12-3.96,1.87-3.96,4.12-3.96,4.18,1.71,4.18,3.96ZM657.27,436.82h-6.54v-27.99h6.54v27.99Z" fill="#04316a"/><path d="M689.98,408.83l-10.17,27.99h-6.82l-10.17-27.99h7.2l6.43,20.35h.11l6.43-20.35h6.98Z" fill="#04316a"/><path d="M706.89,437.48c-8.3,0-13.86-5.88-13.86-14.74s5.33-14.63,13.14-14.63,12.43,5.61,12.43,14.24c0,.93-.05,1.92-.11,2.69h-18.81c.71,4.34,3.3,6.82,7.26,6.82,2.58,0,4.67-.99,6.87-3.3l4.07,4.29c-3.19,3.13-6.76,4.62-11,4.62ZM699.57,420.27h12.7c-.27-4.29-2.53-6.76-6.21-6.76s-5.94,2.42-6.49,6.76Z" fill="#04316a"/><path d="M742.69,408.72l-1.04,6.71c-.99-.55-2.2-.88-3.63-.88-4.51,0-5.72,3.63-5.72,7.92v14.35h-6.54v-27.99h6.43v3.52h.11c1.48-2.64,4.12-4.23,7.31-4.23.93,0,2.09.17,3.08.6Z" fill="#04316a"/><path d="M748.87,428.9c2.75,2.09,5.44,3.13,7.92,3.13s4.12-1.1,4.12-2.8c0-4.79-14.02-3.08-14.02-12.43,0-5.17,4.29-8.69,10.56-8.69,3.35,0,6.71.99,9.68,2.91l-3.08,5.11c-2.42-1.65-4.56-2.47-6.71-2.47-2.42,0-4.01,1.04-4.01,2.59,0,4.56,13.97,2.97,13.97,12.37,0,5.28-4.34,8.85-10.78,8.85-3.74,0-7.53-1.16-10.78-3.41l3.13-5.17Z" fill="#04316a"/><path d="M781.72,400.36c0,2.31-1.87,3.96-4.18,3.96s-4.12-1.65-4.12-3.96,1.87-3.96,4.12-3.96,4.18,1.71,4.18,3.96ZM780.84,436.82h-6.54v-27.99h6.54v27.99Z" fill="#04316a"/><path d="M803.82,430.83v5.61c-1.43.66-3.58,1.04-5.5,1.04-4.95,0-7.64-2.75-7.64-7.86v-15.34h-4.29v-5.44h4.23v-7.64l6.54-1.43v9.07h6.65v5.44h-6.65v13.8c0,2.59.88,3.68,3.02,3.68,1.21,0,2.53-.38,3.63-.93Z" fill="#04316a"/><path d="M820.98,419.44c1.81,0,3.46.11,5.28.6v-.99c0-3.57-2.09-5.44-6.16-5.44-2.25,0-4.78.55-7.09,1.59l-1.43-5.5c2.58-.99,5.99-1.59,9.18-1.59,7.86,0,11.93,3.68,11.93,10.83v17.87h-6.21v-2.97h-.11c-2.42,2.47-4.95,3.63-8.19,3.63-5.61,0-9.24-3.46-9.24-8.91,0-5.94,4.23-9.13,12.04-9.13ZM815.64,404.49c-2.09,0-3.9-1.76-3.9-3.79s1.81-3.85,3.9-3.85,3.9,1.81,3.9,3.85-1.81,3.79-3.9,3.79ZM819.88,432.59c2.36,0,4.56-1.16,6.38-3.35v-4.89c-1.54-.38-3.13-.55-4.56-.55-4.12,0-6.49,1.65-6.49,4.62,0,2.58,1.82,4.18,4.67,4.18ZM827.08,404.49c-2.09,0-3.9-1.76-3.9-3.79s1.81-3.85,3.9-3.85,3.9,1.81,3.9,3.85-1.81,3.79-3.9,3.79Z" fill="#04316a"/><path d="M855.21,430.83v5.61c-1.43.66-3.58,1.04-5.5,1.04-4.95,0-7.64-2.75-7.64-7.86v-15.34h-4.29v-5.44h4.23v-7.64l6.54-1.43v9.07h6.65v5.44h-6.65v13.8c0,2.59.88,3.68,3.02,3.68,1.21,0,2.53-.38,3.63-.93Z" fill="#04316a"/><path d="M74.02,497.32h-25.3v-38.71h24.58v6.27h-17.76v9.24h13.53v6.21h-13.53v10.72h18.48v6.27Z" fill="#04316a"/><path d="M97.71,469.22l-1.04,6.71c-.99-.55-2.2-.88-3.63-.88-4.51,0-5.72,3.63-5.72,7.92v14.35h-6.54v-27.99h6.43v3.52h.11c1.48-2.64,4.12-4.23,7.31-4.23.93,0,2.09.17,3.08.6Z" fill="#04316a"/><path d="M109.78,497.32h-6.54v-39.38l6.54-1.48v40.86Z" fill="#04316a"/><path d="M128.64,479.94c1.81,0,3.46.11,5.28.6v-.99c0-3.57-2.09-5.44-6.16-5.44-2.25,0-4.78.55-7.09,1.59l-1.43-5.5c2.58-.99,5.99-1.59,9.18-1.59,7.86,0,11.93,3.68,11.93,10.83v17.87h-6.21v-2.97h-.11c-2.42,2.47-4.95,3.63-8.19,3.63-5.61,0-9.24-3.46-9.24-8.91,0-5.94,4.23-9.13,12.04-9.13ZM127.54,493.09c2.36,0,4.56-1.16,6.38-3.35v-4.89c-1.54-.38-3.13-.55-4.56-.55-4.12,0-6.49,1.65-6.49,4.62,0,2.58,1.82,4.18,4.67,4.18Z" fill="#04316a"/><path d="M172.74,497.32h-6.54v-16c0-4.07-1.21-6.82-5.17-6.82-4.56,0-5.83,3.74-5.83,6.76v16.06h-6.54v-27.99h6.49v3.35h.11c1.65-2.47,4.62-4.07,8.25-4.07,6.38,0,9.24,4.67,9.24,11.33v17.38Z" fill="#04316a"/><path d="M187.06,503.42l1.43-.05c8.36-.33,10.83-2.69,10.83-7.97v-1.81h-.05c-1.98,2.53-5.11,3.9-8.47,3.9-6.76,0-11.11-5.55-11.11-14.19s4.56-14.68,11.38-14.68c3.35,0,6.38,1.43,8.25,3.9h.11v-3.19h6.43v25.13c0,9.07-4.62,13.58-16.77,14.08l-1.38.05-.66-5.17ZM186.18,483.13c0,5.5,2.42,8.74,6.54,8.74,2.47,0,4.56-1.21,6.6-3.68v-10.01c-1.92-2.42-4.12-3.68-6.65-3.68-4.07,0-6.49,3.13-6.49,8.63Z" fill="#04316a"/><path d="M226.78,497.98c-8.3,0-13.86-5.88-13.86-14.74s5.33-14.63,13.14-14.63,12.43,5.61,12.43,14.24c0,.93-.05,1.92-.11,2.69h-18.81c.72,4.34,3.3,6.82,7.26,6.82,2.58,0,4.67-.99,6.87-3.3l4.07,4.29c-3.19,3.13-6.76,4.62-11,4.62ZM219.47,480.77h12.7c-.28-4.29-2.53-6.76-6.21-6.76s-5.94,2.42-6.49,6.76Z" fill="#04316a"/><path d="M269.73,497.32h-6.54v-16c0-4.07-1.21-6.82-5.17-6.82-4.56,0-5.83,3.74-5.83,6.76v16.06h-6.54v-27.99h6.49v3.35h.11c1.65-2.47,4.62-4.07,8.25-4.07,6.38,0,9.24,4.67,9.24,11.33v17.38Z" fill="#04316a"/><path d="M290.98,483.24h-13.75v-6.21h13.75v6.21Z" fill="#04316a"/><path d="M299.48,458.61h6.98l17.21,27h.11l-.16-27h6.65v38.71h-6.82l-17.27-27.17h-.11l.11,27.17h-6.71v-38.71Z" fill="#04316a"/><path d="M345.75,486.16c0,3.85,1.92,5.88,5.55,5.88s5.44-1.98,5.44-5.94v-16.77h6.54v16.99c0,7.37-4.12,11.66-11.82,11.66s-12.26-4.29-12.26-11.6v-17.05h6.54v16.83ZM345.53,464.99c-2.09,0-3.9-1.76-3.9-3.79s1.82-3.85,3.9-3.85,3.91,1.81,3.91,3.85-1.82,3.79-3.91,3.79ZM356.97,464.99c-2.09,0-3.91-1.76-3.91-3.79s1.82-3.85,3.91-3.85,3.9,1.81,3.9,3.85-1.82,3.79-3.9,3.79Z" fill="#04316a"/><path d="M388.53,469.22l-1.04,6.71c-.99-.55-2.2-.88-3.63-.88-4.51,0-5.72,3.63-5.72,7.92v14.35h-6.54v-27.99h6.43v3.52h.11c1.48-2.64,4.12-4.23,7.31-4.23.93,0,2.09.17,3.08.6Z" fill="#04316a"/><path d="M418.07,497.32h-6.54v-16c0-4.07-1.21-6.82-5.17-6.82-4.56,0-5.83,3.74-5.83,6.76v16.06h-6.54v-27.99h6.49v3.35h.11c1.65-2.47,4.62-4.07,8.25-4.07,6.38,0,9.24,4.67,9.24,11.33v17.38Z" fill="#04316a"/><path d="M452.54,483.13c0,9.02-4.56,14.85-11.44,14.85-3.52,0-6.43-1.49-8.3-3.91h-.11v3.25h-6.27v-39.26l6.54-1.65v16.17h.11c1.87-2.47,4.73-3.96,8.19-3.96,6.71,0,11.27,5.44,11.27,14.52ZM446.1,483.3c0-5.77-2.36-8.8-6.54-8.8-2.53,0-4.56,1.1-6.6,3.63v10.23c1.87,2.47,3.96,3.79,6.65,3.79,4.23,0,6.49-3.24,6.49-8.85Z" fill="#04316a"/><path d="M472.14,497.98c-8.3,0-13.86-5.88-13.86-14.74s5.33-14.63,13.14-14.63,12.43,5.61,12.43,14.24c0,.93-.05,1.92-.11,2.69h-18.81c.71,4.34,3.3,6.82,7.26,6.82,2.58,0,4.67-.99,6.87-3.3l4.07,4.29c-3.19,3.13-6.76,4.62-11,4.62ZM464.83,480.77h12.7c-.27-4.29-2.53-6.76-6.21-6.76s-5.94,2.42-6.49,6.76Z" fill="#04316a"/><path d="M507.94,469.22l-1.04,6.71c-.99-.55-2.2-.88-3.63-.88-4.51,0-5.72,3.63-5.72,7.92v14.35h-6.54v-27.99h6.43v3.52h.11c1.48-2.64,4.12-4.23,7.31-4.23.93,0,2.09.17,3.08.6Z" fill="#04316a"/><path d="M519.01,503.42l1.43-.05c8.36-.33,10.83-2.69,10.83-7.97v-1.81h-.05c-1.98,2.53-5.11,3.9-8.47,3.9-6.76,0-11.11-5.55-11.11-14.19s4.56-14.68,11.38-14.68c3.35,0,6.38,1.43,8.25,3.9h.11v-3.19h6.43v25.13c0,9.07-4.62,13.58-16.77,14.08l-1.38.05-.66-5.17ZM518.13,483.13c0,5.5,2.42,8.74,6.54,8.74,2.47,0,4.56-1.21,6.6-3.68v-10.01c-1.92-2.42-4.12-3.68-6.65-3.68-4.07,0-6.49,3.13-6.49,8.63Z" fill="#04316a"/><path id="b" d="M839.61,48.73v179.44c0,41.75-18.63,77.63-62.1,105.14l-.35-.46c28.56-22.65,46.85-51.75,46.85-89.34V48.73h-15.6v194.52c0,56.01-45.41,98.04-101.42,98.04s-101.42-42.03-101.42-98.04V61.83l-15.6,15.6v166.08c0,64.63,52.39,113.12,117.03,113.12h15.6c63.64,0,132.63-47,132.63-128.24V48.73h-15.6ZM712.11,325.69c47.37,0,80.64-35.08,80.69-82.44h0V61.83l-15.6,15.6v150.73c0,30.16-24.45,50.71-54.61,50.71-32.7,0-54.61-16.3-54.61-50.71V48.73h-15.6v179.44c0,43.25,28.54,66.31,70.22,66.31,15.86,0,35.1-7.83,48.18-21.62l.35.46c-12.26,22.73-29.79,36.77-59,36.77-41.99,0-75.35-30.04-75.35-74.38V48.73s-15.6,0-15.6,0v187.11c0,53.04,40.63,89.85,90.95,89.85ZM48.72,77.43l15.6-15.6v283.36h-15.6V77.43ZM95.53,64.33h187.24v-15.6H79.92v187.24h166.37v-15.6H95.53V64.33ZM269.79,189.16H126.73v-62.41h127.45l15.6-15.6H126.73v-15.6h156.03v-15.6H111.13v124.83h143.26l15.4-15.6ZM79.92,345.19h15.6v-78.02h15.6v64.92l15.6-15.6v-49.31h119.56v-15.6H79.92v93.62ZM360.25,251.57l-39.46,93.62h15.61s0,0,0,0h0l19.73-46.81h132.2l19.71,46.81h15.6l-26.28-62.41h-134.66l6.58-15.6h137.12l32.85,78.02h15.6l-39.42-93.62h-155.18ZM383.21,48.73l-114.68,272.01,9.93,13.48L398.81,48.73h-15.6ZM445.62,48.73l120.2,285.49,9.91-13.48L461.22,48.73h-15.6ZM351.19,235.97l-46.15,109.22h-15.6l117.17-277.94,64.47,153.11h15.6l-72.27-171.64h15.6l78.84,187.24h-157.67ZM422.25,141.46l-33.25,78.9h66.47l-33.22-78.9ZM357.76,220.36h15.64l41.06-97.42-7.81-18.56-48.89,115.98Z" fill="#04316a"/></svg>