<?xml version="1.0" encoding="UTF-8" standalone="no"?>
<!-- Created with Inkscape (http://www.inkscape.org/) -->

<svg
   version="1.1"
   id="svg1"
   width="1099.7013"
   height="753.26001"
   viewBox="0 0 1099.7013 753.26001"
   sodipodi:docname="Logo_HHU_+Name_EN_vertikal_rgb_+Safezone.svg"
   inkscape:version="1.4.2 (ebf0e940d0, 2025-05-08)"
   xmlns:inkscape="http://www.inkscape.org/namespaces/inkscape"
   xmlns:sodipodi="http://sodipodi.sourceforge.net/DTD/sodipodi-0.dtd"
   xmlns="http://www.w3.org/2000/svg"
   xmlns:svg="http://www.w3.org/2000/svg">
  <defs
     id="defs1">
    <clipPath
       clipPathUnits="userSpaceOnUse"
       id="clipPath2">
      <path
         d="M 0,564.945 H 824.776 V 0 H 0 Z"
         transform="translate(-618.96872,-404.90161)"
         id="path2" />
    </clipPath>
    <clipPath
       clipPathUnits="userSpaceOnUse"
       id="clipPath4">
      <path
         d="M 0,564.945 H 824.776 V 0 H 0 Z"
         transform="translate(-168.1533,-260.15061)"
         id="path4" />
    </clipPath>
    <clipPath
       clipPathUnits="userSpaceOnUse"
       id="clipPath6">
      <path
         d="M 0,564.945 H 824.776 V 0 H 0 Z"
         transform="translate(-338.85941,-260.15061)"
         id="path6" />
    </clipPath>
    <clipPath
       clipPathUnits="userSpaceOnUse"
       id="clipPath8">
      <path
         d="M 0,564.945 H 824.776 V 0 H 0 Z"
         transform="translate(-647.01071,-109.44261)"
         id="path8" />
    </clipPath>
    <clipPath
       clipPathUnits="userSpaceOnUse"
       id="clipPath10">
      <path
         d="M 0,564.945 H 824.776 V 0 H 0 Z"
         transform="translate(-155.9619,-163.72)"
         id="path10" />
    </clipPath>
    <clipPath
       clipPathUnits="userSpaceOnUse"
       id="clipPath12">
      <path
         d="M 0,564.945 H 824.776 V 0 H 0 Z"
         transform="translate(-134.77,-187.34691)"
         id="path12" />
    </clipPath>
  </defs>
  <sodipodi:namedview
     id="namedview1"
     pagecolor="#ffffff"
     bordercolor="#000000"
     borderopacity="0.25"
     inkscape:showpageshadow="2"
     inkscape:pageopacity="0.0"
     inkscape:pagecheckerboard="0"
     inkscape:deskcolor="#d1d1d1"
     inkscape:zoom="0.76202511"
     inkscape:cx="549.85064"
     inkscape:cy="377.28415"
     inkscape:window-width="1696"
     inkscape:window-height="1026"
     inkscape:window-x="0"
     inkscape:window-y="0"
     inkscape:window-maximized="0"
     inkscape:current-layer="layer-MC0">
    <inkscape:page
       x="0"
       y="0"
       inkscape:label="1"
       id="page1"
       width="1099.7013"
       height="753.26001"
       margin="145.924 153.15199 150.07466 174.13333"
       bleed="0" />
  </sodipodi:namedview>
  <g
     id="layer-MC0"
     inkscape:groupmode="layer"
     inkscape:label="Ebene 1">
    <path
       id="path1"
       d="m 0,0 v -74.292 c 0,-44.284 -33.176,-74.291 -74.1,-74.291 -40.924,0 -74.101,30.007 -74.101,74.291 V 0 h 37.55 c 0,-13.503 0.003,-68.3 0.003,-71.061 0,-22.958 16.364,-38.658 36.548,-38.658 20.186,0 36.55,15.7 36.55,38.658 V 0 Z"
       style="fill:#006ab3;fill-opacity:1;fill-rule:nonzero;stroke:none"
       transform="matrix(1.3333333,0,0,-1.3333333,825.2916,213.3912)"
       clip-path="url(#clipPath2)" />
    <path
       id="path3"
       d="m 0,0 h -37.553 v 192.239 h 37.551 v -52.677 c 10.792,5.802 23.247,9.019 36.551,9.019 40.924,0 74.1,-30.008 74.1,-74.292 V 0 h -37.55 v 71.061 c 0,22.956 -16.365,38.655 -36.55,38.655 C 16.364,109.716 0,94.017 0,71.061 Z"
       style="fill:#006ab3;fill-opacity:1;fill-rule:nonzero;stroke:none"
       transform="matrix(1.3333333,0,0,-1.3333333,224.2044,406.39253)"
       clip-path="url(#clipPath4)" />
    <path
       id="path5"
       d="M 0,0 H -37.55 V 192.239 H 0 v -52.677 c 10.792,5.802 23.248,9.019 36.552,9.019 40.923,0 74.099,-30.008 74.099,-74.292 V 0 h -37.55 v 71.061 c 0,22.956 -16.364,38.655 -36.549,38.655 -20.186,0 -36.55,-15.699 -36.55,-38.655 z"
       style="fill:#006ab3;fill-opacity:1;fill-rule:nonzero;stroke:none"
       transform="matrix(1.3333333,0,0,-1.3333333,451.81253,406.39253)"
       clip-path="url(#clipPath6)" />
    <path
       id="path7"
       d="m 0,0 h 35.05 c 15.382,0 27.851,12.438 27.851,27.78 0,15.342 -12.469,27.781 -27.851,27.781 L 0,55.562 Z"
       style="fill:#006ab3;fill-opacity:1;fill-rule:nonzero;stroke:none"
       transform="matrix(1.3333333,0,0,-1.3333333,862.68093,607.33653)"
       clip-path="url(#clipPath8)" />
    <path
       id="path9"
       d="m 0,0 h -4.086 v -19.918 c 0,-2.145 -0.22,-3.898 -0.656,-5.265 -0.436,-1.366 -1.039,-2.448 -1.807,-3.242 -0.768,-0.797 -1.669,-1.34 -2.697,-1.634 -1.03,-0.293 -2.141,-0.44 -3.327,-0.44 -1.223,0 -2.349,0.147 -3.38,0.44 -1.03,0.294 -1.92,0.837 -2.672,1.634 -0.75,0.794 -1.344,1.876 -1.78,3.242 -0.436,1.367 -0.655,3.12 -0.655,5.265 V 0 h -4.243 v -20.28 c 0,-4.774 1.064,-8.162 3.196,-10.167 2.129,-2.005 5.307,-3.009 9.534,-3.009 4.226,0 7.377,1.004 9.455,3.009 C -1.04,-28.442 0,-25.054 0,-20.28 Z m 28.707,-32.366 v 14.315 c 0,1.21 -0.051,2.367 -0.156,3.476 -0.104,1.105 -0.42,2.074 -0.943,2.903 -0.523,0.83 -1.319,1.496 -2.383,1.999 -1.066,0.5 -2.541,0.752 -4.429,0.752 -1.186,0 -2.225,-0.183 -3.115,-0.545 -0.892,-0.363 -1.642,-0.788 -2.254,-1.27 -0.612,-0.486 -1.099,-0.969 -1.467,-1.453 -0.366,-0.486 -0.62,-0.849 -0.758,-1.089 L 12.677,-9.337 8.747,-9.7 c 0.036,-0.173 0.08,-0.476 0.131,-0.907 0.054,-0.432 0.105,-0.926 0.159,-1.478 0.05,-0.555 0.095,-1.124 0.13,-1.712 0.034,-0.589 0.052,-1.141 0.052,-1.659 v -16.91 h 4.088 v 12.76 c 0,1.037 0.164,2.022 0.496,2.957 0.331,0.932 0.787,1.745 1.362,2.436 0.576,0.692 1.259,1.237 2.044,1.634 0.786,0.398 1.649,0.597 2.593,0.597 1.048,0 1.894,-0.13 2.541,-0.388 0.645,-0.261 1.135,-0.65 1.467,-1.168 0.331,-0.519 0.549,-1.159 0.654,-1.918 0.104,-0.762 0.158,-1.627 0.158,-2.595 V -32.366 Z M 41.511,1.426 c -0.523,0.537 -1.135,0.803 -1.834,0.803 -0.734,0 -1.362,-0.266 -1.885,-0.803 -0.524,-0.536 -0.787,-1.151 -0.787,-1.84 0,-0.694 0.263,-1.297 0.787,-1.815 0.523,-0.519 1.151,-0.78 1.885,-0.78 0.699,0 1.311,0.261 1.834,0.78 0.523,0.518 0.785,1.121 0.785,1.815 0,0.689 -0.262,1.304 -0.785,1.84 M 41.72,-9.596 h -4.19 v -22.771 h 4.19 z m 10.766,0 h -4.507 l 9.38,-23.237 h 3.3 l 9.586,23.237 h -3.772 l -6.077,-15.976 c -0.594,-1.591 -0.925,-2.784 -0.995,-3.578 -0.07,0.38 -0.175,0.88 -0.313,1.504 -0.14,0.621 -0.385,1.381 -0.734,2.281 z M 93.4,-21.683 v 2.284 c 0,1.279 -0.149,2.549 -0.444,3.811 -0.299,1.262 -0.795,2.388 -1.494,3.371 -0.698,0.987 -1.633,1.782 -2.803,2.388 -1.171,0.603 -2.646,0.908 -4.426,0.908 -1.467,0 -2.837,-0.296 -4.112,-0.884 -1.275,-0.587 -2.384,-1.408 -3.327,-2.463 -0.943,-1.054 -1.687,-2.316 -2.228,-3.785 -0.54,-1.47 -0.812,-3.104 -0.812,-4.902 0,-3.977 0.926,-6.984 2.777,-9.025 1.852,-2.041 4.593,-3.06 8.224,-3.06 1.888,0 3.545,0.381 4.978,1.14 1.431,0.76 2.777,1.869 4.035,3.319 l -1.625,1.66 c -1.538,-1.349 -2.854,-2.229 -3.956,-2.645 -1.1,-0.414 -2.174,-0.621 -3.22,-0.621 -2.305,0 -4.034,0.734 -5.187,2.203 -1.153,1.47 -1.8,3.571 -1.938,6.301 z m -5.422,8.352 c 0.892,-1.244 1.337,-2.904 1.337,-4.979 v -0.778 H 77.946 c 0.138,1.001 0.383,1.963 0.733,2.879 0.349,0.915 0.794,1.73 1.337,2.437 0.541,0.709 1.186,1.271 1.938,1.687 0.75,0.413 1.598,0.62 2.541,0.62 1.431,0 2.592,-0.62 3.483,-1.866 m 13.175,-19.035 h 3.876 v 10.944 c 0,0.761 0.027,1.522 0.08,2.282 0.052,0.759 0.165,1.488 0.341,2.179 0.383,1.418 0.95,2.602 1.702,3.552 0.75,0.952 1.598,1.427 2.541,1.427 1.572,0 2.411,-0.849 2.515,-2.542 l 3.404,1.193 c -0.035,0.761 -0.191,1.417 -0.471,1.972 -0.281,0.553 -0.628,0.994 -1.048,1.323 -0.419,0.327 -0.882,0.57 -1.389,0.725 -0.505,0.157 -0.986,0.234 -1.439,0.234 -1.362,0 -2.551,-0.38 -3.563,-1.142 -1.013,-0.76 -1.869,-1.782 -2.568,-3.059 l -0.523,3.941 -3.93,-0.363 c 0.036,-0.173 0.081,-0.476 0.132,-0.907 0.053,-0.432 0.104,-0.926 0.158,-1.478 0.051,-0.555 0.095,-1.124 0.131,-1.712 0.033,-0.589 0.051,-1.141 0.051,-1.659 z m 34.235,9.413 c -0.436,0.779 -0.995,1.444 -1.676,1.998 -0.681,0.552 -1.424,0.986 -2.225,1.298 -0.805,0.308 -1.591,0.569 -2.359,0.776 -1.433,0.38 -2.592,0.917 -3.484,1.609 -0.89,0.69 -1.335,1.625 -1.335,2.801 0,0.897 0.394,1.649 1.179,2.254 0.785,0.606 1.789,0.908 3.013,0.908 1.291,0 2.294,-0.24 3.011,-0.725 0.716,-0.486 1.337,-0.986 1.86,-1.504 l 1.991,2.541 c -0.56,0.485 -1.37,0.952 -2.436,1.401 -1.066,0.448 -2.488,0.675 -4.27,0.675 -1.082,0 -2.115,-0.132 -3.091,-0.39 -0.977,-0.259 -1.842,-0.649 -2.592,-1.168 -0.753,-0.518 -1.356,-1.174 -1.807,-1.969 -0.457,-0.796 -0.684,-1.713 -0.684,-2.75 0,-1.211 0.212,-2.223 0.63,-3.033 0.419,-0.815 0.959,-1.489 1.625,-2.025 0.663,-0.537 1.379,-0.95 2.147,-1.244 0.768,-0.294 1.502,-0.545 2.2,-0.752 1.467,-0.414 2.646,-0.926 3.537,-1.531 0.89,-0.606 1.335,-1.615 1.335,-3.033 0,-1.21 -0.358,-2.136 -1.073,-2.775 -0.717,-0.64 -1.738,-0.961 -3.064,-0.961 -0.701,0 -1.355,0.114 -1.965,0.338 -0.612,0.225 -1.179,0.51 -1.704,0.857 -0.523,0.344 -0.986,0.699 -1.387,1.061 -0.402,0.365 -0.725,0.701 -0.97,1.013 l -1.991,-3.164 c 2.2,-1.73 4.855,-2.593 7.964,-2.593 1.152,0 2.233,0.153 3.249,0.465 1.012,0.311 1.884,0.77 2.618,1.375 0.733,0.605 1.318,1.357 1.754,2.257 0.438,0.899 0.656,1.935 0.656,3.113 0,1.139 -0.218,2.101 -0.656,2.877 M 148.25,1.426 c -0.523,0.537 -1.135,0.803 -1.834,0.803 -0.734,0 -1.362,-0.266 -1.887,-0.803 -0.523,-0.536 -0.785,-1.151 -0.785,-1.84 0,-0.694 0.262,-1.297 0.785,-1.815 0.525,-0.519 1.153,-0.78 1.887,-0.78 0.699,0 1.311,0.261 1.834,0.78 0.522,0.518 0.785,1.121 0.785,1.815 0,0.689 -0.263,1.304 -0.785,1.84 m 0.209,-11.022 h -4.19 v -22.771 h 4.19 z m 20.799,-19.917 c -0.49,-0.243 -0.935,-0.425 -1.338,-0.546 -0.4,-0.122 -0.845,-0.181 -1.335,-0.181 -0.28,0 -0.612,0.053 -0.994,0.155 -0.385,0.105 -0.681,0.242 -0.893,0.416 -0.489,0.381 -0.776,0.846 -0.863,1.399 -0.087,0.552 -0.131,1.418 -0.131,2.595 v 13.486 h 5.449 v 2.593 h -5.449 v 6.692 l -3.981,-0.935 v -5.757 h -3.876 v -2.593 h 3.876 v -13.85 c 0,-1.176 0.042,-2.188 0.131,-3.033 0.087,-0.848 0.356,-1.567 0.813,-2.155 0.487,-0.656 1.125,-1.124 1.911,-1.399 0.785,-0.276 1.615,-0.414 2.487,-0.414 0.908,0 1.807,0.138 2.7,0.414 0.89,0.275 1.649,0.656 2.278,1.142 z m 28.393,19.917 h -3.72 c -0.559,-1.419 -1.144,-2.887 -1.754,-4.41 -0.612,-1.521 -1.232,-3.033 -1.86,-4.537 -0.63,-1.504 -1.257,-2.993 -1.887,-4.461 -0.627,-1.472 -1.239,-2.845 -1.833,-4.124 l -7.281,17.532 h -4.506 l 9.744,-21.94 c -1.153,-2.352 -2.314,-4.557 -3.485,-6.615 -1.17,-2.056 -2.347,-3.914 -3.536,-5.575 l 3.984,-1.608 z m 49.204,0.882 c -0.79,2.005 -1.92,3.665 -3.396,4.98 -1.473,1.313 -3.264,2.298 -5.369,2.955 -2.105,0.656 -4.457,0.986 -7.054,0.986 -1.088,0 -1.949,-0.009 -2.581,-0.024 -0.632,-0.019 -1.21,-0.037 -1.736,-0.054 C 226.192,0.111 225.613,0.096 224.981,0.078 224.35,0.06 223.488,0.033 222.4,0 v -32.366 c 1.019,0 2.272,-0.018 3.765,-0.053 1.491,-0.033 3.098,-0.052 4.818,-0.052 1.753,0 3.631,0.226 5.634,0.675 2,0.449 3.843,1.279 5.528,2.49 1.684,1.21 3.088,2.904 4.211,5.082 1.122,2.179 1.685,4.998 1.685,8.456 0,2.697 -0.396,5.047 -1.186,7.054 m -4.501,-14.006 c -0.666,-1.798 -1.578,-3.215 -2.737,-4.252 -1.158,-1.037 -2.492,-1.756 -4.001,-2.154 -1.509,-0.396 -3.107,-0.597 -4.791,-0.597 -0.668,0 -1.335,0.019 -2.001,0.054 -0.667,0.033 -1.404,0.103 -2.212,0.207 V -2.49 c 0.597,0.033 1.202,0.051 1.816,0.051 h 1.765 c 4.597,0 7.941,-1.132 10.029,-3.396 2.087,-2.265 3.133,-5.611 3.133,-10.038 0,-2.766 -0.334,-5.049 -1.001,-6.847 m 13.424,13.124 v -14.316 c 0,-1.211 0.054,-2.37 0.158,-3.476 0.107,-1.106 0.423,-2.074 0.948,-2.904 0.527,-0.83 1.324,-1.495 2.396,-1.996 1.071,-0.503 2.553,-0.752 4.449,-0.752 1.193,0 2.239,0.181 3.133,0.543 0.895,0.362 1.649,0.788 2.263,1.27 0.614,0.486 1.097,0.968 1.448,1.454 0.35,0.485 0.614,0.847 0.79,1.09 l 0.526,-3.943 3.95,0.362 c -0.036,0.174 -0.081,0.477 -0.132,0.909 -0.054,0.431 -0.106,0.917 -0.158,1.453 -0.053,0.536 -0.098,1.105 -0.133,1.711 -0.034,0.605 -0.052,1.166 -0.052,1.686 v 16.909 h -4.107 v -12.76 c 0,-1.038 -0.167,-2.024 -0.499,-2.956 -0.333,-0.934 -0.789,-1.747 -1.37,-2.439 -0.579,-0.691 -1.262,-1.237 -2.052,-1.633 -0.79,-0.398 -1.66,-0.596 -2.606,-0.596 -1.054,0 -1.905,0.128 -2.554,0.389 -0.65,0.258 -1.142,0.648 -1.474,1.166 -0.333,0.519 -0.554,1.159 -0.658,1.92 -0.105,0.759 -0.158,1.625 -0.158,2.593 v 14.316 z m 16.349,9.467 c -0.475,0.467 -1.046,0.698 -1.711,0.698 -0.704,0 -1.282,-0.231 -1.738,-0.698 -0.456,-0.468 -0.686,-1.013 -0.686,-1.636 0,-0.621 0.23,-1.166 0.686,-1.633 0.456,-0.467 1.034,-0.699 1.738,-0.699 0.665,0 1.236,0.232 1.711,0.699 0.474,0.467 0.71,1.012 0.71,1.633 0,0.623 -0.236,1.168 -0.71,1.636 m -9.713,0 c -0.459,0.467 -1.037,0.698 -1.738,0.698 -0.668,0 -1.238,-0.231 -1.711,-0.698 -0.475,-0.468 -0.712,-1.013 -0.712,-1.636 0,-0.621 0.237,-1.166 0.712,-1.633 0.473,-0.467 1.043,-0.699 1.711,-0.699 0.701,0 1.279,0.232 1.738,0.699 0.454,0.467 0.683,1.012 0.683,1.633 0,0.623 -0.229,1.168 -0.683,1.636 m 36.088,-22.824 c -0.439,0.779 -0.999,1.444 -1.685,1.998 -0.685,0.552 -1.43,0.986 -2.238,1.298 -0.808,0.308 -1.598,0.569 -2.368,0.776 -1.44,0.38 -2.606,0.917 -3.502,1.609 -0.895,0.69 -1.342,1.625 -1.342,2.801 0,0.897 0.394,1.649 1.184,2.254 0.79,0.606 1.798,0.908 3.028,0.908 1.298,0 2.308,-0.24 3.026,-0.725 0.719,-0.486 1.345,-0.986 1.87,-1.504 l 2.001,2.541 c -0.561,0.485 -1.378,0.952 -2.449,1.401 -1.07,0.448 -2.501,0.675 -4.29,0.675 -1.088,0 -2.125,-0.132 -3.106,-0.39 -0.984,-0.259 -1.852,-0.649 -2.606,-1.168 -0.756,-0.518 -1.362,-1.174 -1.818,-1.969 -0.456,-0.796 -0.683,-1.713 -0.683,-2.75 0,-1.211 0.211,-2.223 0.632,-3.033 0.421,-0.815 0.964,-1.489 1.631,-2.025 0.668,-0.537 1.387,-0.95 2.158,-1.244 0.773,-0.294 1.509,-0.545 2.212,-0.752 1.474,-0.414 2.659,-0.926 3.554,-1.531 0.894,-0.606 1.342,-1.615 1.342,-3.033 0,-1.21 -0.361,-2.136 -1.079,-2.775 -0.719,-0.64 -1.747,-0.961 -3.079,-0.961 -0.702,0 -1.361,0.114 -1.975,0.338 -0.613,0.225 -1.184,0.51 -1.711,0.857 -0.527,0.344 -0.992,0.699 -1.395,1.061 -0.403,0.365 -0.728,0.701 -0.975,1.013 l -2,-3.164 c 2.212,-1.73 4.878,-2.593 8.004,-2.593 1.157,0 2.245,0.153 3.262,0.465 1.019,0.311 1.896,0.77 2.632,1.375 0.74,0.605 1.326,1.357 1.765,2.257 0.438,0.899 0.659,1.935 0.659,3.113 0,1.139 -0.221,2.101 -0.659,2.877 m 22.059,0 c -0.439,0.779 -0.999,1.444 -1.685,1.998 -0.686,0.552 -1.431,0.986 -2.236,1.298 -0.81,0.308 -1.598,0.569 -2.37,0.776 -1.44,0.38 -2.606,0.917 -3.502,1.609 -0.895,0.69 -1.342,1.625 -1.342,2.801 0,0.897 0.395,1.649 1.183,2.254 0.79,0.606 1.8,0.908 3.029,0.908 1.298,0 2.307,-0.24 3.026,-0.725 0.719,-0.486 1.344,-0.986 1.869,-1.504 l 2.001,2.541 c -0.561,0.485 -1.378,0.952 -2.448,1.401 -1.07,0.448 -2.501,0.675 -4.29,0.675 -1.088,0 -2.125,-0.132 -3.107,-0.39 -0.983,-0.259 -1.851,-0.649 -2.605,-1.168 -0.757,-0.518 -1.362,-1.174 -1.815,-1.969 -0.459,-0.796 -0.686,-1.713 -0.686,-2.75 0,-1.211 0.211,-2.223 0.632,-3.033 0.42,-0.815 0.966,-1.489 1.631,-2.025 0.668,-0.537 1.386,-0.95 2.158,-1.244 0.772,-0.294 1.509,-0.545 2.212,-0.752 1.475,-0.414 2.659,-0.926 3.554,-1.531 0.894,-0.606 1.341,-1.615 1.341,-3.033 0,-1.21 -0.358,-2.136 -1.079,-2.775 -0.719,-0.64 -1.744,-0.961 -3.08,-0.961 -0.7,0 -1.359,0.114 -1.973,0.338 -0.615,0.225 -1.184,0.51 -1.711,0.857 -0.526,0.344 -0.993,0.699 -1.396,1.061 -0.402,0.365 -0.727,0.701 -0.975,1.013 l -2,-3.164 c 2.212,-1.73 4.88,-2.593 8.004,-2.593 1.158,0 2.245,0.153 3.265,0.465 1.017,0.311 1.894,0.77 2.632,1.375 0.737,0.605 1.324,1.357 1.763,2.257 0.438,0.899 0.658,1.935 0.658,3.113 0,1.139 -0.22,2.101 -0.658,2.877 m 26.613,1.27 v 2.284 c 0,1.279 -0.15,2.549 -0.447,3.811 -0.298,1.262 -0.799,2.388 -1.502,3.371 -0.702,0.987 -1.64,1.782 -2.815,2.388 -1.178,0.603 -2.659,0.908 -4.451,0.908 -1.473,0 -2.851,-0.296 -4.132,-0.884 -1.281,-0.587 -2.394,-1.408 -3.342,-2.463 -0.948,-1.054 -1.693,-2.316 -2.239,-3.785 -0.545,-1.47 -0.816,-3.104 -0.816,-4.902 0,-3.977 0.93,-6.984 2.79,-9.025 1.86,-2.041 4.615,-3.06 8.266,-3.06 1.897,0 3.564,0.381 5.003,1.14 1.438,0.76 2.79,1.869 4.052,3.319 l -1.631,1.66 c -1.544,-1.349 -2.868,-2.229 -3.974,-2.645 -1.106,-0.414 -2.185,-0.621 -3.238,-0.621 -2.316,0 -4.054,0.734 -5.214,2.203 -1.157,1.47 -1.806,3.571 -1.947,6.301 z m -5.449,8.352 c 0.894,-1.244 1.341,-2.904 1.341,-4.979 v -0.778 h -11.424 c 0.14,1.001 0.387,1.963 0.737,2.879 0.351,0.915 0.799,1.73 1.344,2.437 0.543,0.709 1.192,1.271 1.947,1.687 0.754,0.413 1.606,0.62 2.555,0.62 1.437,0 2.605,-0.62 3.5,-1.866 m 17.556,15.817 h -4.159 v -34.854 h 4.159 z m 24.478,-28.058 c -0.528,-1.244 -1.169,-2.203 -1.923,-2.879 -0.754,-0.675 -1.544,-1.124 -2.37,-1.349 -0.823,-0.224 -1.518,-0.336 -2.078,-0.336 -1.053,0 -1.967,0.234 -2.74,0.7 -0.772,0.466 -1.413,1.116 -1.919,1.946 -0.51,0.83 -0.888,1.815 -1.133,2.955 -0.245,1.141 -0.367,2.37 -0.367,3.682 0,1.349 0.158,2.586 0.473,3.709 0.317,1.124 0.764,2.083 1.342,2.88 0.579,0.794 1.27,1.409 2.078,1.84 0.809,0.432 1.688,0.651 2.633,0.651 0.912,0 1.782,-0.165 2.608,-0.495 0.824,-0.329 1.542,-0.854 2.158,-1.582 0.612,-0.725 1.104,-1.642 1.473,-2.748 0.37,-1.108 0.552,-2.439 0.552,-3.994 0,-2.074 -0.263,-3.734 -0.787,-4.98 m 1.053,-7.072 3.947,0.363 c -0.036,0.174 -0.078,0.476 -0.132,0.908 -0.053,0.432 -0.105,0.916 -0.157,1.453 -0.054,0.536 -0.096,1.106 -0.132,1.711 -0.035,0.605 -0.053,1.166 -0.053,1.687 V 2.439 h -3.79 v -15.321 c -0.563,1.072 -1.467,1.998 -2.713,2.775 -1.246,0.779 -2.71,1.169 -4.394,1.169 -1.44,0 -2.79,-0.261 -4.055,-0.78 -1.264,-0.518 -2.369,-1.288 -3.317,-2.307 -0.946,-1.022 -1.703,-2.301 -2.263,-3.838 -0.562,-1.54 -0.842,-3.312 -0.842,-5.317 0,-1.627 0.2,-3.157 0.606,-4.591 0.403,-1.435 1.016,-2.699 1.842,-3.787 0.824,-1.09 1.876,-1.944 3.158,-2.568 1.282,-0.623 2.799,-0.932 4.555,-0.932 1.121,0 2.096,0.154 2.921,0.465 0.823,0.312 1.527,0.693 2.106,1.142 0.581,0.449 1.044,0.926 1.395,1.427 0.352,0.5 0.613,0.94 0.789,1.323 z m 32.534,16.694 c -0.492,1.471 -1.21,2.723 -2.159,3.761 -0.948,1.036 -2.131,1.841 -3.553,2.412 -1.422,0.569 -3.044,0.856 -4.869,0.856 -1.827,0 -3.44,-0.287 -4.844,-0.856 -1.404,-0.571 -2.591,-1.376 -3.554,-2.412 -0.966,-1.038 -1.693,-2.29 -2.185,-3.761 -0.492,-1.471 -0.737,-3.105 -0.737,-4.903 0,-1.867 0.289,-3.551 0.868,-5.055 0.579,-1.504 1.377,-2.784 2.397,-3.839 1.017,-1.055 2.218,-1.866 3.604,-2.439 1.387,-0.569 2.872,-0.854 4.451,-0.854 1.578,0 3.062,0.285 4.448,0.854 1.387,0.573 2.588,1.384 3.605,2.439 1.019,1.055 1.818,2.335 2.397,3.839 0.578,1.504 0.867,3.188 0.867,5.055 0,1.798 -0.244,3.432 -0.736,4.903 m -5.501,-11.54 c -1.21,-1.696 -2.906,-2.541 -5.08,-2.541 -2.178,0 -3.869,0.845 -5.082,2.541 -1.211,1.693 -1.816,3.94 -1.816,6.742 0,2.766 0.596,4.98 1.791,6.64 1.193,1.66 2.895,2.49 5.107,2.49 2.21,0 3.912,-0.83 5.107,-2.49 1.192,-1.66 1.789,-3.874 1.789,-6.64 0,-2.802 -0.605,-5.049 -1.816,-6.742 m 13.398,-4.876 h 3.897 v 10.944 c 0,0.761 0.024,1.522 0.078,2.282 0.053,0.759 0.166,1.488 0.342,2.179 0.385,1.418 0.955,2.602 1.711,3.552 0.754,0.952 1.604,1.427 2.552,1.427 1.58,0 2.424,-0.849 2.529,-2.542 l 3.421,1.193 c -0.035,0.761 -0.193,1.417 -0.473,1.972 -0.283,0.553 -0.632,0.994 -1.053,1.323 -0.423,0.327 -0.888,0.57 -1.395,0.725 -0.509,0.157 -0.993,0.234 -1.449,0.234 -1.368,0 -2.561,-0.38 -3.58,-1.142 -1.017,-0.76 -1.878,-1.782 -2.579,-3.059 l -0.527,3.941 -3.947,-0.363 c 0.033,-0.173 0.077,-0.476 0.13,-0.907 0.054,-0.432 0.105,-0.926 0.159,-1.478 0.052,-0.555 0.095,-1.124 0.13,-1.712 0.037,-0.589 0.054,-1.141 0.054,-1.659 z m 37.362,34.173 c -0.459,0.275 -1.168,0.527 -2.134,0.752 -0.965,0.224 -2.009,0.337 -3.131,0.337 -1.546,0 -2.93,-0.278 -4.158,-0.83 -1.231,-0.553 -2.284,-1.504 -3.161,-2.852 -0.667,-1.003 -1.07,-2.101 -1.209,-3.293 -0.141,-1.195 -0.212,-2.31 -0.212,-3.347 l -0.104,-2.17 h -4.158 v -2.593 h 4.158 v -20.177 h 3.95 v 20.177 h 6.368 v 2.593 h -6.368 l 0.104,2.014 c 0,0.863 0.033,1.78 0.104,2.751 0.069,0.966 0.244,1.84 0.528,2.619 0.28,0.776 0.691,1.426 1.237,1.944 0.543,0.519 1.306,0.78 2.289,0.78 1.018,0 1.896,-0.174 2.633,-0.522 0.736,-0.344 1.35,-0.707 1.843,-1.088 z"
       style="fill:#000000;fill-opacity:1;fill-rule:nonzero;stroke:none"
       transform="matrix(1.3333333,0,0,-1.3333333,207.9492,534.96667)"
       clip-path="url(#clipPath10)" />
    <path
       id="path11"
       d="M 0,0 V 15.456 H 16.003 V 0 h 4.171 V 32.365 H 16.003 V 18.309 H 0 V 32.365 H -4.17 V 0 Z m 47.332,10.686 v 2.28 c 0,1.28 -0.149,2.551 -0.443,3.814 -0.296,1.262 -0.792,2.386 -1.486,3.371 -0.695,0.986 -1.624,1.781 -2.788,2.386 -1.166,0.605 -2.633,0.907 -4.406,0.907 -1.46,0 -2.824,-0.293 -4.092,-0.881 -1.269,-0.589 -2.372,-1.411 -3.309,-2.462 -0.939,-1.058 -1.678,-2.32 -2.216,-3.789 -0.539,-1.47 -0.808,-3.103 -0.808,-4.901 0,-3.976 0.921,-6.985 2.763,-9.025 1.841,-2.041 4.569,-3.061 8.185,-3.061 1.876,0 3.527,0.381 4.951,1.142 1.424,0.759 2.764,1.867 4.014,3.32 l -1.615,1.66 C 44.551,4.097 43.24,3.216 42.146,2.802 41.05,2.386 39.982,2.179 38.939,2.179 c -2.292,0 -4.015,0.734 -5.161,2.205 -1.146,1.469 -1.789,3.569 -1.929,6.302 z m -5.396,8.35 c 0.888,-1.246 1.331,-2.905 1.331,-4.979 v -0.78 H 31.954 c 0.138,1.004 0.382,1.963 0.73,2.88 0.347,0.917 0.79,1.729 1.33,2.439 0.537,0.708 1.18,1.27 1.927,1.684 0.748,0.416 1.591,0.623 2.528,0.623 1.427,0 2.581,-0.623 3.467,-1.867 m 17.176,14.756 c -0.52,0.536 -1.13,0.806 -1.824,0.806 -0.73,0 -1.355,-0.27 -1.876,-0.806 -0.521,-0.536 -0.783,-1.148 -0.783,-1.841 0,-0.691 0.262,-1.297 0.783,-1.815 0.521,-0.519 1.146,-0.779 1.876,-0.779 0.694,0 1.304,0.26 1.824,0.779 0.521,0.518 0.784,1.124 0.784,1.815 0,0.693 -0.263,1.305 -0.784,1.841 m 0.21,-11.021 h -4.17 V 0 h 4.17 z M 87.835,0 v 14.316 c 0,1.209 -0.051,2.369 -0.155,3.474 -0.105,1.106 -0.419,2.076 -0.939,2.906 -0.521,0.83 -1.313,1.495 -2.372,1.996 -1.062,0.501 -2.528,0.752 -4.404,0.752 -1.184,0 -2.216,-0.179 -3.102,-0.545 -0.888,-0.362 -1.635,-0.785 -2.243,-1.27 -0.608,-0.485 -1.095,-0.968 -1.46,-1.451 -0.365,-0.485 -0.616,-0.848 -0.754,-1.09 l -0.523,3.942 -3.91,-0.364 c 0.036,-0.172 0.08,-0.475 0.131,-0.906 0.052,-0.434 0.105,-0.926 0.156,-1.48 0.053,-0.553 0.096,-1.124 0.132,-1.711 0.033,-0.588 0.051,-1.141 0.051,-1.66 V 0 h 4.067 v 12.759 c 0,1.037 0.163,2.023 0.494,2.958 0.33,0.934 0.782,1.744 1.355,2.438 0.575,0.69 1.251,1.236 2.035,1.634 0.78,0.396 1.642,0.596 2.578,0.596 1.044,0 1.885,-0.129 2.53,-0.39 0.641,-0.26 1.129,-0.647 1.46,-1.166 0.33,-0.52 0.548,-1.159 0.65,-1.92 0.105,-0.761 0.158,-1.627 0.158,-2.593 L 83.77,0 Z m 8.32,0 h 3.857 v 10.943 c 0,0.761 0.027,1.523 0.077,2.284 0.054,0.76 0.165,1.486 0.341,2.178 0.381,1.417 0.946,2.601 1.694,3.554 0.747,0.95 1.588,1.426 2.527,1.426 1.565,0 2.399,-0.848 2.504,-2.541 l 3.387,1.192 c -0.034,0.759 -0.192,1.418 -0.47,1.972 -0.279,0.552 -0.625,0.993 -1.042,1.322 -0.416,0.327 -0.879,0.569 -1.382,0.726 -0.502,0.155 -0.981,0.233 -1.432,0.233 -1.356,0 -2.537,-0.381 -3.545,-1.142 -1.008,-0.76 -1.86,-1.78 -2.555,-3.059 l -0.52,3.942 -3.91,-0.364 c 0.033,-0.172 0.078,-0.475 0.129,-0.906 0.053,-0.434 0.104,-0.926 0.158,-1.48 0.051,-0.553 0.093,-1.124 0.129,-1.711 0.036,-0.588 0.053,-1.141 0.053,-1.66 z m 23.91,33.792 c -0.521,0.536 -1.128,0.806 -1.824,0.806 -0.73,0 -1.356,-0.27 -1.876,-0.806 -0.521,-0.536 -0.782,-1.148 -0.782,-1.841 0,-0.691 0.261,-1.297 0.782,-1.815 0.52,-0.519 1.146,-0.779 1.876,-0.779 0.696,0 1.303,0.26 1.824,0.779 0.523,0.518 0.784,1.124 0.784,1.815 0,0.693 -0.261,1.305 -0.784,1.841 m 0.209,-11.021 h -4.17 V 0 h 4.17 z m 24.5,-17.635 C 143.488,3.925 142.377,3.12 141.438,2.724 140.5,2.325 139.491,2.127 138.414,2.127 c -1.25,0 -2.303,0.24 -3.153,0.726 -0.852,0.483 -1.537,1.141 -2.058,1.971 -0.523,0.83 -0.897,1.78 -1.121,2.853 -0.228,1.07 -0.339,2.178 -0.339,3.32 0,1.142 0.129,2.299 0.39,3.474 0.26,1.176 0.669,2.238 1.225,3.19 0.555,0.95 1.269,1.73 2.137,2.334 0.87,0.606 1.894,0.908 3.077,0.908 1.32,0 2.37,-0.207 3.154,-0.623 0.78,-0.414 1.483,-0.932 2.111,-1.555 l 1.98,2.958 c -1.007,0.689 -2.111,1.157 -3.311,1.399 -1.199,0.24 -2.372,0.362 -3.518,0.362 -1.773,0 -3.38,-0.302 -4.821,-0.907 -1.442,-0.605 -2.66,-1.451 -3.65,-2.542 -0.99,-1.09 -1.756,-2.385 -2.294,-3.89 -0.538,-1.503 -0.808,-3.157 -0.808,-4.953 0,-3.874 0.973,-6.813 2.919,-8.818 1.948,-2.005 4.64,-3.009 8.08,-3.009 0.557,0 1.173,0.061 1.852,0.183 0.676,0.12 1.364,0.327 2.058,0.621 0.694,0.294 1.382,0.71 2.06,1.246 0.677,0.534 1.329,1.217 1.954,2.047 z m 11.578,30.447 h -4.066 V 0 h 4.066 v 12.759 c 0,1.037 0.164,2.023 0.496,2.958 0.329,0.934 0.781,1.744 1.355,2.438 0.572,0.69 1.251,1.236 2.032,1.634 0.783,0.396 1.642,0.596 2.581,0.596 1.041,0 1.885,-0.129 2.528,-0.39 0.643,-0.26 1.128,-0.647 1.46,-1.166 0.329,-0.52 0.547,-1.159 0.652,-1.92 0.104,-0.761 0.155,-1.627 0.155,-2.593 V 0 h 4.066 v 14.316 c 0,1.209 -0.052,2.369 -0.156,3.474 -0.104,1.106 -0.416,2.076 -0.937,2.906 -0.523,0.83 -1.313,1.495 -2.372,1.996 -1.062,0.501 -2.53,0.752 -4.406,0.752 -1.181,0 -2.207,-0.173 -3.075,-0.518 -0.87,-0.345 -1.6,-0.752 -2.189,-1.219 -0.593,-0.468 -1.069,-0.941 -1.434,-1.427 -0.365,-0.485 -0.618,-0.847 -0.756,-1.088 z M 200.869,0 v 15.456 h 16.004 V 0 h 4.17 v 32.365 h -4.17 V 18.309 h -16.004 v 14.056 h -4.17 V 0 Z m 47.386,10.686 v 2.28 c 0,1.28 -0.149,2.551 -0.443,3.814 -0.296,1.262 -0.792,2.386 -1.486,3.371 -0.697,0.986 -1.625,1.781 -2.788,2.386 -1.166,0.605 -2.633,0.907 -4.407,0.907 -1.459,0 -2.823,-0.293 -4.091,-0.881 -1.269,-0.589 -2.373,-1.411 -3.311,-2.462 -0.937,-1.058 -1.676,-2.32 -2.215,-3.789 -0.538,-1.47 -0.807,-3.103 -0.807,-4.901 0,-3.976 0.918,-6.985 2.761,-9.025 1.843,-2.041 4.571,-3.061 8.184,-3.061 1.878,0 3.527,0.381 4.953,1.142 1.425,0.759 2.762,1.867 4.015,3.32 l -1.618,1.66 c -1.529,-1.35 -2.839,-2.231 -3.934,-2.645 -1.095,-0.416 -2.163,-0.623 -3.207,-0.623 -2.294,0 -4.014,0.734 -5.16,2.205 -1.148,1.469 -1.791,3.569 -1.929,6.302 z m -5.396,8.35 c 0.885,-1.246 1.328,-2.905 1.328,-4.979 v -0.78 h -11.311 c 0.138,1.004 0.383,1.963 0.73,2.88 0.348,0.917 0.79,1.729 1.329,2.439 0.538,0.708 1.181,1.27 1.929,1.684 0.748,0.416 1.591,0.623 2.528,0.623 1.424,0 2.581,-0.623 3.467,-1.867 m 16.805,14.756 c -0.521,0.536 -1.129,0.806 -1.823,0.806 -0.73,0 -1.357,-0.27 -1.878,-0.806 -0.521,-0.536 -0.781,-1.148 -0.781,-1.841 0,-0.691 0.26,-1.297 0.781,-1.815 0.521,-0.519 1.148,-0.779 1.878,-0.779 0.694,0 1.302,0.26 1.823,0.779 0.523,0.518 0.783,1.124 0.783,1.815 0,0.693 -0.26,1.305 -0.783,1.841 m 0.209,-11.021 h -4.17 V 0 h 4.17 z M 288.282,0 v 14.316 c 0,1.209 -0.051,2.369 -0.156,3.474 -0.105,1.106 -0.417,2.076 -0.939,2.906 -0.52,0.83 -1.311,1.495 -2.37,1.996 -1.062,0.501 -2.53,0.752 -4.405,0.752 -1.182,0 -2.217,-0.179 -3.102,-0.545 -0.886,-0.362 -1.634,-0.785 -2.242,-1.27 -0.609,-0.485 -1.094,-0.968 -1.459,-1.451 -0.365,-0.485 -0.619,-0.848 -0.757,-1.09 l -0.52,3.942 -3.91,-0.364 c 0.033,-0.172 0.078,-0.475 0.129,-0.906 0.053,-0.434 0.104,-0.926 0.158,-1.48 0.051,-0.553 0.096,-1.124 0.129,-1.711 0.036,-0.588 0.054,-1.141 0.054,-1.66 V 0 h 4.065 v 12.759 c 0,1.037 0.165,2.023 0.496,2.958 0.329,0.934 0.781,1.744 1.355,2.438 0.572,0.69 1.251,1.236 2.032,1.634 0.783,0.396 1.642,0.596 2.581,0.596 1.041,0 1.885,-0.129 2.528,-0.39 0.643,-0.26 1.128,-0.647 1.46,-1.166 0.329,-0.52 0.547,-1.159 0.652,-1.92 0.105,-0.761 0.155,-1.627 0.155,-2.593 V 0 Z m 26.35,10.686 v 2.28 c 0,1.28 -0.146,2.551 -0.442,3.814 -0.296,1.262 -0.79,2.386 -1.484,3.371 -0.697,0.986 -1.627,1.781 -2.79,2.386 -1.165,0.605 -2.633,0.907 -4.405,0.907 -1.459,0 -2.823,-0.293 -4.092,-0.881 -1.27,-0.589 -2.372,-1.411 -3.311,-2.462 -0.939,-1.058 -1.678,-2.32 -2.216,-3.789 -0.539,-1.47 -0.808,-3.103 -0.808,-4.901 0,-3.976 0.921,-6.985 2.764,-9.025 1.842,-2.041 4.569,-3.061 8.185,-3.061 1.875,0 3.526,0.381 4.95,1.142 1.427,0.759 2.764,1.867 4.015,3.32 l -1.616,1.66 c -1.529,-1.35 -2.841,-2.231 -3.936,-2.645 -1.095,-0.416 -2.163,-0.623 -3.204,-0.623 -2.294,0 -4.015,0.734 -5.163,2.205 -1.146,1.469 -1.789,3.569 -1.927,6.302 z m -5.393,8.35 c 0.886,-1.246 1.328,-2.905 1.328,-4.979 v -0.78 h -11.313 c 0.14,1.004 0.383,1.963 0.73,2.88 0.348,0.917 0.792,1.729 1.331,2.439 0.538,0.708 1.182,1.27 1.929,1.684 0.746,0.416 1.589,0.623 2.528,0.623 1.424,0 2.579,-0.623 3.467,-1.867"
       style="fill:#000000;fill-opacity:1;fill-rule:nonzero;stroke:none"
       transform="matrix(1.3333333,0,0,-1.3333333,179.69333,503.46413)"
       clip-path="url(#clipPath12)" />
  </g>
</svg>
