<svg id="l1" xmlns="http://www.w3.org/2000/svg" viewBox="0 0 597 238"><defs><style>.cls-1{fill:#83d0f0;}.cls-2{fill:#5e5e5e;}.cls-3{fill:#009ee0;}</style></defs><title>TH AB</title><path class="cls-1" d="M205.26,28.67a3.7,3.7,0,0,0-.72.46,3.24,3.24,0,0,0-.56.62,2.24,2.24,0,0,0-.33.7,1.44,1.44,0,0,0-.07.67l.74,5.25a1.65,1.65,0,0,0,.24.63,1.4,1.4,0,0,0,.55.38,1.61,1.61,0,0,0,.72.1,2.26,2.26,0,0,0,.82-.23,3.27,3.27,0,0,0,.81-.54,2.87,2.87,0,0,0,.59-.73,2.45,2.45,0,0,0,.34-.8,2,2,0,0,0,.05-.77l-1.05-5.12a1,1,0,0,0-.25-.52,1.12,1.12,0,0,0-.49-.3,1.79,1.79,0,0,0-.66,0A1.77,1.77,0,0,0,205.26,28.67Z"/><path class="cls-1" d="M177.71,45.46a.5.5,0,0,1-.15.08l-.13.08c-.05,0-.08.06-.13.07a1.5,1.5,0,0,0-.13.11,2,2,0,0,0-.55.54,1.37,1.37,0,0,0-.21.57.94.94,0,0,0,.1.55,1.1,1.1,0,0,0,.46.41l5,2.78a2.19,2.19,0,0,0,.68.23,3.28,3.28,0,0,0,.78.08,6.82,6.82,0,0,0,.79-.09,4.31,4.31,0,0,0,.79-.28l.17-.08.15-.08.16-.1a.5.5,0,0,0,.14-.1,2.58,2.58,0,0,0,.58-.63,1.47,1.47,0,0,0,.17-.66,1.07,1.07,0,0,0-.2-.58,1.67,1.67,0,0,0-.57-.47l-5.25-2.57a1.93,1.93,0,0,0-.6-.18,3,3,0,0,0-.68,0,3.54,3.54,0,0,0-.71.13A2.94,2.94,0,0,0,177.71,45.46Z"/><path class="cls-1" d="M235.79,17.32a4.52,4.52,0,0,0-.76.44,6.77,6.77,0,0,0-.76.59,8.47,8.47,0,0,0-.63.7,4.73,4.73,0,0,0-.53.76L229,27.05a2.86,2.86,0,0,0-.37.95,1.19,1.19,0,0,0,0,.7.69.69,0,0,0,.39.41,1.33,1.33,0,0,0,.75,0l.15,0,.16-.05.19-.05a.34.34,0,0,1,.16-.08,5.38,5.38,0,0,0,.83-.5c.27-.2.56-.43.83-.67a7.76,7.76,0,0,0,.72-.8,3.89,3.89,0,0,0,.55-.86l3.92-7.3a3.07,3.07,0,0,0,.3-.84.84.84,0,0,0-.06-.58.61.61,0,0,0-.4-.3,1.68,1.68,0,0,0-.73,0,.74.74,0,0,0-.14,0l-.16.06c-.05,0-.1,0-.14,0Z"/><path class="cls-1" d="M154.26,67.43a5.36,5.36,0,0,0-.54.26c-.17.09-.32.2-.47.29a4.24,4.24,0,0,0-.4.31,1.35,1.35,0,0,0-.32.31,1.21,1.21,0,0,0-.34.62.53.53,0,0,0,.16.46,1.2,1.2,0,0,0,.64.3,5.18,5.18,0,0,0,1,.06l9.65-.74c.24,0,.48-.06.74-.1l.75-.17.74-.23c.24-.08.48-.2.7-.28s.39-.19.56-.29a2.9,2.9,0,0,0,.52-.33,1.72,1.72,0,0,0,.43-.32,2.85,2.85,0,0,0,.35-.34,1.19,1.19,0,0,0,.25-.65.62.62,0,0,0-.3-.51,1.74,1.74,0,0,0-.75-.26,5.12,5.12,0,0,0-1.19,0l-9.6.89-.65.1c-.23,0-.46.1-.68.16s-.44.13-.65.21A3.85,3.85,0,0,0,154.26,67.43Z"/><path class="cls-1" d="M268.35,13.42l-.81.42c-.31.16-.57.32-.85.49a9.49,9.49,0,0,0-.83.58c-.28.19-.53.39-.8.61l-10.51,8.81a12.72,12.72,0,0,0-1.22,1.16,5.19,5.19,0,0,0-.7,1,1,1,0,0,0-.11.72.57.57,0,0,0,.51.35,2,2,0,0,0,.42,0,3.89,3.89,0,0,0,.54-.1,3.51,3.51,0,0,0,.6-.2,5.36,5.36,0,0,0,.65-.25c.28-.13.57-.28.87-.44s.6-.33.91-.53.59-.39.88-.61.58-.44.85-.67l10.68-9a8,8,0,0,0,1.13-1.13,3.6,3.6,0,0,0,.6-.91.68.68,0,0,0,0-.63c-.08-.16-.29-.23-.62-.24a2.08,2.08,0,0,0-.41,0l-.53.12-.6.19Z"/><path class="cls-1" d="M153.9,87.44h0s0,0,0,0,0,0,0,0h0l-14.44,6.41a16.21,16.21,0,0,0-1.85,1A14.85,14.85,0,0,0,135.81,96,11.13,11.13,0,0,0,134.55,97a3.32,3.32,0,0,0-.7,1c-.12.28-.11.5,0,.64a.83.83,0,0,0,.68.24,4.82,4.82,0,0,0,1.27-.17,17.21,17.21,0,0,0,1.73-.62h.1s0,0,0,0l14.83-6.54a21.54,21.54,0,0,0,2-1,17.91,17.91,0,0,0,1.7-1.13,8.16,8.16,0,0,0,1.23-1.11,2.41,2.41,0,0,0,.61-1,.5.5,0,0,0-.16-.59,1.49,1.49,0,0,0-.85-.18,8,8,0,0,0-1.36.24C155.15,87,154.54,87.16,153.9,87.44Z"/><path class="cls-1" d="M296.86,22.74l-.07,0h0s-.05,0-.05,0,0,0,0,0l-19.43,8.64a20.39,20.39,0,0,0-2.3,1.18,11.67,11.67,0,0,0-1.67,1.14,3.76,3.76,0,0,0-.91,1,.54.54,0,0,0,.07.73,1.52,1.52,0,0,0,1,.31,8.5,8.5,0,0,0,1.75-.16,18.64,18.64,0,0,0,2.28-.58,26.43,26.43,0,0,0,2.57-1H280l.06,0h0s0,0,0,0l20.17-8.9a23,23,0,0,0,2.49-1.26,10.44,10.44,0,0,0,1.71-1.2,2.8,2.8,0,0,0,.81-1,.5.5,0,0,0-.26-.68,2.36,2.36,0,0,0-1.25-.2,12,12,0,0,0-2,.25,23.57,23.57,0,0,0-2.43.66C298.6,22,297.72,22.37,296.86,22.74Z"/><path class="cls-1" d="M158.12,107.53a6.93,6.93,0,0,0-1,.48c-.37.19-.74.42-1.14.67s-.81.55-1.24.86-.87.67-1.3,1L135.15,126a27.09,27.09,0,0,0-2.4,2.21,23.71,23.71,0,0,0-1.9,2.16,11.5,11.5,0,0,0-1.21,1.87,2.18,2.18,0,0,0-.33,1.35.48.48,0,0,0,.19.33.66.66,0,0,0,.38.15,1.47,1.47,0,0,0,.54,0,5.6,5.6,0,0,0,.73-.21,13.54,13.54,0,0,0,2.3-1.25c.44-.29.91-.6,1.37-1s1-.74,1.46-1.17l18.94-16.12a26.44,26.44,0,0,0,2.21-2.11,19,19,0,0,0,1.65-2,7.57,7.57,0,0,0,.93-1.61,1.24,1.24,0,0,0,.07-1.07.43.43,0,0,0-.26-.22.87.87,0,0,0-.44-.08,2.22,2.22,0,0,0-.58.09A6.07,6.07,0,0,0,158.12,107.53Z"/><path class="cls-1" d="M281.71,54.3c-.33.14-.67.3-.95.45a8.19,8.19,0,0,0-.75.47,1.89,1.89,0,0,0-.48.51.94.94,0,0,0-.23.5,1,1,0,0,0,.51,1,4.57,4.57,0,0,0,1.67.67,17.82,17.82,0,0,0,2.65.35,27.13,27.13,0,0,0,3.44-.08l29.85-2.45c.79-.06,1.54-.14,2.28-.26s1.44-.21,2.12-.35,1.31-.3,1.89-.46a15.43,15.43,0,0,0,1.62-.53c.43-.17.82-.36,1.16-.52a5.54,5.54,0,0,0,.84-.58,1.73,1.73,0,0,0,.51-.56.87.87,0,0,0,.13-.57c-.07-.41-.44-.76-1.05-1a9.26,9.26,0,0,0-2.48-.68,23.37,23.37,0,0,0-3.46-.26,33.81,33.81,0,0,0-4.07.17l-28.85,2.84c-.62.07-1.24.15-1.83.24s-1.15.2-1.68.32-1.05.26-1.51.41S282.11,54.14,281.71,54.3Z"/><path class="cls-1" d="M180.72,120.32a5.13,5.13,0,0,0-1.41.86,12.69,12.69,0,0,0-1.61,1.5,24.75,24.75,0,0,0-1.65,2.06c-.53.78-1.07,1.6-1.56,2.5L159.6,154a34.37,34.37,0,0,0-1.89,4,22.05,22.05,0,0,0-1.13,3.51,8,8,0,0,0-.23,2.66,1.7,1.7,0,0,0,.78,1.42.82.82,0,0,0,.25.06,1.15,1.15,0,0,0,.26,0,1,1,0,0,0,.3,0l.32-.07a5.94,5.94,0,0,0,1.72-1.06,15.18,15.18,0,0,0,2-2,25.11,25.11,0,0,0,2.08-2.76c.66-1,1.33-2.12,1.95-3.27l14.68-27.88a24.16,24.16,0,0,0,1.36-3.17,11.42,11.42,0,0,0,.63-2.6,3.93,3.93,0,0,0-.1-1.83,1.14,1.14,0,0,0-.87-.78,1.2,1.2,0,0,1-.24,0,1.43,1.43,0,0,1-.23,0c-.07,0-.16,0-.24.06Z"/><path class="cls-1" d="M263.58,86.59a1.64,1.64,0,0,0-.33.14c-.12,0-.21.11-.31.16a2.92,2.92,0,0,1-.28.21c-.08.07-.17.13-.25.21a2,2,0,0,0-.58,1.47,3.22,3.22,0,0,0,.58,1.75,8,8,0,0,0,1.65,1.9,16.33,16.33,0,0,0,2.69,1.81l27.41,14.55a28.58,28.58,0,0,0,3.6,1.61,24.4,24.4,0,0,0,3.56,1,15.87,15.87,0,0,0,3.22.36,7.68,7.68,0,0,0,2.54-.33,1.89,1.89,0,0,0,.45-.2,1.25,1.25,0,0,0,.4-.21,2.25,2.25,0,0,0,.36-.24,2.62,2.62,0,0,0,.28-.3,2.33,2.33,0,0,0,.36-2.05,6.35,6.35,0,0,0-1.45-2.5,15,15,0,0,0-2.87-2.57,24.18,24.18,0,0,0-3.95-2.31L272.77,87.86a16.7,16.7,0,0,0-2.63-1,15.3,15.3,0,0,0-2.51-.54,10.6,10.6,0,0,0-2.22-.09A5.88,5.88,0,0,0,263.58,86.59Z"/><path class="cls-1" d="M222.43,114a3.54,3.54,0,0,0-1.56,1.22,7.18,7.18,0,0,0-1.1,2.14,12.8,12.8,0,0,0-.54,2.83,15.43,15.43,0,0,0,.17,3.29l4.7,29.83a21.83,21.83,0,0,0,1.13,4.44,15.5,15.5,0,0,0,1.77,3.48,7,7,0,0,0,2.22,2.15,2.84,2.84,0,0,0,2.35.33,3.94,3.94,0,0,0,2.05-1.72,10.35,10.35,0,0,0,1.25-3.31,18.52,18.52,0,0,0,.39-4.27,24.52,24.52,0,0,0-.55-4.71l-6.37-29.57a12.11,12.11,0,0,0-1-3,8.41,8.41,0,0,0-1.45-2.11,4.11,4.11,0,0,0-1.7-1.1A2.7,2.7,0,0,0,222.43,114Z"/><path class="cls-2" d="M25.15,215.9a1.06,1.06,0,0,0-.78.3,1.14,1.14,0,0,0-.26.76v7.28a1.79,1.79,0,0,1-.51,1.26,1.67,1.67,0,0,1-1.23.52h-2a1.6,1.6,0,0,1-1.23-.53,1.75,1.75,0,0,1-.51-1.25V217a1.09,1.09,0,0,0-.28-.76,1,1,0,0,0-.74-.3,1.14,1.14,0,0,0-.78.26,1.05,1.05,0,0,0-.32.8v7.28A3.86,3.86,0,0,0,17.66,227a3.82,3.82,0,0,0,2.72,1.09h2A3.73,3.73,0,0,0,25.11,227a3.78,3.78,0,0,0,1.12-2.75V217a1,1,0,0,0-.31-.79A1.13,1.13,0,0,0,25.15,215.9Zm10.32-.08h-2A3.85,3.85,0,0,0,30.8,217a3.89,3.89,0,0,0-1.14,2.75V227a1.13,1.13,0,0,0,.29.79,1,1,0,0,0,.77.28,1,1,0,0,0,.78-.29,1.08,1.08,0,0,0,.28-.78V219.7A1.79,1.79,0,0,1,33.52,218h2a1.57,1.57,0,0,1,1.19.51,1.6,1.6,0,0,1,.56,1.24V227a1.11,1.11,0,0,0,.24.76,1,1,0,0,0,.77.31h0a1,1,0,0,0,.77-.3,1.09,1.09,0,0,0,.27-.77V219.7A3.72,3.72,0,0,0,38.19,217,3.83,3.83,0,0,0,35.47,215.82Zm22.7.24a.6.6,0,0,0-.27-.12.82.82,0,0,0-.4-.1A.76.76,0,0,0,57,216a1.11,1.11,0,0,0-.41.42l-.07.15L54,224.19,51,216.49a1,1,0,0,0-.91-.65.93.93,0,0,0-.39.08,1,1,0,0,0-.68.6l0,.21v.32l.05.23,4.1,10.38a1.12,1.12,0,0,0,.94.66h.1a1,1,0,0,0,.63-.2,1.09,1.09,0,0,0,.32-.52l3.48-10.37,0-.11s0-.08,0-.19a.88.88,0,0,0-.12-.46A.77.77,0,0,0,58.17,216.06Zm8.31-.24h-2a4.09,4.09,0,0,0-2.75,1.11,4,4,0,0,0-1.15,2.77v4.49a3.9,3.9,0,0,0,1.06,2.72,3.38,3.38,0,0,0,2.53,1.15h2.54A1,1,0,0,0,67.82,227a1,1,0,0,0-.33-.75,1.09,1.09,0,0,0-.75-.26H64.21a1.21,1.21,0,0,1-1-.47,1.78,1.78,0,0,1-.49-1.25V223h4a3.67,3.67,0,0,0,3.6-3.59,3.39,3.39,0,0,0-1.17-2.57A4,4,0,0,0,66.48,215.82Zm1.32,4.62a1.32,1.32,0,0,1-1.06.45h-4v-1.21a1.59,1.59,0,0,1,.5-1.2,1.82,1.82,0,0,1,1.29-.53h2a1.87,1.87,0,0,1,1.25.46,1.42,1.42,0,0,1,.47,1A1.26,1.26,0,0,1,67.8,220.44Zm96.36-4.8h-2.49a1.14,1.14,0,0,0-.78.28,1.06,1.06,0,0,0-.32.81,1,1,0,0,0,.39.78,1.24,1.24,0,0,0,.71.19h2.49a1.29,1.29,0,0,1,1.05.54,1.74,1.74,0,0,1,.48,1.22v1.26h-4a3.42,3.42,0,0,0-2.54,1,3.53,3.53,0,0,0-1,2.56,3.43,3.43,0,0,0,1.11,2.52,4.07,4.07,0,0,0,2.71,1h2a3.88,3.88,0,0,0,3.83-3.84v-4.51a4,4,0,0,0-1-2.7A3.58,3.58,0,0,0,164.16,215.64Zm1.53,8.4a1.45,1.45,0,0,1-.51,1.13,1.59,1.59,0,0,1-1.28.6h-2a1.7,1.7,0,0,1-1.19-.47,1.2,1.2,0,0,1-.51-1,1.43,1.43,0,0,1,.39-1.07,1.61,1.61,0,0,1,1.07-.42h4Zm-87.1-8.44H76.92a3.07,3.07,0,0,0-2.36,1.14,4,4,0,0,0-1,2.68v7.32a1,1,0,0,0,.33.79,1.14,1.14,0,0,0,.77.25h0a1,1,0,0,0,.75-.33,1,1,0,0,0,.22-.71v-7.3a2.08,2.08,0,0,1,.43-1.28,1,1,0,0,1,.8-.48h1.67a1.17,1.17,0,0,0,.76-.26,1,1,0,0,0,.32-.78,1,1,0,0,0-.33-.8A1.13,1.13,0,0,0,78.59,215.6Zm6.59,2.07h2.49a1.2,1.2,0,0,0,.76-.23,1,1,0,0,0,.36-.8,1,1,0,0,0-.38-.82,1.19,1.19,0,0,0-.74-.22H85.16a3.62,3.62,0,0,0-2.5,1,3.52,3.52,0,0,0-1,2.56,3.35,3.35,0,0,0,1,2.53,3.41,3.41,0,0,0,2.51,1.08,1.3,1.3,0,0,1,1,.42,1.41,1.41,0,0,1,0,2,1.41,1.41,0,0,1-1.07.45H82.64a1,1,0,0,0-.76.32,1.07,1.07,0,0,0-.26.76,1.08,1.08,0,0,0,.27.74,1,1,0,0,0,.73.3h2.54a3.4,3.4,0,0,0,2.55-1.07,3.47,3.47,0,0,0,0-5,3.4,3.4,0,0,0-2.53-1,1.78,1.78,0,0,1-1.09-.5,1.39,1.39,0,0,1-.37-1,1.57,1.57,0,0,1,.41-1.06A1.71,1.71,0,0,1,85.18,217.67Zm20,8h-1.39a1.2,1.2,0,0,1-1-.45,1.86,1.86,0,0,1-.53-1.3v-6.24H104a1.13,1.13,0,0,0,.76-.25,1,1,0,0,0,.32-.78,1,1,0,0,0-.33-.8,1.13,1.13,0,0,0-.75-.24h-1.77v-4a1.07,1.07,0,0,0-.21-.71.94.94,0,0,0-.78-.35,1.12,1.12,0,0,0-.77.27,1,1,0,0,0-.33.79v12.34a3.88,3.88,0,0,0,1.07,2.75,3.31,3.31,0,0,0,2.51,1.12h1.44a1,1,0,0,0,.71-.27,1,1,0,0,0,.32-.77,1,1,0,0,0-.3-.79A1,1,0,0,0,105.2,225.66ZM117,215.6a1,1,0,0,0-.78.33,1.07,1.07,0,0,0-.23.71,1.22,1.22,0,0,0,0,.26v7.26a1.73,1.73,0,0,1-1.72,1.5h-2a1.65,1.65,0,0,1-1.24-.51,1.6,1.6,0,0,1-.49-1.21v-7.28a1.07,1.07,0,0,0-.25-.74,1.05,1.05,0,0,0-.79-.32,1.09,1.09,0,0,0-.78.3,1.06,1.06,0,0,0-.28.76v7.28a3.54,3.54,0,0,0,1.14,2.67,3.6,3.6,0,0,0,2.68,1.17h2a3.54,3.54,0,0,0,1.67-.43,4,4,0,0,1-1,2.64l-1.25,1.19-.13.18a1.18,1.18,0,0,0-.11.56.86.86,0,0,0,.25.69.91.91,0,0,0,.74.39h0a1,1,0,0,0,.74-.29l1.29-1.31c1.11-1.07,1.53-2.68,1.53-4.75v-10A1,1,0,0,0,117,215.6Zm18.23.06a6.23,6.23,0,0,0-4.32,1.75,6.37,6.37,0,0,0-1.81,4.39,5.93,5.93,0,0,0,1.79,4.29,6,6,0,0,0,4.34,1.82h0a6.08,6.08,0,0,0,6.06-6.11,6.27,6.27,0,0,0-1.72-4.34A6.2,6.2,0,0,0,135.26,215.66Zm2.82,8.92a3.8,3.8,0,0,1-2.81,1.21,3.88,3.88,0,0,1-2.85-1.2,3.77,3.77,0,0,1-1.17-2.79,3.93,3.93,0,0,1,1.17-2.86,3.89,3.89,0,0,1,2.85-1.16,3.8,3.8,0,0,1,2.8,1.16,3.89,3.89,0,0,1,1.21,2.86A3.76,3.76,0,0,1,138.08,224.58Zm11.31-14.07H147.7a3.45,3.45,0,0,0-2.57,1.13,4.06,4.06,0,0,0-1,2.73v12.37a1,1,0,0,0,.36.8,1.16,1.16,0,0,0,.76.24h0a1,1,0,0,0,.71-.3,1.07,1.07,0,0,0,.26-.74v-9.06H148a1,1,0,0,0,.74-.28,1.09,1.09,0,0,0,.3-.76,1,1,0,0,0-.31-.78,1.06,1.06,0,0,0-.73-.26h-1.79v-1.23a1.79,1.79,0,0,1,.48-1.27,1.3,1.3,0,0,1,1-.5h1.69a1.08,1.08,0,0,0,.78-.28,1.18,1.18,0,0,0,0-1.5A1.08,1.08,0,0,0,149.39,210.51Zm26.86,5.13H174.3a3.65,3.65,0,0,0-2.72,1.12,3.82,3.82,0,0,0-1.14,2.73v12.35a1.07,1.07,0,0,0,.29.76,1,1,0,0,0,.77.29h0a1,1,0,0,0,.74-.3,1,1,0,0,0,.28-.75v-4h4a3.36,3.36,0,0,0,2.57-1.15,3.83,3.83,0,0,0,1-2.69v-4.51a3.78,3.78,0,0,0-1.12-2.73A3.85,3.85,0,0,0,176.25,215.64ZM178,224a1.59,1.59,0,0,1-.45,1.2,1.27,1.27,0,0,1-1,.57h-4v-6.28a1.68,1.68,0,0,1,.55-1.23,1.52,1.52,0,0,1,1.22-.56h1.95a1.58,1.58,0,0,1,1.25.54,1.64,1.64,0,0,1,.51,1.25Zm10.93-8.36H187a3.64,3.64,0,0,0-2.71,1.11,3.81,3.81,0,0,0-1.17,2.74v12.35a1,1,0,0,0,1.06,1,1.11,1.11,0,0,0,.76-.28,1,1,0,0,0,.32-.77v-4h4a3.45,3.45,0,0,0,2.55-1.13,4,4,0,0,0,1-2.71v-4.51a3.81,3.81,0,0,0-3.88-3.85Zm1.77,8.36a1.62,1.62,0,0,1-.44,1.2,1.27,1.27,0,0,1-1,.57h-4v-6.28a1.71,1.71,0,0,1,.51-1.24,1.56,1.56,0,0,1,1.23-.55h1.95a1.55,1.55,0,0,1,1.24.55,1.6,1.6,0,0,1,.53,1.24Zm24.34-8.36h-2a3.75,3.75,0,0,0-2.75,1.11,3.84,3.84,0,0,0-1.13,2.74V224a3.93,3.93,0,0,0,1,2.69,3.35,3.35,0,0,0,2.57,1.15h2.54a1,1,0,0,0,.75-.3,1.1,1.1,0,0,0,.27-.76,1.05,1.05,0,0,0-.29-.75,1,1,0,0,0-.73-.26h-2.5a1.2,1.2,0,0,1-1-.5,1.79,1.79,0,0,1-.54-1.23V222.9h4a3.65,3.65,0,0,0,2.57-1,3.83,3.83,0,0,0,1-2.69,3.31,3.31,0,0,0-1.13-2.56A3.86,3.86,0,0,0,215.05,215.64Zm1.28,4.78a1.58,1.58,0,0,1-1.06.38h-4v-1.34a1.91,1.91,0,0,1,1.81-1.76h2a2,2,0,0,1,1.28.51,1.29,1.29,0,0,1,.49,1A2,2,0,0,1,216.33,220.42Zm12.85-9.83a1.09,1.09,0,0,0-.76.28,1,1,0,0,0-.3.76v4h-4a3.34,3.34,0,0,0-2.58,1.13,3.93,3.93,0,0,0-1,2.72V224a3.73,3.73,0,0,0,1.15,2.72,3.64,3.64,0,0,0,2.68,1.12h2a3.71,3.71,0,0,0,2.74-1.13,3.94,3.94,0,0,0,1.07-2.71V211.63a1,1,0,0,0-.24-.72A1.07,1.07,0,0,0,229.18,210.59ZM228.12,224a1.6,1.6,0,0,1-.49,1.19,1.64,1.64,0,0,1-1.26.58h-1.94a1.52,1.52,0,0,1-1.22-.54,1.64,1.64,0,0,1-.53-1.23v-4.51a2,2,0,0,1,.48-1.28,1.28,1.28,0,0,1,1-.51h3.93ZM245,217.67h2.46a1.13,1.13,0,0,0,.75-.24,1.08,1.08,0,0,0,0-1.6,1.14,1.14,0,0,0-.74-.23h-2.48a3.69,3.69,0,0,0-2.53,1,3.57,3.57,0,0,0-1.08,2.56,3.38,3.38,0,0,0,1.07,2.53,3.49,3.49,0,0,0,2.54,1.08,1.31,1.31,0,0,1,1,.43,1.29,1.29,0,0,1,.43,1,1.25,1.25,0,0,1-.42,1,1.4,1.4,0,0,1-1,.45h-2.55a1.07,1.07,0,0,0-.75.28,1.11,1.11,0,0,0-.31.8,1,1,0,0,0,.33.78,1.09,1.09,0,0,0,.73.26H245a3.3,3.3,0,0,0,2.47-1.08,3.48,3.48,0,0,0,0-5,3.31,3.31,0,0,0-2.48-1,1.61,1.61,0,0,1-1.11-.49,1.41,1.41,0,0,1-.38-1,1.47,1.47,0,0,1,1.49-1.51Zm8.5.6a1.57,1.57,0,0,1,1.22-.57h4.79a1.14,1.14,0,0,0,.71-.21,1,1,0,0,0,.35-.76,1.09,1.09,0,0,0-.28-.79,1,1,0,0,0-.78-.3h-4.79a3.86,3.86,0,0,0-3.85,3.84V224a3.68,3.68,0,0,0,1.16,2.72,3.61,3.61,0,0,0,2.66,1.12h4.82a1,1,0,0,0,.77-.29,1.06,1.06,0,0,0,.29-.77,1,1,0,0,0-.32-.77,1.05,1.05,0,0,0-.74-.24h-4.79a1.47,1.47,0,0,1-1.18-.54,1.53,1.53,0,0,1-.57-1.23v-4.52A1.6,1.6,0,0,1,253.45,218.27ZM264.66,214a1.24,1.24,0,0,0,.92-.33,1.27,1.27,0,0,0-.92-2.18,1.31,1.31,0,0,0-.91.34,1.26,1.26,0,0,0-.37.91,1.28,1.28,0,0,0,.39,1A1.31,1.31,0,0,0,264.66,214Zm2,10.8a4.78,4.78,0,0,1-.91-3.33v-4.74a1.1,1.1,0,0,0-.27-.78,1,1,0,0,0-.77-.31,1.11,1.11,0,0,0-.79.29,1.09,1.09,0,0,0-.29.8v4.72a6.7,6.7,0,0,0,1.57,4.83l1.27,1.25a1.21,1.21,0,0,0,.77.31h.06a1.07,1.07,0,0,0,.68-.32.91.91,0,0,0,.29-.75,1.05,1.05,0,0,0-.24-.69Zm10.12-9.16h-2a3.75,3.75,0,0,0-2.71,1.11,3.8,3.8,0,0,0-1.15,2.73V224a3.91,3.91,0,0,0,1,2.69,3.32,3.32,0,0,0,2.53,1.15H277a1,1,0,0,0,.75-.28,1,1,0,0,0,.31-.78,1,1,0,0,0-.33-.77,1.08,1.08,0,0,0-.73-.24h-2.5a1.27,1.27,0,0,1-1-.53A1.65,1.65,0,0,1,273,224v-1.27h4a3.45,3.45,0,0,0,2.53-1.05,3.36,3.36,0,0,0,1.05-2.51,3.42,3.42,0,0,0-1.12-2.54A3.91,3.91,0,0,0,276.75,215.64Zm1.31,4.62a1.61,1.61,0,0,1-1.07.41h-4v-1.21a1.57,1.57,0,0,1,.52-1.2,1.54,1.54,0,0,1,1.22-.56h2a1.85,1.85,0,0,1,1.22.49,1.25,1.25,0,0,1,.49,1A1.49,1.49,0,0,1,278.06,220.26Zm10.66-4.62h-2a3.7,3.7,0,0,0-2.71,1.12,3.77,3.77,0,0,0-1.14,2.72v7.3a1.08,1.08,0,0,0,.33.8,1.13,1.13,0,0,0,.76.26h0a1,1,0,0,0,.78-.31,1.08,1.08,0,0,0,.24-.75v-7.3a1.66,1.66,0,0,1,.55-1.22,1.48,1.48,0,0,1,1.22-.56h2a1.63,1.63,0,0,1,1.2.56,1.73,1.73,0,0,1,.5,1.22v7.3a1,1,0,0,0,.3.78,1.08,1.08,0,0,0,.78.28,1,1,0,0,0,.76-.29,1.1,1.1,0,0,0,.28-.77v-7.3a3.79,3.79,0,0,0-3.84-3.84Zm10.1,2.61a1.66,1.66,0,0,1,1.24-.55h4.77a1.25,1.25,0,0,0,.69-.19.94.94,0,0,0,.39-.79,1.08,1.08,0,0,0-.32-.8,1.11,1.11,0,0,0-.76-.28h-4.77a3.68,3.68,0,0,0-2.74,1.11,3.81,3.81,0,0,0-1.1,2.74V224a3.75,3.75,0,0,0,1.1,2.71,3.67,3.67,0,0,0,2.7,1.13h4.81a1.11,1.11,0,0,0,.75-.26,1,1,0,0,0,.33-.8,1,1,0,0,0-.36-.79,1.1,1.1,0,0,0-.72-.22h-4.77a1.61,1.61,0,0,1-1.24-.56,1.58,1.58,0,0,1-.5-1.21v-4.51A1.7,1.7,0,0,1,298.82,218.25Zm16.46-2.61h-2a3.86,3.86,0,0,0-3.86,3.85V224a4,4,0,0,0,1,2.68,3.43,3.43,0,0,0,2.58,1.16h2.54a1.11,1.11,0,0,0,.75-.26,1,1,0,0,0,.33-.8,1,1,0,0,0-.36-.79,1.13,1.13,0,0,0-.72-.22H313a1.25,1.25,0,0,1-1.05-.54,1.65,1.65,0,0,1-.49-1.19v-1.27h4a3.56,3.56,0,0,0,2.52-1,3.48,3.48,0,0,0,1-2.53,3.35,3.35,0,0,0-1.15-2.55A3.79,3.79,0,0,0,315.28,215.64Zm1.27,4.61a1.45,1.45,0,0,1-1,.42h-4v-1.21a1.56,1.56,0,0,1,.52-1.19,1.67,1.67,0,0,1,1.27-.57h2a1.75,1.75,0,0,1,1.18.48,1.24,1.24,0,0,1,.5,1A1.39,1.39,0,0,1,316.55,220.25Zm8.61.4a1.6,1.6,0,0,1-1.12-.48,1.39,1.39,0,0,1-.41-1,1.52,1.52,0,0,1,.46-1.09,1.6,1.6,0,0,1,1.07-.42h2.51a1,1,0,0,0,.72-.28,1,1,0,0,0,.29-.75,1,1,0,0,0-1-1h-2.53a3.77,3.77,0,0,0-2.56,1,3.73,3.73,0,0,0-1.07,2.57,3.59,3.59,0,0,0,1,2.52,3.54,3.54,0,0,0,2.59,1.09,1.28,1.28,0,0,1,1,.42,1.25,1.25,0,0,1,.45,1,1.22,1.22,0,0,1-.41,1,1.44,1.44,0,0,1-1,.46H322.6a1,1,0,0,0-1.09,1.08,1,1,0,0,0,.34.78,1.11,1.11,0,0,0,.75.26h2.57a3.57,3.57,0,0,0,0-7.13ZM198.72,224.8a4.78,4.78,0,0,1-.91-3.33v-9.58a1.12,1.12,0,0,0-.26-.77,1.06,1.06,0,0,0-.77-.31,1,1,0,0,0-1.09,1.08v9.56a6.7,6.7,0,0,0,1.57,4.83l1.28,1.25a1.19,1.19,0,0,0,.76.31h.07a1.09,1.09,0,0,0,.68-.32.94.94,0,0,0,.29-.75,1.13,1.13,0,0,0-.25-.69ZM203.3,214a1.13,1.13,0,0,0,1.25-1.26,1.26,1.26,0,0,0-.3-.88,1.38,1.38,0,0,0-1.85,0,1.26,1.26,0,0,0-.37.91,1.24,1.24,0,0,0,.39,1A1.31,1.31,0,0,0,203.3,214Zm2,10.8a4.73,4.73,0,0,1-.91-3.33v-4.74a1.1,1.1,0,0,0-.27-.78,1,1,0,0,0-.77-.31,1.11,1.11,0,0,0-.79.29,1.09,1.09,0,0,0-.29.8v4.72a6.7,6.7,0,0,0,1.57,4.83l1.27,1.25a1.21,1.21,0,0,0,.77.31h.06a1.07,1.07,0,0,0,.68-.32.94.94,0,0,0,.29-.75,1.11,1.11,0,0,0-.24-.69ZM93.84,214.17a1.14,1.14,0,0,0,1.25-1.25,1.29,1.29,0,0,0-.31-.89,1.38,1.38,0,0,0-1.84,0,1.22,1.22,0,0,0-.38.91,1.25,1.25,0,0,0,.39,1A1.33,1.33,0,0,0,93.84,214.17Zm2,10.81a4.8,4.8,0,0,1-.91-3.33V216.9a1.06,1.06,0,0,0-.27-.77,1,1,0,0,0-.77-.31,1,1,0,0,0-1.08,1.08v4.73a6.71,6.71,0,0,0,1.57,4.83l1.27,1.25a1.15,1.15,0,0,0,.77.3h.06a1.07,1.07,0,0,0,.68-.32.88.88,0,0,0,.29-.74,1.06,1.06,0,0,0-.24-.7Zm-52-10.81a1.27,1.27,0,0,0,.93-.33,1.23,1.23,0,0,0,.32-.92,1.28,1.28,0,0,0-.3-.89,1.29,1.29,0,0,0-2.22.89,1.22,1.22,0,0,0,.39,1A1.31,1.31,0,0,0,43.8,214.17Zm2,10.81a4.8,4.8,0,0,1-.91-3.33V216.9a1.06,1.06,0,0,0-.27-.77,1,1,0,0,0-.77-.31,1,1,0,0,0-1.08,1.08v4.73a6.71,6.71,0,0,0,1.57,4.83l1.27,1.25a1.15,1.15,0,0,0,.77.3h.06a1.07,1.07,0,0,0,.68-.32.91.91,0,0,0,.29-.74,1.12,1.12,0,0,0-.24-.7Z"/><path class="cls-3" d="M195.82,41.51l-.16.06-.13.07s-.1.06-.13.09a.43.43,0,0,0-.15.09,4.67,4.67,0,0,0-1.05.82,3.65,3.65,0,0,0-.69.94,2.34,2.34,0,0,0-.26.94,1.54,1.54,0,0,0,.24.83l4.13,6a2,2,0,0,0,.75.63,2.67,2.67,0,0,0,1,.28,4.32,4.32,0,0,0,1.23-.06,5.44,5.44,0,0,0,1.3-.39l.17-.07a.83.83,0,0,1,.16-.09,1.19,1.19,0,0,1,.15-.09.34.34,0,0,0,.17-.11,4.86,4.86,0,0,0,1.18-1,4.29,4.29,0,0,0,.73-1.12,2.77,2.77,0,0,0,.17-1.1,1.83,1.83,0,0,0-.41-1l-4.69-5.61a2.11,2.11,0,0,0-.69-.47A2.89,2.89,0,0,0,198,41a3.91,3.91,0,0,0-1,.12A4.75,4.75,0,0,0,195.82,41.51Z"/><path class="cls-3" d="M218,31a7.9,7.9,0,0,0-1.12.67,6,6,0,0,0-1,.86,5.6,5.6,0,0,0-.77,1,3.13,3.13,0,0,0-.44,1l-2.31,9a2,2,0,0,0,0,1.16,1.3,1.3,0,0,0,.5.8,1.77,1.77,0,0,0,1,.36,4.08,4.08,0,0,0,1.36-.18l.16,0,.15-.07.15,0,.16-.07a8.29,8.29,0,0,0,1.3-.78,7.5,7.5,0,0,0,1.13-1,5.39,5.39,0,0,0,.84-1.19,4,4,0,0,0,.48-1.22l1.73-8.95a1.44,1.44,0,0,0,0-1,1.11,1.11,0,0,0-.55-.58,1.68,1.68,0,0,0-.91-.19,4,4,0,0,0-1.22.24l-.13,0-.13.06a.53.53,0,0,0-.13.06Z"/><path class="cls-3" d="M176.68,56.19c-.19.1-.36.19-.54.27l-.49.3a4,4,0,0,0-.45.33,2.07,2.07,0,0,0-.41.36,3.67,3.67,0,0,0-.74.95,1.49,1.49,0,0,0-.16.87,1.08,1.08,0,0,0,.42.68,2.38,2.38,0,0,0,1,.39l10.27,1.74a6.11,6.11,0,0,0,1,.08c.35,0,.69,0,1.05-.1a6,6,0,0,0,1.09-.27,7,7,0,0,0,1.08-.39,4.62,4.62,0,0,0,.59-.29c.21-.11.4-.23.59-.34l.51-.37.43-.42a3,3,0,0,0,.7-1.1,1.2,1.2,0,0,0,0-1,1.34,1.34,0,0,0-.65-.73,3.12,3.12,0,0,0-1.24-.39l-10.42-1.3a4.88,4.88,0,0,0-.86,0,7.89,7.89,0,0,0-.91.1c-.3.07-.61.16-.93.26S177,56.07,176.68,56.19Z"/><path class="cls-3" d="M241,26.06c-.34.16-.69.35-1,.56s-.7.43-1,.68a11.26,11.26,0,0,0-1,.79c-.3.28-.59.57-.87.86l-9.44,10.83a8.8,8.8,0,0,0-1,1.48,2.73,2.73,0,0,0-.35,1.23.91.91,0,0,0,.3.85,1.55,1.55,0,0,0,1,.36,3.4,3.4,0,0,0,.53,0l.56-.11.61-.18.64-.26c.38-.18.76-.38,1.16-.62s.77-.49,1.16-.78a11.6,11.6,0,0,0,1.08-.89,8.24,8.24,0,0,0,1-1l9.41-11.22a6,6,0,0,0,.85-1.32,1.76,1.76,0,0,0,.17-1,.82.82,0,0,0-.45-.64,1.85,1.85,0,0,0-1.07-.17,2.49,2.49,0,0,0-.51.07l-.54.13-.55.19C241.43,25.9,241.24,26,241,26.06Z"/><path class="cls-3" d="M163.76,73.59a11.88,11.88,0,0,0-1.47.74,12.73,12.73,0,0,0-1.3.86,9.91,9.91,0,0,0-1.06.93,4.25,4.25,0,0,0-.72.93,1.63,1.63,0,0,0-.25,1,1,1,0,0,0,.54.66,2.69,2.69,0,0,0,1.18.22,8.34,8.34,0,0,0,1.8-.29l15.93-4.23.52-.16.51-.16a4.34,4.34,0,0,0,.5-.2l.49-.19a15.38,15.38,0,0,0,1.62-.83,11.2,11.2,0,0,0,1.39-.94,6.67,6.67,0,0,0,1.09-1,3.39,3.39,0,0,0,.61-1,1.12,1.12,0,0,0,0-1,1.21,1.21,0,0,0-.78-.57,4.24,4.24,0,0,0-1.45-.13,10.1,10.1,0,0,0-1.95.35L165.52,73a2.23,2.23,0,0,0-.44.13,4.59,4.59,0,0,0-.45.14c-.16,0-.3.11-.45.17Z"/><path class="cls-3" d="M260.78,29.43l-.63.3a5.59,5.59,0,0,0-.6.3c-.21.11-.42.23-.61.35s-.39.22-.6.34L241.05,41.46A17.31,17.31,0,0,0,239,42.94a10.43,10.43,0,0,0-1.36,1.46,2.73,2.73,0,0,0-.56,1.24.93.93,0,0,0,.35.88,1.76,1.76,0,0,0,.91.3,5.74,5.74,0,0,0,1.29,0,14.11,14.11,0,0,0,1.64-.36,17.79,17.79,0,0,0,1.79-.68l.63-.28.62-.34c.24-.1.43-.22.67-.34l.63-.38L263.7,33.08a14.9,14.9,0,0,0,2.06-1.5A6.33,6.33,0,0,0,267,30.16a1.7,1.7,0,0,0,.33-1.12,1,1,0,0,0-.65-.72,3.29,3.29,0,0,0-1.07-.17,8.55,8.55,0,0,0-1.41.17,12.4,12.4,0,0,0-1.66.44A16.46,16.46,0,0,0,260.78,29.43Z"/><path class="cls-3" d="M180,79.59l-.6.27c-.2.1-.4.2-.59.31a6.25,6.25,0,0,0-.63.33c-.21.13-.41.26-.64.38L158.94,92.47a25.26,25.26,0,0,0-2.39,1.71A20.28,20.28,0,0,0,154.61,96a10.52,10.52,0,0,0-1.29,1.75,2.94,2.94,0,0,0-.47,1.44,1,1,0,0,0,.31.7,1.48,1.48,0,0,0,.81.29,4.12,4.12,0,0,0,1.25-.13,8.7,8.7,0,0,0,1.6-.52,6.64,6.64,0,0,0,.62-.28l.62-.3.66-.36c.22-.13.43-.25.67-.41L179,86a23.16,23.16,0,0,0,2.42-1.75,16.17,16.17,0,0,0,1.81-1.79,6.77,6.77,0,0,0,1.07-1.64,1.83,1.83,0,0,0,.15-1.26.94.94,0,0,0-.53-.54,2.24,2.24,0,0,0-1-.16,5.71,5.71,0,0,0-1.34.22A14.91,14.91,0,0,0,180,79.59Z"/><path class="cls-3" d="M246.15,50.53a19.79,19.79,0,0,0-1.9.94,11.54,11.54,0,0,0-1.48,1,4.79,4.79,0,0,0-1,1.06,1.77,1.77,0,0,0-.37,1,1.26,1.26,0,0,0,.59,1,4.15,4.15,0,0,0,1.63.55,11.49,11.49,0,0,0,2.43,0,17.94,17.94,0,0,0,3-.57l25.41-6.74.8-.23c.27-.07.52-.16.78-.25l.74-.26c.24-.1.5-.19.72-.29a15.27,15.27,0,0,0,2.18-1.08,9,9,0,0,0,1.62-1.15,4.37,4.37,0,0,0,.91-1.13,1.23,1.23,0,0,0,.08-1,1.65,1.65,0,0,0-1.09-1A6.52,6.52,0,0,0,279.1,42a16.5,16.5,0,0,0-2.91.13,26.78,26.78,0,0,0-3.34.68L248.76,49.6c-.22.08-.46.13-.69.21l-.66.23c-.21.07-.43.16-.66.23S246.36,50.44,246.15,50.53Z"/><path class="cls-3" d="M189.07,86.23a14.55,14.55,0,0,0-1.36.69c-.46.29-1,.62-1.43,1s-1,.8-1.46,1.24-.95.94-1.41,1.47L166.53,110a21.06,21.06,0,0,0-2.14,2.83,14.14,14.14,0,0,0-1.33,2.63,5.52,5.52,0,0,0-.44,2.15,1.63,1.63,0,0,0,.61,1.38,2.48,2.48,0,0,0,.49.22,2.84,2.84,0,0,0,.6.06,4.37,4.37,0,0,0,.72-.11,4.77,4.77,0,0,0,.77-.24,9.89,9.89,0,0,0,1.55-.79,12.65,12.65,0,0,0,1.7-1.17c.58-.45,1.15-1,1.73-1.52a24.35,24.35,0,0,0,1.65-1.81l17.28-20.58a18.21,18.21,0,0,0,1.75-2.5,8.64,8.64,0,0,0,.88-2.18,2.86,2.86,0,0,0,0-1.61,1.27,1.27,0,0,0-.85-.88,3.5,3.5,0,0,0-.52-.09,2.93,2.93,0,0,0-.58,0,4,4,0,0,0-.65.15A4.66,4.66,0,0,0,189.07,86.23Z"/><path class="cls-3" d="M239.45,64.68a8.17,8.17,0,0,0-.84.39,5.67,5.67,0,0,0-.73.45,4.41,4.41,0,0,0-.6.5,2.94,2.94,0,0,0-.51.56,2.52,2.52,0,0,0-.52,1.52,2.46,2.46,0,0,0,.59,1.43,4.92,4.92,0,0,0,1.62,1.2,9.87,9.87,0,0,0,2.54.77l25.06,4.23a18.35,18.35,0,0,0,2.42.29,23.54,23.54,0,0,0,2.39-.06,15.67,15.67,0,0,0,2.24-.33,13.24,13.24,0,0,0,2-.59,7.78,7.78,0,0,0,1.05-.48,8.26,8.26,0,0,0,.88-.55,5.65,5.65,0,0,0,.72-.64,3.82,3.82,0,0,0,.48-.68,2.26,2.26,0,0,0,.18-1.9,3.77,3.77,0,0,0-1.33-1.72,9,9,0,0,0-2.52-1.34,16.27,16.27,0,0,0-3.41-.79l-24.81-3.12a12.82,12.82,0,0,0-1.85-.1,13.68,13.68,0,0,0-1.82.12,12.5,12.5,0,0,0-1.7.32A12.63,12.63,0,0,0,239.45,64.68Z"/><path class="cls-3" d="M205.18,86.28a7.77,7.77,0,0,0-1.76,1.06A10.26,10.26,0,0,0,201.79,89a14.74,14.74,0,0,0-1.35,2.07,11.44,11.44,0,0,0-.88,2.39l-6,23.32a12.39,12.39,0,0,0-.44,3.39,7.77,7.77,0,0,0,.45,2.77,4,4,0,0,0,1.37,1.8,3,3,0,0,0,2.1.48,1,1,0,0,0,.26,0l.26-.06.25-.07.26-.08a7.28,7.28,0,0,0,2.21-1.37,12.29,12.29,0,0,0,2-2.29,17.2,17.2,0,0,0,2.64-6.16l4.68-23.73a7.67,7.67,0,0,0,.09-2.5,4.07,4.07,0,0,0-.67-1.82,2.62,2.62,0,0,0-1.27-1A3.27,3.27,0,0,0,206,86l-.22,0a1.39,1.39,0,0,0-.19.06l-.19.07Z"/><path class="cls-3" d="M224.33,78.24l-.23.09a1.45,1.45,0,0,1-.25.12l-.22.13a1.49,1.49,0,0,0-.24.14,5.32,5.32,0,0,0-2.4,3.43,5.09,5.09,0,0,0,0,2.13,5.79,5.79,0,0,0,.91,2.1L234,103.89a9.71,9.71,0,0,0,2,2.13,9.91,9.91,0,0,0,2.45,1.41,8.14,8.14,0,0,0,2.68.57,7.13,7.13,0,0,0,2.6-.37c.09-.06.21-.1.3-.15a1.87,1.87,0,0,0,.32-.15c.1,0,.21-.1.31-.14s.19-.12.29-.2a5.29,5.29,0,0,0,1.9-2.09,6.37,6.37,0,0,0,.7-2.72,8.07,8.07,0,0,0-.47-2.93,9.39,9.39,0,0,0-1.63-2.8l-13.7-16.34a6.1,6.1,0,0,0-1.62-1.37,6,6,0,0,0-1.9-.78,6.43,6.43,0,0,0-2-.17A6,6,0,0,0,224.33,78.24Z"/><path class="cls-2" d="M325.35,198.14v-9.82a2.5,2.5,0,0,0-.76-1.88,2.59,2.59,0,0,0-1.91-.76H319.6a2.52,2.52,0,0,0-1.89.76,2.61,2.61,0,0,0-.78,1.88v7.18a2.7,2.7,0,0,0,.71,1.91,1.85,1.85,0,0,0,1.47.73Zm-12.07-9.82A6.35,6.35,0,0,1,319.6,182h3.08a6.27,6.27,0,0,1,6.32,6.34v11.23c0,3.48-.86,6.07-2.55,7.76l-2,2a1.93,1.93,0,0,1-1.3.58,1.74,1.74,0,0,1-1.3-.58,1.91,1.91,0,0,1-.56-1.33,1.87,1.87,0,0,1,.69-1.39l1.83-2a3.65,3.65,0,0,0,1.23-2,5.5,5.5,0,0,0,.17-.88h-6.15A5.45,5.45,0,0,1,315,199.9a6.33,6.33,0,0,1-1.67-4.4Z"/><path class="cls-2" d="M309.61,183.43a1.76,1.76,0,0,1-1.88,1.83h-2.65a1.37,1.37,0,0,0-1.15.67,3.1,3.1,0,0,0-.61,2v11.62a1.71,1.71,0,0,1-1.81,1.82,1.75,1.75,0,0,1-1.86-1.82V187.86a6.53,6.53,0,0,1,1.54-4.36,5,5,0,0,1,3.89-1.91h2.65A1.77,1.77,0,0,1,309.61,183.43Z"/><path class="cls-2" d="M292.26,195.54a6.13,6.13,0,0,1-1.84,4.46,6.05,6.05,0,0,1-4.43,1.86h-3.16a6.26,6.26,0,0,1-4.48-1.86,6.12,6.12,0,0,1-1.83-4.46V183.92a1.82,1.82,0,1,1,3.64,0v11.62a2.46,2.46,0,0,0,.79,1.89,2.39,2.39,0,0,0,1.88.76H286a2.34,2.34,0,0,0,1.81-.76,2.5,2.5,0,0,0,.78-1.89V183.92a1.77,1.77,0,0,1,1.86-1.86,1.75,1.75,0,0,1,1.82,1.86Z"/><path class="cls-2" d="M267.44,199.93a6.06,6.06,0,0,1-4.44,1.88h-3.18a6.35,6.35,0,0,1-6.24-6.31V175.77a1.7,1.7,0,0,1,1.79-1.81,1.75,1.75,0,0,1,1.86,1.81V182h6.17a5.44,5.44,0,0,1,4.18,1.91,6.32,6.32,0,0,1,1.67,4.4v7.18A6.07,6.07,0,0,1,267.44,199.93Zm-1.84-4.43v-7.18a2.7,2.7,0,0,0-.71-1.93,1.91,1.91,0,0,0-1.52-.71v0h-6.14v9.84a2.5,2.5,0,0,0,.76,1.86,2.44,2.44,0,0,0,1.81.78H263a2.46,2.46,0,0,0,1.86-.78A2.49,2.49,0,0,0,265.6,195.5Z"/><path class="cls-2" d="M230.4,188.32a6.27,6.27,0,0,1,6.27-6.31h3.15a6,6,0,0,1,4.43,1.86,6.26,6.26,0,0,1,1.84,4.45V200a1.75,1.75,0,0,1-1.84,1.86,1.79,1.79,0,0,1-1.86-1.86V188.32a2.58,2.58,0,0,0-2.54-2.64h-3.16a2.53,2.53,0,0,0-1.86.76,2.47,2.47,0,0,0-.76,1.88V200a1.77,1.77,0,0,1-1.86,1.86A1.74,1.74,0,0,1,230.4,200Z"/><path class="cls-2" d="M220.22,187.74a2.16,2.16,0,0,0-.76-1.62,2.68,2.68,0,0,0-2-.78H214a2.6,2.6,0,0,0-2,.85,2.72,2.72,0,0,0-.78,2v2.13h6.66a2.1,2.1,0,0,0,1.64-.69A2.84,2.84,0,0,0,220.22,187.74Zm3.35,0a5.78,5.78,0,0,1-5.58,5.83v0h-6.68v1.84a2.53,2.53,0,0,0,.71,1.86,1.91,1.91,0,0,0,1.54.73h4a1.77,1.77,0,0,1,1.86,1.84,1.75,1.75,0,0,1-1.86,1.83h-4a5.54,5.54,0,0,1-4.26-1.9,6.43,6.43,0,0,1-1.66-4.41V188.2a6.35,6.35,0,0,1,6.31-6.34h3.35a6.39,6.39,0,0,1,4.41,1.69A5.46,5.46,0,0,1,223.57,187.71Z"/><path class="cls-2" d="M199.92,182a1.71,1.71,0,0,1,1.82,1.81,1.73,1.73,0,0,1-1.82,1.84h-2.64V200a1.68,1.68,0,0,1-1.81,1.76,1.72,1.72,0,0,1-1.86-1.79v-19.7a6.42,6.42,0,0,1,1.66-4.41,5.49,5.49,0,0,1,4.19-1.91h2.69a1.76,1.76,0,0,1,1.86,1.86,1.73,1.73,0,0,1-1.86,1.79h-2.69a1.94,1.94,0,0,0-1.49.76,2.57,2.57,0,0,0-.69,1.91V182Z"/><path class="cls-2" d="M178.43,200v-19.7a6.29,6.29,0,0,1,1.67-4.41,5.48,5.48,0,0,1,4.18-1.91H187a1.76,1.76,0,0,1,1.86,1.86,1.74,1.74,0,0,1-1.86,1.79h-2.7a1.94,1.94,0,0,0-1.49.76,2.71,2.71,0,0,0-.71,1.91V182h2.67a1.75,1.75,0,0,1,1.81,1.84,1.72,1.72,0,0,1-1.81,1.81h-2.67V200a1.67,1.67,0,0,1-1.79,1.79A1.71,1.71,0,0,1,178.43,200Z"/><path class="cls-2" d="M167.1,195.54v-2.15h-6.68a2.27,2.27,0,0,0-1.64.69,2.85,2.85,0,0,0-.64,1.91,2.12,2.12,0,0,0,.76,1.61,2.75,2.75,0,0,0,2,.76h3.47a2.52,2.52,0,0,0,2-.83A2.66,2.66,0,0,0,167.1,195.54Zm3.6-7.17v7.15a6.35,6.35,0,0,1-6.32,6.32H161a6.41,6.41,0,0,1-4.41-1.67,5.56,5.56,0,0,1-1.86-4.18,5.83,5.83,0,0,1,5.58-5.81v0h6.71V188.3a2.67,2.67,0,0,0-.68-1.86,2.09,2.09,0,0,0-1.57-.74h-4a1.72,1.72,0,0,1-1.86-1.78,1.74,1.74,0,0,1,1.86-1.86h4A5.43,5.43,0,0,1,169,184,6.23,6.23,0,0,1,170.7,188.37Z"/><path class="cls-2" d="M144.38,188.32a2.45,2.45,0,0,0-.78-1.88,2.48,2.48,0,0,0-1.83-.78H136V200a1.82,1.82,0,1,1-3.64,0V175.77a1.82,1.82,0,0,1,3.64,0V182h5.8a6,6,0,0,1,4.41,1.86,6.18,6.18,0,0,1,1.84,4.45V200a1.84,1.84,0,1,1-3.68,0Z"/><path class="cls-2" d="M115.79,201.81a6,6,0,0,1-4.43-1.88,6.17,6.17,0,0,1-1.83-4.43v-7.18a6.35,6.35,0,0,1,1.81-4.45,6.14,6.14,0,0,1,4.45-1.86h7.64a1.77,1.77,0,0,1,1.86,1.86,1.75,1.75,0,0,1-1.86,1.81h-7.64a2.6,2.6,0,0,0-2.59,2.64v7.18a2.63,2.63,0,0,0,2.59,2.64h7.64a1.75,1.75,0,0,1,1.86,1.81,1.77,1.77,0,0,1-1.86,1.86Z"/><path class="cls-2" d="M90.63,187.88a5.53,5.53,0,0,1,1.69-4.16A5.62,5.62,0,0,1,96.48,182h4a1.83,1.83,0,1,1,0,3.65h-4a2.13,2.13,0,0,0-1.6.66,2.07,2.07,0,0,0-.63,1.57,1.9,1.9,0,0,0,.66,1.49,2.09,2.09,0,0,0,1.57.66,5.46,5.46,0,0,1,4.08,1.72,5.84,5.84,0,0,1-4.11,10H92.42A1.68,1.68,0,0,1,90.63,200a1.73,1.73,0,0,1,1.79-1.86h4.06a2.17,2.17,0,0,0,1.54-.64,2.08,2.08,0,0,0,.64-1.54,2.18,2.18,0,0,0-.64-1.56,2.25,2.25,0,0,0-1.54-.64A5.6,5.6,0,0,1,92.29,192,5.66,5.66,0,0,1,90.63,187.88Z"/><path class="cls-2" d="M78.66,189.67V181.2a3.55,3.55,0,0,0-.93-2.37,3,3,0,0,0-2.28-1h-3a2.94,2.94,0,0,0-2.22,1,3.47,3.47,0,0,0-1,2.4v8.47ZM65.39,199.83V181.2A7.1,7.1,0,0,1,67.45,176a6.68,6.68,0,0,1,4.94-2h3.06a6.94,6.94,0,0,1,5,2,7.58,7.58,0,0,1,2.08,5.19v18.63a2,2,0,0,1-.59,1.49,2,2,0,0,1-1.42.49,1.73,1.73,0,0,1-1.35-.54,2.14,2.14,0,0,1-.51-1.44v-6.49h-9.4v6.49a2,2,0,0,1-.49,1.42,1.67,1.67,0,0,1-1.42.56,1.93,1.93,0,0,1-1.39-.49A2,2,0,0,1,65.39,199.83Z"/><path class="cls-2" d="M32.59,187.34V175.69a1.82,1.82,0,0,1,.47-1.32,2,2,0,0,1,1.42-.56h.05a2,2,0,0,1,1.44.54,1.83,1.83,0,0,1,.49,1.34v10.46h9.47V175.69a2,2,0,0,1,.47-1.32,2,2,0,0,1,1.42-.56h0a2,2,0,0,1,1.44.54,1.83,1.83,0,0,1,.49,1.34v24a1.83,1.83,0,0,1-.49,1.35,2,2,0,0,1-1.44.51h0a1.74,1.74,0,0,1-1.89-1.86V190H36.46v9.67A1.83,1.83,0,0,1,36,201a2,2,0,0,1-1.44.51h-.05a1.92,1.92,0,0,1-1.42-.54,1.81,1.81,0,0,1-.47-1.32Z"/><path class="cls-2" d="M9.68,173.81H27.43a1.81,1.81,0,0,1,1.91,1.93v.08a1.91,1.91,0,0,1-.57,1.42,2,2,0,0,1-1.34.46h-7v22.1a1.88,1.88,0,0,1-.49,1.35,2,2,0,0,1-1.45.51h0a2,2,0,0,1-1.42-.53,1.86,1.86,0,0,1-.46-1.33V177.7H9.68a2,2,0,0,1-1.34-.46,1.91,1.91,0,0,1-.57-1.42v-.08a1.81,1.81,0,0,1,1.91-1.93Z"/><path class="cls-1" d="M374.47,44.19a3.5,3.5,0,0,0-1.15-2.63A17.12,17.12,0,0,0,368.86,39a29.28,29.28,0,0,1-5.41-2.71,7.67,7.67,0,0,1-2.35-2.57,7.05,7.05,0,0,1-.78-3.42,7.63,7.63,0,0,1,2.59-5.9,10.56,10.56,0,0,1,13.44.13,8.37,8.37,0,0,1,2.58,6.33H374.2a4.7,4.7,0,0,0-1.31-3.34,4.45,4.45,0,0,0-3.36-1.38,4.73,4.73,0,0,0-3.29,1.08,3.72,3.72,0,0,0-1.2,2.91,3.15,3.15,0,0,0,.88,2.33,15.7,15.7,0,0,0,4.2,2.32c3.53,1.39,5.93,2.73,7.2,4.05a6.94,6.94,0,0,1,1.9,5,7.61,7.61,0,0,1-2.6,6.06,10.24,10.24,0,0,1-7,2.28,10.4,10.4,0,0,1-7.36-2.61,8.59,8.59,0,0,1-2.82-6.6h4.78a5.3,5.3,0,0,0,1.48,3.78,6.45,6.45,0,0,0,7.52.31A3.59,3.59,0,0,0,374.47,44.19Z"/><path class="cls-1" d="M394.12,48.11a5.06,5.06,0,0,0,3.79-1.46,6.22,6.22,0,0,0,1.56-4.18H404a9.85,9.85,0,0,1-3,6.94,9.4,9.4,0,0,1-6.86,2.76c-3.6,0-6.34-1.14-8.23-3.4s-2.83-5.64-2.83-10.11v-3.2q0-6.57,2.82-10c1.88-2.28,4.62-3.43,8.22-3.43a9.17,9.17,0,0,1,7.07,2.82A11.46,11.46,0,0,1,404,32.56h-4.48a7.9,7.9,0,0,0-1.55-4.83,4.74,4.74,0,0,0-3.82-1.61,5.43,5.43,0,0,0-4.7,2.08c-1,1.39-1.55,3.66-1.59,6.83v3.71q0,5.13,1.52,7.25A5.5,5.5,0,0,0,394.12,48.11Z"/><path class="cls-1" d="M413.56,14.86a3,3,0,0,1-.67,2,2.5,2.5,0,0,1-2,.8,2.47,2.47,0,0,1-2-.8,3.09,3.09,0,0,1-.67-2,3.21,3.21,0,0,1,.67-2,2.86,2.86,0,0,1,4.05,0A3.14,3.14,0,0,1,413.56,14.86Zm-.38,36.77h-4.75V22.57h4.75Z"/><path class="cls-1" d="M429.67,52.17c-3.62,0-6.39-1.08-8.33-3.24s-2.92-5.32-2.95-9.49V35.92q0-6.5,2.83-10.19a9.42,9.42,0,0,1,7.91-3.7c3.4,0,5.95,1.09,7.63,3.25s2.54,5.55,2.58,10.13v3.11H423.12v.68c0,3.11.58,5.38,1.76,6.79a6.2,6.2,0,0,0,5.06,2.12,8.21,8.21,0,0,0,3.69-.79,9.3,9.3,0,0,0,3-2.51l2.47,3C437,50.72,433.89,52.17,429.67,52.17Zm-.54-26a5,5,0,0,0-4.38,2c-.95,1.36-1.48,3.46-1.61,6.3h11.44V33.8q-.18-4.14-1.49-5.91A4.6,4.6,0,0,0,429.13,26.12Z"/><path class="cls-1" d="M448.14,22.57l.13,3.14A8.5,8.5,0,0,1,455.34,22q7.7,0,7.81,10.29V51.63h-4.73V32.54c0-2.28-.38-3.89-1.14-4.85a4.1,4.1,0,0,0-3.42-1.44,4.86,4.86,0,0,0-3.18,1.18,8.51,8.51,0,0,0-2.27,3.09V51.63h-4.76V22.57Z"/><path class="cls-1" d="M479,48.11a5.06,5.06,0,0,0,3.79-1.46,6.17,6.17,0,0,0,1.55-4.18h4.49a9.89,9.89,0,0,1-3,6.94A9.41,9.41,0,0,1,479,52.17c-3.6,0-6.34-1.14-8.23-3.4s-2.83-5.64-2.83-10.11v-3.2q0-6.57,2.82-10C472.63,23.18,475.37,22,479,22A9.19,9.19,0,0,1,486,24.85a11.46,11.46,0,0,1,2.78,7.71h-4.49a7.83,7.83,0,0,0-1.54-4.83A4.76,4.76,0,0,0,479,26.12a5.45,5.45,0,0,0-4.7,2.08c-1,1.39-1.55,3.66-1.58,6.83v3.71c0,3.42.5,5.84,1.52,7.25A5.5,5.5,0,0,0,479,48.11Z"/><path class="cls-1" d="M503.32,52.17q-5.43,0-8.33-3.24T492,39.44V35.92q0-6.5,2.83-10.19a9.42,9.42,0,0,1,7.91-3.7c3.4,0,5.94,1.09,7.63,3.25S513,30.83,513,35.41v3.11H496.76v.68c0,3.11.59,5.38,1.76,6.79a6.21,6.21,0,0,0,5.06,2.12,8.22,8.22,0,0,0,3.7-.79,9.3,9.3,0,0,0,3-2.51l2.47,3Q509.65,52.17,503.32,52.17Zm-.54-26a5,5,0,0,0-4.38,2c-.95,1.36-1.48,3.46-1.61,6.3h11.44V33.8q-.18-4.14-1.49-5.91A4.6,4.6,0,0,0,502.78,26.12Z"/><path class="cls-1" d="M370.74,111.17c-3.62,0-6.39-1.08-8.33-3.24s-2.92-5.32-3-9.49V94.92q0-6.49,2.83-10.19A9.42,9.42,0,0,1,370.2,81c3.4,0,5.94,1.09,7.63,3.25s2.54,5.55,2.58,10.13v3.11H364.18v.68c0,3.11.59,5.38,1.76,6.79a6.23,6.23,0,0,0,5.07,2.12,8.21,8.21,0,0,0,3.69-.79,9.3,9.3,0,0,0,3-2.51l2.47,3C378.11,109.72,375,111.17,370.74,111.17Zm-.54-26a5,5,0,0,0-4.38,2c-.95,1.36-1.48,3.46-1.61,6.3h11.44V92.8q-.18-4.14-1.49-5.91A4.6,4.6,0,0,0,370.2,85.12Z"/><path class="cls-1" d="M389.21,81.57l.13,3.14A8.5,8.5,0,0,1,396.41,81q7.69,0,7.81,10.29v19.31H399.5V91.54c0-2.28-.39-3.89-1.15-4.85a4.1,4.1,0,0,0-3.42-1.44,4.86,4.86,0,0,0-3.18,1.18,8.51,8.51,0,0,0-2.27,3.09v21.11h-4.76V81.57Z"/><path class="cls-1" d="M407.92,94.78q0-6.78,2.47-10.27A8.31,8.31,0,0,1,417.62,81a7.44,7.44,0,0,1,6.74,3.79l.24-3.25h4.3V110.9q0,5.4-2.77,8.28t-7.71,2.89A13.17,13.17,0,0,1,413.6,121a10.09,10.09,0,0,1-4-2.62l1.93-3.28a9.12,9.12,0,0,0,6.53,2.9c3.95,0,6-2.15,6.09-6.47v-3.78a7.46,7.46,0,0,1-6.55,3.41,8.3,8.3,0,0,1-7-3.4q-2.52-3.4-2.63-9.76Zm4.76,2.7q0,4.89,1.43,7.18a5.14,5.14,0,0,0,4.72,2.29q3.54,0,5.31-3.62V88.82c-1.23-2.38-3-3.57-5.26-3.57a5.2,5.2,0,0,0-4.73,2.29c-1,1.53-1.46,3.88-1.47,7Z"/><path class="cls-1" d="M439,73.86a3,3,0,0,1-.67,2,2.5,2.5,0,0,1-2,.8,2.47,2.47,0,0,1-2-.8,3.09,3.09,0,0,1-.67-2,3.21,3.21,0,0,1,.67-2,2.86,2.86,0,0,1,4.05,0A3.14,3.14,0,0,1,439,73.86Zm-.38,36.77h-4.75V81.57h4.75Z"/><path class="cls-1" d="M448.09,81.57l.14,3.14A8.47,8.47,0,0,1,455.29,81q7.71,0,7.81,10.29v19.31h-4.72V91.54c0-2.28-.38-3.89-1.14-4.85a4.13,4.13,0,0,0-3.43-1.44,4.86,4.86,0,0,0-3.18,1.18,8.51,8.51,0,0,0-2.27,3.09v21.11h-4.75V81.57Z"/><path class="cls-1" d="M478.14,111.17c-3.62,0-6.39-1.08-8.33-3.24s-2.92-5.32-2.95-9.49V94.92q0-6.49,2.83-10.19A9.42,9.42,0,0,1,477.6,81c3.4,0,5.94,1.09,7.63,3.25s2.54,5.55,2.57,10.13v3.11H471.58v.68c0,3.11.59,5.38,1.76,6.79a6.23,6.23,0,0,0,5.07,2.12,8.21,8.21,0,0,0,3.69-.79,9.3,9.3,0,0,0,3-2.51l2.47,3Q484.47,111.17,478.14,111.17Zm-.54-26a5,5,0,0,0-4.38,2c-1,1.36-1.48,3.46-1.61,6.3h11.44V92.8q-.18-4.14-1.49-5.91A4.6,4.6,0,0,0,477.6,85.12Z"/><path class="cls-1" d="M502.52,111.17c-3.62,0-6.39-1.08-8.33-3.24s-2.92-5.32-2.95-9.49V94.92q0-6.49,2.83-10.19A9.42,9.42,0,0,1,502,81c3.4,0,5.94,1.09,7.63,3.25s2.54,5.55,2.57,10.13v3.11H496v.68c0,3.11.59,5.38,1.76,6.79a6.22,6.22,0,0,0,5.07,2.12,8.21,8.21,0,0,0,3.69-.79,9.3,9.3,0,0,0,3-2.51l2.47,3Q508.85,111.17,502.52,111.17Zm-.54-26a5,5,0,0,0-4.38,2c-1,1.36-1.48,3.46-1.61,6.3h11.44V92.8q-.18-4.14-1.49-5.91A4.6,4.6,0,0,0,502,85.12Z"/><path class="cls-1" d="M528.51,86a11.24,11.24,0,0,0-2.15-.19c-2.44,0-4.14,1.34-5.1,4v20.79H516.5V81.57h4.62l.08,3a5.92,5.92,0,0,1,5.4-3.5,4.19,4.19,0,0,1,1.88.38Z"/><path class="cls-1" d="M538.46,73.86a3,3,0,0,1-.67,2,2.5,2.5,0,0,1-2,.8,2.45,2.45,0,0,1-2-.8,3,3,0,0,1-.67-2,3.15,3.15,0,0,1,.67-2,2.85,2.85,0,0,1,4,0A3.09,3.09,0,0,1,538.46,73.86Zm-.37,36.77h-4.76V81.57h4.76Z"/><path class="cls-1" d="M547.56,81.57l.14,3.14A8.48,8.48,0,0,1,554.76,81q7.71,0,7.82,10.29v19.31h-4.73V91.54c0-2.28-.38-3.89-1.14-4.85a4.12,4.12,0,0,0-3.43-1.44,4.86,4.86,0,0,0-3.18,1.18,8.51,8.51,0,0,0-2.27,3.09v21.11h-4.75V81.57Z"/><path class="cls-1" d="M566.28,94.78q0-6.78,2.47-10.27A8.28,8.28,0,0,1,576,81a7.43,7.43,0,0,1,6.74,3.79l.24-3.25h4.3V110.9q0,5.4-2.77,8.28a10.13,10.13,0,0,1-7.7,2.89A13.13,13.13,0,0,1,572,121a10.13,10.13,0,0,1-4-2.62l1.94-3.28a9.08,9.08,0,0,0,6.52,2.9q5.94,0,6.1-6.47v-3.78a7.47,7.47,0,0,1-6.55,3.41,8.28,8.28,0,0,1-7-3.4q-2.52-3.4-2.63-9.76Zm4.75,2.7q0,4.89,1.44,7.18a5.12,5.12,0,0,0,4.71,2.29c2.36,0,4.14-1.21,5.32-3.62V88.82c-1.24-2.38-3-3.57-5.27-3.57a5.17,5.17,0,0,0-4.72,2.29q-1.46,2.29-1.48,7Z"/><path class="cls-3" d="M381.4,156.5q0,6.8-2.44,10.23a8.17,8.17,0,0,1-7.09,3.44,7.52,7.52,0,0,1-6.93-4l-.24,3.44h-4.33V128.38h4.73v15.39a7.47,7.47,0,0,1,6.71-3.74,8.19,8.19,0,0,1,7.17,3.39c1.6,2.25,2.4,5.66,2.42,10.2Zm-4.73-2.73c0-3.43-.48-5.88-1.43-7.33a5.16,5.16,0,0,0-4.66-2.19c-2.46,0-4.28,1.32-5.48,4V162c1.18,2.62,3,3.92,5.53,3.92a5,5,0,0,0,4.62-2.25c.93-1.51,1.41-3.84,1.42-7Z"/><path class="cls-3" d="M399.82,167.08a8.17,8.17,0,0,1-6.9,3.09,6.93,6.93,0,0,1-6-2.73c-1.35-1.82-2-4.46-2-7.94V140.57h4.73v18.59q0,6.79,4.08,6.79a6,6,0,0,0,6-3.87V140.57h4.76v29.06h-4.51Z"/><path class="cls-3" d="M423.23,162.19a3.5,3.5,0,0,0-1.15-2.63,17.12,17.12,0,0,0-4.46-2.58,29.28,29.28,0,0,1-5.41-2.71,7.67,7.67,0,0,1-2.35-2.57,7.05,7.05,0,0,1-.78-3.42,7.63,7.63,0,0,1,2.59-5.9,10.56,10.56,0,0,1,13.44.13,8.37,8.37,0,0,1,2.58,6.33H423a4.7,4.7,0,0,0-1.31-3.34,4.45,4.45,0,0,0-3.36-1.38A4.73,4.73,0,0,0,415,145.2a3.72,3.72,0,0,0-1.2,2.91,3.19,3.19,0,0,0,.88,2.33,15.7,15.7,0,0,0,4.2,2.32c3.53,1.39,5.93,2.73,7.2,4.05a6.94,6.94,0,0,1,1.9,5,7.61,7.61,0,0,1-2.6,6.06,10.22,10.22,0,0,1-7,2.28,10.4,10.4,0,0,1-7.36-2.61,8.59,8.59,0,0,1-2.82-6.6H413a5.3,5.3,0,0,0,1.48,3.78,6.45,6.45,0,0,0,7.52.31A3.59,3.59,0,0,0,423.23,162.19Z"/><path class="cls-3" d="M438.29,132.86a3,3,0,0,1-.67,2,2.5,2.5,0,0,1-2,.8,2.44,2.44,0,0,1-2-.8,3,3,0,0,1-.68-2,3.16,3.16,0,0,1,.68-2,2.42,2.42,0,0,1,2-.83,2.46,2.46,0,0,1,2,.85A3.14,3.14,0,0,1,438.29,132.86Zm-.37,36.77h-4.76V140.57h4.76Z"/><path class="cls-3" d="M448.49,140.57l.14,3.14a8.47,8.47,0,0,1,7.06-3.68q7.71,0,7.81,10.29v19.31h-4.72V150.54c0-2.28-.38-3.89-1.14-4.85a4.12,4.12,0,0,0-3.43-1.44,4.86,4.86,0,0,0-3.18,1.18,8.51,8.51,0,0,0-2.27,3.09v21.11H444V140.57Z"/><path class="cls-3" d="M478.54,170.17c-3.62,0-6.39-1.08-8.33-3.24s-2.92-5.32-2.95-9.49v-3.52q0-6.49,2.83-10.19A9.42,9.42,0,0,1,478,140c3.4,0,5.95,1.09,7.63,3.25s2.54,5.55,2.58,10.13v3.11H472v.68c0,3.11.58,5.38,1.76,6.79a6.2,6.2,0,0,0,5.06,2.12,8.21,8.21,0,0,0,3.69-.79,9.3,9.3,0,0,0,3-2.51l2.47,3C485.91,168.72,482.76,170.17,478.54,170.17Zm-.54-26a5,5,0,0,0-4.38,2c-.95,1.36-1.48,3.46-1.61,6.3h11.44v-.64q-.18-4.14-1.49-5.91A4.6,4.6,0,0,0,478,144.12Z"/><path class="cls-3" d="M506.65,162.19a3.5,3.5,0,0,0-1.15-2.63A17.12,17.12,0,0,0,501,157a29.28,29.28,0,0,1-5.41-2.71,7.67,7.67,0,0,1-2.35-2.57,7.05,7.05,0,0,1-.78-3.42,7.63,7.63,0,0,1,2.59-5.9,10.56,10.56,0,0,1,13.44.13,8.37,8.37,0,0,1,2.58,6.33h-4.73a4.7,4.7,0,0,0-1.31-3.34,4.45,4.45,0,0,0-3.36-1.38,4.73,4.73,0,0,0-3.29,1.08,3.72,3.72,0,0,0-1.2,2.91,3.15,3.15,0,0,0,.88,2.33,15.7,15.7,0,0,0,4.2,2.32c3.53,1.39,5.93,2.73,7.2,4.05a6.94,6.94,0,0,1,1.9,5,7.61,7.61,0,0,1-2.6,6.06,10.24,10.24,0,0,1-7,2.28,10.4,10.4,0,0,1-7.36-2.61,8.59,8.59,0,0,1-2.82-6.6h4.78a5.25,5.25,0,0,0,1.48,3.78,6.45,6.45,0,0,0,7.52.31A3.59,3.59,0,0,0,506.65,162.19Z"/><path class="cls-3" d="M529.23,162.19a3.5,3.5,0,0,0-1.15-2.63,17.12,17.12,0,0,0-4.46-2.58,29.28,29.28,0,0,1-5.41-2.71,7.67,7.67,0,0,1-2.35-2.57,7.05,7.05,0,0,1-.78-3.42,7.63,7.63,0,0,1,2.59-5.9,10.56,10.56,0,0,1,13.44.13,8.37,8.37,0,0,1,2.58,6.33H529a4.7,4.7,0,0,0-1.31-3.34,4.45,4.45,0,0,0-3.36-1.38A4.73,4.73,0,0,0,521,145.2a3.72,3.72,0,0,0-1.2,2.91,3.19,3.19,0,0,0,.88,2.33,15.7,15.7,0,0,0,4.2,2.32c3.53,1.39,5.93,2.73,7.2,4.05a6.94,6.94,0,0,1,1.9,5,7.61,7.61,0,0,1-2.6,6.06,10.22,10.22,0,0,1-7,2.28,10.4,10.4,0,0,1-7.36-2.61,8.59,8.59,0,0,1-2.82-6.6H519a5.3,5.3,0,0,0,1.48,3.78,6.45,6.45,0,0,0,7.52.31A3.59,3.59,0,0,0,529.23,162.19Z"/><path class="cls-3" d="M365.47,228.63h-4.75V187.38h4.75Z"/><path class="cls-3" d="M385.42,228.63a10.54,10.54,0,0,1-.61-3.17,7.57,7.57,0,0,1-6.45,3.71A8.3,8.3,0,0,1,372.2,227a8.44,8.44,0,0,1-2.22-6.24,8.82,8.82,0,0,1,3-7c2-1.74,4.75-2.62,8.24-2.66h3.49v-3.09a5,5,0,0,0-1.15-3.7,5.78,5.78,0,0,0-7,.17,4.29,4.29,0,0,0-1.34,3.24h-4.76a7.68,7.68,0,0,1,1.32-4.26,9.18,9.18,0,0,1,3.55-3.18,10.61,10.61,0,0,1,5-1.16q4.47,0,6.79,2.22a8.69,8.69,0,0,1,2.37,6.46v14.66a17.52,17.52,0,0,0,.92,5.83v.43Zm-6.33-3.79a6.35,6.35,0,0,0,3.33-1,6,6,0,0,0,2.3-2.42v-6.93H382a9,9,0,0,0-5.34,1.52,4.81,4.81,0,0,0-2,4.09,5.33,5.33,0,0,0,1,3.59A4.33,4.33,0,0,0,379.09,224.84Z"/><path class="cls-3" d="M417.11,220.28l4.4-20.71h4.7l-7.11,29.06h-3.79l-5.67-20.79-5.53,20.79H400.3l-7.07-29.06h4.68l4.51,20.2,5.4-20.2h3.76Z"/></svg>
