<svg xmlns="http://www.w3.org/2000/svg" viewBox="0 0 152.01 47.998"><path data-name="Pfad 15107" d="M1.086 17.492h1.221v5.572h7.618v-5.572h1.229V30.32h-1.23v-6.212H2.346v6.212h-1.26Z" fill="#1a1a18"/><path data-name="Pfad 15108" d="M22.449 25.69c0 2.652-1.549 4.9-4.386 4.9s-4.386-2.247-4.386-4.9 1.55-4.907 4.387-4.907 4.385 2.247 4.385 4.907Zm-7.635 0c0 1.97 1.077 3.948 3.249 3.948s3.274-1.978 3.274-3.948-1.077-3.956-3.249-3.956-3.274 1.978-3.274 3.956Z" fill="#1a1a18"/><path data-name="Pfad 15109" d="M31.304 23.964a2.525 2.525 0 0 0-2.623-2.23c-2.172 0-3.249 1.978-3.249 3.956s1.077 3.948 3.249 3.948a2.753 2.753 0 0 0 2.694-2.643h1.136a3.771 3.771 0 0 1-3.83 3.59c-2.837 0-4.377-2.247-4.377-4.9s1.537-4.9 4.377-4.9a3.46 3.46 0 0 1 3.754 3.182Z" fill="#1a1a18"/><path data-name="Pfad 15110" d="M34.697 17.492h1.136v5.16a3.14 3.14 0 0 1 2.963-1.869c2.609 0 3.367 1.364 3.367 3.577v5.96h-1.069v-5.783c0-1.6-.522-2.8-2.357-2.8s-2.87 1.364-2.9 3.173v5.4h-1.14Z" fill="#1a1a18"/><path data-name="Pfad 15111" d="M50.547 23.763a2.142 2.142 0 0 0-2.433-2.029c-1 0-2.189.4-2.189 1.6 0 1 1.153 1.364 1.919 1.566l1.515.337c1.288.2 2.635.951 2.635 2.525 0 2.012-1.987 2.786-3.712 2.786-2.155 0-3.628-1-3.813-3.266h1.136a2.438 2.438 0 0 0 2.729 2.315c1.061 0 2.525-.463 2.525-1.759 0-1.077-1.01-1.439-2.029-1.684l-1.456-.32c-1.473-.4-2.584-.9-2.584-2.525 0-1.886 1.843-2.6 3.485-2.6 1.843 0 3.317.968 3.367 2.98Z" fill="#1a1a18"/><path data-name="Pfad 15112" d="M60.8 23.964a2.525 2.525 0 0 0-2.618-2.231c-2.18 0-3.258 1.978-3.258 3.956s1.077 3.948 3.258 3.948a2.761 2.761 0 0 0 2.719-2.643h1.131a3.769 3.769 0 0 1-3.824 3.591c-2.845 0-4.386-2.247-4.386-4.9s1.54-4.9 4.386-4.9a3.468 3.468 0 0 1 3.754 3.182Z" fill="#1a1a18"/><path data-name="Pfad 15113" d="M64.192 17.492h1.136v5.16a3.148 3.148 0 0 1 2.963-1.869c2.609 0 3.367 1.364 3.367 3.577v5.96h-1.136v-5.783c0-1.6-.522-2.8-2.348-2.8s-2.812 1.365-2.846 3.171v5.4h-1.136Z" fill="#1a1a18"/><path data-name="Pfad 15114" d="M82.004 30.32H80.96v-1.688a3.434 3.434 0 0 1-3.19 1.936c-2.34 0-3.258-1.364-3.258-3.519v-6h1.136v6.035c.051 1.684.682 2.525 2.475 2.525 1.944 0 2.786-1.835 2.786-3.721v-4.836h1.133Z" fill="#1a1a18"/><path data-name="Pfad 15115" d="M84.781 17.492h1.136V30.32h-1.136Z" fill="#1a1a18"/><path data-name="Pfad 15116" d="M89.385 25.993c0 1.684.842 3.645 3.056 3.645a2.811 2.811 0 0 0 2.9-2.374h1.136c-.488 2.1-1.684 3.367-4.04 3.367-2.946 0-4.209-2.264-4.209-4.9 0-2.449 1.246-4.907 4.209-4.907s4.167 2.6 4.074 5.21Zm6.027-.951a3.138 3.138 0 0 0-2.946-3.308c-1.827 0-2.879 1.616-3.056 3.308Z" fill="#1a1a18"/><path data-name="Pfad 15117" d="M1.077 34.908h6.919a3.527 3.527 0 0 1 3.751 3.543 3.165 3.165 0 0 1-2.029 3.215c1.38.362 1.776 1.684 1.869 3 .051.842 0 2.323.539 3.039h-2.82a13.881 13.881 0 0 1-.455-3.072c-.194-1.347-.715-1.936-2.138-1.936H3.897v5.051h-2.82Zm2.82 5.808h3.131c1.263 0 1.944-.539 1.944-1.835s-.682-1.776-1.944-1.776H3.897Z" fill="#1a1a18"/><path data-name="Pfad 15118" d="M18.443 38.199a4.9 4.9 0 1 1 0 9.79 4.9 4.9 0 0 1 0-9.79Zm0 7.87c1.742 0 2.264-1.5 2.264-2.971s-.522-2.98-2.264-2.98-2.239 1.49-2.239 2.98.513 2.971 2.239 2.971Z" fill="#1a1a18"/><path data-name="Pfad 15119" d="M27.045 44.717c0 1.12.951 1.566 1.961 1.566.732 0 1.684-.286 1.684-1.187 0-.766-1.061-1.035-2.887-1.431-1.473-.328-2.946-.842-2.946-2.525 0-2.374 2.045-2.98 4.04-2.98s3.9.682 4.1 2.963h-2.45c-.067-.985-.842-1.254-1.742-1.254-.572 0-1.414.1-1.414.842 0 .918 1.439 1.044 2.887 1.38s2.946.842 2.946 2.609c0 2.441-2.113 3.232-4.209 3.232s-4.259-.842-4.369-3.274Z" fill="#1a1a18"/><path data-name="Pfad 15120" d="M36.979 43.709c.076 1.616.842 2.357 2.281 2.357a2.1 2.1 0 0 0 2.012-1.2h2.247a4.209 4.209 0 0 1-4.352 3.123 4.538 4.538 0 0 1-4.739-4.891 4.655 4.655 0 0 1 4.739-4.9c3.165 0 4.689 2.66 4.512 5.513Zm4.15-1.616c-.236-1.3-.791-1.978-2.029-1.978a2.012 2.012 0 0 0-2.121 1.981Z" fill="#1a1a18"/><path data-name="Pfad 15121" d="M45.345 38.452h2.424v1.287h.056a3.367 3.367 0 0 1 2.837-1.54c2.71 0 3.367 1.524 3.367 3.822v5.716h-2.522v-5.245c0-1.532-.446-2.281-1.633-2.281-1.38 0-1.978.774-1.978 2.66v4.865H45.37Z" fill="#1a1a18"/><path data-name="Pfad 15122" d="M56.162 34.907h2.525v4.832h.051a3.274 3.274 0 0 1 2.71-1.54c2.719 0 3.367 1.524 3.367 3.822v5.716h-2.526v-5.246c0-1.532-.455-2.281-1.684-2.281-1.38 0-1.97.774-1.97 2.66v4.865h-2.524Z" fill="#1a1a18"/><path data-name="Pfad 15123" d="M69.074 43.709c.067 1.616.842 2.357 2.281 2.357a2.1 2.1 0 0 0 2.012-1.2h2.247a4.209 4.209 0 0 1-4.352 3.123 4.534 4.534 0 0 1-4.739-4.891 4.655 4.655 0 0 1 4.739-4.9c3.165 0 4.689 2.66 4.512 5.513Zm4.15-1.616c-.236-1.3-.791-1.978-2.029-1.978a2.012 2.012 0 0 0-2.121 1.978Z" fill="#1a1a18"/><path data-name="Pfad 15124" d="M80.059 37.011h-2.525v-2.1h2.525Zm-2.525 1.439h2.525v9.259h-2.525Z" fill="#1a1a18"/><path data-name="Pfad 15125" d="M82.306 38.452h2.407v1.254a3.367 3.367 0 0 1 2.837-1.507 2.761 2.761 0 0 1 2.719 1.54 3.367 3.367 0 0 1 2.8-1.54c1.97 0 3.367.918 3.367 3.325v6.212h-2.525v-5.261c0-1.246-.109-2.264-1.566-2.264s-1.684 1.187-1.684 2.348v5.177h-2.525v-5.21c0-1.077.076-2.315-1.54-2.315-.505 0-1.726.32-1.726 2.138v5.387h-2.525Z" fill="#1a1a18"/><path data-name="Pfad 15126" d="M0 .017h10.16v1.044H5.707v11.784h-1.2V1.061h-4.5Z" fill="#1a1a18"/><path data-name="Pfad 15127" d="M11.027 8.519c0 1.684.842 3.645 3.056 3.645a2.811 2.811 0 0 0 2.9-2.407h1.136c-.488 2.1-1.684 3.367-4.04 3.367-2.946 0-4.209-2.264-4.209-4.9 0-2.449 1.246-4.907 4.209-4.907s4.167 2.6 4.074 5.21Zm6-.951a3.138 3.138 0 0 0-2.946-3.308c-1.827 0-2.845 1.616-3.056 3.308Z" fill="#1a1a18"/><path data-name="Pfad 15128" d="M27.407 6.49a2.525 2.525 0 0 0-2.626-2.231c-2.172 0-3.249 1.978-3.249 3.956s1.077 3.948 3.249 3.948a2.769 2.769 0 0 0 2.7-2.643h1.133a3.779 3.779 0 0 1-3.83 3.6c-2.837 0-4.377-2.247-4.377-4.9s1.54-4.907 4.377-4.907a3.46 3.46 0 0 1 3.754 3.182Z" fill="#1a1a18"/><path data-name="Pfad 15129" d="M31.355.017h1.136v5.16a3.148 3.148 0 0 1 2.964-1.869c2.609 0 3.367 1.364 3.367 3.577v5.96h-1.067V7.062c0-1.6-.522-2.8-2.348-2.8s-2.879 1.364-2.912 3.182v5.4h-1.14Z" fill="#1a1a18"/><path data-name="Pfad 15130" d="M42.189 3.577h1.136v1.6a3.14 3.14 0 0 1 2.963-1.869c2.609 0 3.367 1.364 3.367 3.577v5.96h-1.069V7.062c0-1.6-.522-2.8-2.348-2.8s-2.879 1.364-2.912 3.182v5.4h-1.137Z" fill="#1a1a18"/><path data-name="Pfad 15131" d="M53.056.017h1.111v1.818h-1.111Zm0 3.561h1.111v9.259h-1.111Z" fill="#1a1a18"/><path data-name="Pfad 15132" d="M63.106 6.288a2.142 2.142 0 0 0-2.433-2.029c-1 0-2.189.4-2.189 1.6 0 1 1.153 1.364 1.928 1.566l1.507.337c1.288.2 2.635.951 2.635 2.525 0 2.054-1.97 2.837-3.712 2.837-2.155 0-3.628-1-3.813-3.266h1.136a2.438 2.438 0 0 0 2.728 2.315c1.061 0 2.525-.463 2.525-1.759 0-1.077-1.01-1.439-2.029-1.684l-1.456-.32c-1.473-.4-2.584-.9-2.584-2.525 0-1.886 1.843-2.6 3.485-2.6 1.843 0 3.317.968 3.367 2.98Z" fill="#1a1a18"/><path data-name="Pfad 15133" d="M73.914 6.489a2.525 2.525 0 0 0-2.618-2.231c-2.18 0-3.258 1.978-3.258 3.956s1.077 3.948 3.258 3.948a2.761 2.761 0 0 0 2.694-2.643h1.128a3.769 3.769 0 0 1-3.822 3.594c-2.837 0-4.386-2.247-4.386-4.9s1.549-4.907 4.386-4.907a3.468 3.468 0 0 1 3.754 3.182Z" fill="#1a1a18"/><path data-name="Pfad 15134" d="M77.871.017h1.128v5.16a3.157 3.157 0 0 1 2.971-1.869c2.6 0 3.367 1.364 3.367 3.577v5.96h-1.136V7.062c0-1.6-.513-2.8-2.348-2.8s-2.879 1.364-2.912 3.182v5.4h-1.129Z" fill="#1a1a18"/><path data-name="Pfad 15135" d="M89.386 8.519c0 1.684.842 3.645 3.047 3.645a2.82 2.82 0 0 0 2.912-2.407h1.136c-.488 2.1-1.684 3.367-4.049 3.367-2.946 0-4.209-2.264-4.209-4.9 0-2.449 1.237-4.907 4.209-4.907s4.209 2.6 4.083 5.21Zm6.027-.951a3.139 3.139 0 0 0-2.955-3.308c-1.835 0-2.87 1.616-3.047 3.308Z" fill="#1a1a18"/><g data-name="Gruppe 2877"><path data-name="Pfad 15136" d="M110.953 23.57a17.063 17.063 0 0 1 1.616-6.995V5.809a23.8 23.8 0 0 0-8.283 17.761Z" fill="#f39100"/><path data-name="Pfad 15137" d="M145.335 23.569h6.667A23.864 23.864 0 0 0 128.559 0v6.658a17.214 17.214 0 0 1 16.776 16.911Z" fill="#f39100"/><path data-name="Pfad 15138" d="M127.872 47.743v-6.675a17.2 17.2 0 0 1-16.919-16.919h-6.667a23.864 23.864 0 0 0 23.569 23.569h.059Z" fill="#f39100"/><path data-name="Pfad 15139" d="M152.002 24.149h-6.675a17.2 17.2 0 0 1-16.894 16.919v6.675h.051a23.864 23.864 0 0 0 23.527-23.569Z" fill="#f39100"/><path data-name="Pfad 15140" d="M127.748.024a23.754 23.754 0 0 0-8.577 1.742V.142h-6.65v23.316h6.65V9.208a17.062 17.062 0 0 1 8.56-2.524Z" fill="#1a1a18"/><path data-name="Pfad 15141" d="M127.587 23.342h-23.03V.282h23.03Zm-23.317.269h23.569V.042H104.27Z" fill="#1a1a18"/><path data-name="Pfad 15142" d="M151.741 23.342h-23.047V.282h23.047Zm-23.308.269h23.569V.042h-23.569Z" fill="#1a1a18"/><path data-name="Pfad 15143" d="M127.587 47.475h-23.03V24.419h23.03Zm-23.317.27h23.569v-23.57H104.27Z" fill="#1a1a18"/><path data-name="Pfad 15144" d="M151.741 47.475h-23.047V24.419h23.047Zm-23.308.27h23.569v-23.57h-23.569Z" fill="#1a1a18"/></g></svg>