<?xml version="1.0" encoding="utf-8"?>
<!-- Generator: Adobe Illustrator 16.0.4, SVG Export Plug-In . SVG Version: 6.00 Build 0)  -->
<!DOCTYPE svg PUBLIC "-//W3C//DTD SVG 1.1//EN" "http://www.w3.org/Graphics/SVG/1.1/DTD/svg11.dtd">
<svg version="1.1" id="Ebene_1" xmlns="http://www.w3.org/2000/svg" xmlns:xlink="http://www.w3.org/1999/xlink" x="0px" y="0px"
	 width="283.389px" height="110.943px" viewBox="0 0 283.389 110.943" enable-background="new 0 0 283.389 110.943"
	 xml:space="preserve">
<g>
	<polygon fill="#003361" points="25.514,25.6 25.514,53.98 25.514,54.313 25.847,54.313 54.227,54.313 54.56,54.313 54.56,53.98 
		54.56,25.6 54.56,25.268 54.227,25.268 25.847,25.268 25.514,25.268 	"/>
	<polygon fill="none" stroke="#FFFFFF" stroke-width="0.6649" points="25.514,25.6 25.514,53.98 25.514,54.313 25.847,54.313 
		54.227,54.313 54.56,54.313 54.56,53.98 54.56,25.6 54.56,25.268 54.227,25.268 25.847,25.268 25.514,25.268 	"/>
	<polygon fill="#F39200" points="25.512,56.858 25.512,85.225 25.512,85.559 25.847,85.559 54.216,85.559 54.55,85.559 
		54.55,85.225 54.55,56.858 54.55,56.522 54.216,56.522 25.847,56.522 25.512,56.522 	"/>
	<polygon fill="none" stroke="#FFFFFF" stroke-width="0.6694" points="25.512,56.858 25.512,85.225 25.512,85.559 25.847,85.559 
		54.216,85.559 54.55,85.559 54.55,85.225 54.55,56.858 54.55,56.522 54.216,56.522 25.847,56.522 25.512,56.522 	"/>
	<polygon fill="#003361" points="223.312,85.212 226.948,85.212 226.948,75.053 235.771,85.212 240.993,85.212 230.661,74.202 
		239.833,65.444 234.879,65.444 226.948,73.468 226.948,56.905 223.312,56.905 	"/>
	<path fill="#003361" d="M143.781,85.212h3.481v-2.787h0.076c0.97,1.471,3.214,3.25,6.733,3.25c5.96,0,8.475-5.264,8.475-10.682
		c0-5.301-2.784-9.982-8.513-9.982c-3.445,0-5.418,1.354-6.54,3.174h-0.078v-11.23h-3.637L143.781,85.212L143.781,85.212z
		 M158.681,75.264c0.076,3.098-1.55,7.471-5.456,7.471c-4.104,0-5.807-4.064-5.807-7.354c0-3.678,1.896-7.432,5.846-7.432
		C157.21,67.948,158.757,71.704,158.681,75.264L158.681,75.264z"/>
	<polygon fill="#003361" points="71.156,85.188 74.793,85.188 74.793,65.452 71.156,65.452 	"/>
	<polygon fill="#003361" points="71.156,60.462 74.793,60.462 74.793,56.823 71.156,56.823 	"/>
	<path fill="#003361" d="M81.446,85.212h3.638v-9.135c0-4.799,1.857-8.127,5.998-8.127c3.173,0.193,4.182,2.439,4.182,7.043v10.219
		H98.9V73.485c0-5.303-2.283-8.477-7.393-8.477c-2.748,0-5.379,1.354-6.462,3.602h-0.078v-3.137h-3.521L81.446,85.212L81.446,85.212
		z M105.089,85.212h3.639v-9.135c0-4.799,1.856-8.127,5.999-8.127c3.173,0.193,4.179,2.439,4.179,7.043v10.219h3.638V73.485
		c0-5.303-2.284-8.477-7.392-8.477c-2.747,0-5.379,1.354-6.462,3.602h-0.078v-3.137h-3.521L105.089,85.212L105.089,85.212z
		 M127.07,84.593c1.664,0.889,3.56,1.082,5.418,1.082c3.521,0,6.888-1.936,6.888-6.152c0-6.307-8.552-5.146-8.552-9.172
		c0-1.625,1.625-2.398,3.482-2.398c0.852,0,3.019,0.504,3.831,1.008l0.31-3.176c-1.432-0.424-2.825-0.771-4.528-0.771
		c-3.906,0-6.965,1.975-6.965,6.076c0,5.531,8.552,5.225,8.552,8.82c0,2.129-2.051,2.826-3.715,2.826
		c-1.045,0-3.096-0.465-4.526-1.395L127.07,84.593L127.07,84.593z M167.432,85.212h3.639v-8.98c0-4.953,2.128-8.049,5.379-8.049
		c0.619,0,1.354,0.078,2.012,0.348v-3.25c-0.771-0.152-1.313-0.27-2.396-0.27c-2.091,0-4.183,1.471-5.147,3.52h-0.077v-3.057h-3.404
		V85.21h-0.004V85.212z M199.938,65.473h-3.641v9.135c0,4.799-1.854,8.127-5.998,8.127c-3.173-0.193-4.179-2.439-4.179-7.043V65.473
		h-3.638V77.2c0,5.303,2.283,8.475,7.392,8.475c2.747,0,5.379-1.354,6.462-3.598h0.077v3.135h3.522L199.938,65.473L199.938,65.473z
		 M218.978,65.782c-1.046-0.424-2.941-0.771-4.412-0.771c-6.036,0-10.062,4.334-10.062,10.332c0,5.648,4.104,10.332,10.062,10.332
		c1.313,0,3.058-0.115,4.564-0.812l-0.271-3.25c-1.122,0.736-2.67,1.123-3.909,1.123c-4.682,0-6.578-3.871-6.578-7.393
		c0-3.754,2.283-7.393,6.348-7.393c1.159,0,2.555,0.271,3.945,0.854L218.978,65.782L218.978,65.782z"/>
	<path fill="#003361" d="M221.016,34.158h-5.226V27.41l-3.637,1.161v5.586h-4.451v2.941h4.451v11.532
		c0,3.946,2.322,5.727,6.075,5.727c1.16,0,2.282-0.31,3.096-0.542V50.72c-0.542,0.348-1.354,0.696-2.478,0.696
		c-1.663,0-3.059-1.238-3.059-3.521V37.099h5.226L221.016,34.158L221.016,34.158z"/>
	<path fill="#003361" d="M257.571,34.158h-5.225V27.41l-3.64,1.161v5.586h-4.45v2.941h4.45v11.532c0,3.946,2.322,5.727,6.076,5.727
		c1.16,0,2.283-0.31,3.095-0.542V50.72c-0.541,0.348-1.354,0.696-2.476,0.696c-1.664,0-3.059-1.238-3.059-3.521V37.099h5.226
		L257.571,34.158L257.571,34.158z"/>
	<polygon fill="#003361" points="200.213,29.24 203.853,29.24 203.853,25.602 200.213,25.602 	"/>
	<polygon fill="#003361" points="118.493,29.24 122.13,29.24 122.13,25.602 118.493,25.602 	"/>
	<polygon fill="#003361" points="228.239,31.059 231.876,31.059 231.876,27.421 228.239,27.421 	"/>
	<polygon fill="#003361" points="234.55,31.059 238.189,31.059 238.189,27.421 234.55,27.421 	"/>
	<path fill="#003361" d="M88.191,34.235h-3.637v9.133c0,4.798-1.858,8.126-5.999,8.126c-3.175-0.193-4.181-2.438-4.181-7.043V34.235
		h-3.638v11.727c0,5.301,2.283,8.475,7.392,8.475c2.747,0,5.381-1.354,6.462-3.599h0.077v3.135h3.521L88.191,34.235L88.191,34.235z
		 M94.381,53.97h3.64v-9.133c0-4.799,1.855-8.126,5.998-8.126c3.173,0.192,4.179,2.438,4.179,7.043V53.97h3.638V42.244
		c0-5.301-2.283-8.475-7.391-8.475c-2.748,0-5.379,1.354-6.463,3.599h-0.078v-3.134h-3.521L94.381,53.97L94.381,53.97z
		 M118.49,53.97h3.637V34.235h-3.637V53.97L118.49,53.97z M144.613,34.235h-3.639l-5.456,16.098h-0.078l-5.34-16.098h-3.986
		l7.082,19.736h4.334L144.613,34.235L144.613,34.235z M163.265,49.52c-0.892,0.735-3.678,1.974-6.074,1.974
		c-3.445,0-6.502-2.67-6.502-6.579h14.086c0-6.347-2.128-11.145-8.707-11.145c-5.572,0-9.248,4.141-9.248,9.984
		c0,6.424,3.212,10.681,10.216,10.681c3.25,0,4.837-0.774,6.229-1.277V49.52L163.265,49.52z M150.688,42.205
		c0.271-2.554,1.741-5.494,5.302-5.494c3.134,0,4.915,2.477,4.915,5.494H150.688L150.688,42.205z M169.65,53.97h3.638v-8.979
		c0-4.953,2.128-8.049,5.379-8.049c0.619,0,1.354,0.077,2.014,0.348v-3.25c-0.773-0.154-1.315-0.271-2.398-0.271
		c-2.09,0-4.179,1.47-5.147,3.521h-0.075v-3.057h-3.405V53.97H169.65L169.65,53.97z M183.037,53.351
		c1.664,0.89,3.562,1.083,5.418,1.083c3.522,0,6.888-1.935,6.888-6.153c0-6.308-8.552-5.146-8.552-9.171
		c0-1.625,1.625-2.398,3.483-2.398c0.851,0,3.018,0.503,3.831,1.006l0.31-3.173c-1.432-0.427-2.825-0.774-4.526-0.774
		c-3.908,0-6.968,1.974-6.968,6.076c0,5.534,8.556,5.224,8.556,8.823c0,2.128-2.054,2.824-3.718,2.824
		c-1.045,0-3.096-0.464-4.525-1.393L183.037,53.351L183.037,53.351z M200.221,53.97h3.639V34.235h-3.639V53.97L200.221,53.97z
		 M226.69,38.723c1.47-1.238,3.676-2.012,5.727-2.012c3.64,0,4.876,1.74,4.876,5.146c-1.432-0.078-2.438-0.078-3.87-0.078
		c-3.753,0-9.171,1.548-9.171,6.501c0,4.295,2.98,6.153,7.236,6.153c3.328,0,5.263-1.819,6.115-3.02h0.076v2.555h3.404
		c-0.078-0.581-0.154-1.625-0.154-3.87v-8.166c0-5.379-2.281-8.165-7.934-8.165c-2.516,0-4.683,0.773-6.502,1.856L226.69,38.723
		L226.69,38.723z M237.291,46.308c0,2.94-1.896,5.186-5.495,5.186c-1.664,0-3.676-1.123-3.676-3.212
		c0-3.482,4.876-3.792,6.851-3.792c0.772,0,1.549,0.077,2.32,0.077V46.308L237.291,46.308z"/>
</g>
</svg>
